<svg width="200" height="308" viewBox="0 0 200 308" fill="none" xmlns="http://www.w3.org/2000/svg">
<path d="M140.924 75.377C142.335 73.913 144.289 73.308 145.981 73.302C149.663 73.29 151.303 75.219 152.021 76.361C154.164 79.769 154.326 86.194 153.13 90.22C152.283 93.071 150.883 97.436 147.229 100.667C145.723 101.999 143.468 102.925 141.266 102.639C141.266 102.639 141.055 102.612 140.684 102.564C140.078 104.884 139.307 107.164 138.826 108.275C137.459 112.476 129.613 127.278 119.184 133.433C119.35 136.498 119.597 138.956 120.245 141.691C120.66 143.741 122.134 145.15 123.591 146.122C126.051 147.76 130.991 149.001 134.962 149.691C134.883 149.769 134.843 149.813 134.843 149.813C127.467 157.795 113.605 162.221 99.2495 162.817C84.5925 163.335 69.0605 159.3 62.3425 152.15C65.7695 151.133 69.9155 150.127 72.7475 148.407C74.3325 147.445 75.9425 145.008 76.3455 142.966C76.5485 141.32 76.5075 136.85 76.4055 135.054C71.7625 132.867 67.4975 129.437 63.3755 124.871C57.6905 118.575 54.3275 111.687 52.3955 105.947C50.0875 106.638 47.5335 105.869 45.8085 104.565C41.9175 101.623 40.1865 97.378 39.1235 94.601C37.6215 90.679 37.2905 84.26 39.1655 80.698C39.7935 79.504 41.2815 77.456 44.9535 77.185C46.6405 77.061 48.6355 77.514 50.1545 78.866C50.1545 78.866 42.5355 35.97 95.8755 35.97C149.216 35.97 140.926 75.379 140.926 75.379L140.924 75.377Z" fill="white"/>
<path d="M146.307 38.583C143.795 31.799 139.879 25.867 134.361 21.787L128.085 15.692C120.894 6.93097 109.58 2.46697 93.6585 2.37997C72.9545 2.47497 58.0475 12.315 51.6225 21.191L53.0635 22.57C39.5075 35.281 35.2395 57.251 42.8315 77.592C43.4415 77.389 44.1435 77.243 44.9515 77.184C46.6385 77.06 48.6335 77.513 50.1525 78.865L57.1725 72.495C62.3825 66.22 71.6395 56.707 78.2465 52.912C79.0215 52.467 80.0585 52.989 80.4295 54.298C80.7885 55.563 80.8235 56.532 80.7585 57.453C80.6595 58.852 82.0505 59.813 83.1735 59.131C87.8845 56.272 96.2535 50.561 102.237 47.765L111.297 48.526C114.248 49.677 116.504 50.805 119.804 53.431C125.459 57.931 130.956 64.191 133.505 69.95L140.923 75.377C142.334 73.912 144.288 73.308 145.98 73.302C146.907 73.299 147.705 73.419 148.392 73.619C150.754 62.493 150.329 49.446 146.306 38.584L146.307 38.583Z" fill="#645D5C"/>
<path d="M53.6955 22.403C54.6415 21.108 56.1955 19.387 57.6315 18.033C59.2375 16.518 60.9445 15.159 62.7665 13.923C67.2665 10.872 72.2315 8.59299 77.4495 7.07799C83.6905 5.26699 90.1565 4.57699 96.6435 4.84899C102.388 5.08999 108.131 6.00599 113.509 8.09699C118.539 10.052 122.949 13.238 126.389 17.388C127.217 18.387 128.927 18.244 129.783 17.388C130.771 16.4 130.613 14.995 129.783 13.994C122.197 4.84199 110.634 1.06499 99.1115 0.193985C86.1535 -0.785015 72.7515 1.91099 61.6895 8.89799C57.0195 11.847 52.8145 15.51 49.5505 19.98C48.7855 21.027 49.3735 22.656 50.4115 23.264C51.6265 23.975 52.9285 23.453 53.6955 22.403Z" fill="#211715"/>
<path d="M45.0576 76.715C39.9696 62.758 40.0176 46.596 47.5176 33.483C49.4766 30.058 51.8946 26.979 54.7606 24.267C57.0086 22.14 53.6106 18.75 51.3666 20.873C39.8356 31.783 35.2556 48.39 37.0976 63.898C37.6706 68.718 38.7656 73.429 40.4286 77.991C40.8726 79.208 42.0586 80.031 43.3806 79.667C44.5546 79.344 45.5036 77.938 45.0576 76.715Z" fill="#211715"/>
<path d="M133.15 23.859C144.264 32.174 147.667 47.738 147.425 60.875C147.351 64.86 146.932 68.82 146.132 72.725C145.872 73.994 146.5 75.318 147.808 75.677C148.995 76.003 150.499 75.276 150.76 74.001C153.8 59.177 152.629 41.886 144.184 28.924C141.855 25.349 138.987 22.269 135.573 19.714C134.534 18.937 132.891 19.546 132.289 20.575C131.572 21.801 132.109 23.08 133.15 23.859Z" fill="#211715"/>
<path d="M51.8505 77.167C48.6945 74.536 44.3405 74.035 40.6575 75.922C38.0305 77.268 36.5155 79.956 35.9225 82.76C34.5085 89.44 36.4245 96.921 40.4335 102.4C43.3345 106.365 47.4285 109.275 52.5415 108.385C53.8195 108.163 54.5375 106.596 54.2175 105.433C53.8465 104.083 52.5465 103.534 51.2655 103.757C47.7625 104.366 44.9315 100.81 43.3865 98.155C41.8875 95.579 40.7615 92.747 40.4135 89.737C40.0925 86.956 40.0775 83.62 41.6475 81.223C41.7415 81.09 41.7195 81.113 41.5805 81.294C41.6755 81.177 41.7735 81.064 41.8765 80.955C41.9575 80.876 42.4935 80.396 42.3435 80.507C42.8625 80.123 43.4245 79.894 44.0445 79.738C45.5335 79.364 47.2435 79.55 48.4555 80.56C49.4505 81.389 50.8745 81.535 51.8495 80.56C52.7025 79.707 52.8495 78 51.8495 77.166L51.8505 77.167Z" fill="#211715"/>
<path d="M142.621 77.074C144.692 75.059 148.127 75.371 149.774 77.3C149.427 76.894 149.89 77.477 149.949 77.572C150.164 77.913 150.366 78.277 150.52 78.651C150.78 79.28 150.949 79.968 151.095 80.631C151.458 82.276 151.525 83.976 151.447 85.656C151.312 88.547 150.437 91.497 149.159 94.089C147.627 97.195 145.126 100.608 141.266 100.239C139.974 100.115 138.866 101.431 138.866 102.639C138.866 104.04 139.97 104.915 141.266 105.039C149.254 105.803 153.767 97.049 155.529 90.559C156.477 87.069 156.503 83.237 155.796 79.702C155.216 76.803 153.882 73.962 151.321 72.327C147.577 69.937 142.359 70.631 139.226 73.679C137.008 75.837 140.404 79.23 142.62 77.073L142.621 77.074Z" fill="#211715"/>
<path d="M139.099 98.561C138.774 100.521 138.267 102.45 137.678 104.347C137.439 105.119 137.186 105.887 136.904 106.644C136.844 106.806 136.782 106.967 136.72 107.128C136.541 107.595 136.996 106.413 136.633 107.35C136.537 107.597 136.448 107.844 136.354 108.091C136.297 108.242 136.237 108.393 136.181 108.544C136.146 108.638 136.105 108.731 136.068 108.824C135.95 109.121 136.256 108.393 136.121 108.699C135.908 109.182 135.691 109.663 135.463 110.139C134.949 111.209 134.397 112.261 133.818 113.297C130.747 118.802 126.971 124.049 122.229 128.239C119.64 130.527 116.685 132.424 113.409 133.315C110.432 134.125 111.695 138.757 114.685 137.944C121.596 136.064 127.177 130.807 131.515 125.325C135.168 120.708 138.428 115.636 140.666 110.172C140.759 109.946 140.851 109.72 140.936 109.491C140.973 109.393 141.16 108.82 141.042 109.158C140.873 109.641 141.178 108.829 141.263 108.62C141.34 108.43 141.414 108.24 141.486 108.048C141.664 107.575 141.829 107.097 141.988 106.617C142.722 104.404 143.346 102.138 143.728 99.836C143.94 98.559 143.393 97.252 142.052 96.884C140.903 96.568 139.313 97.274 139.1 98.56L139.099 98.561Z" fill="#211715"/>
<path d="M49.0435 103.135C50.8125 109.751 53.7415 116.12 57.7495 121.68C62.1365 127.766 67.7895 133.439 74.5645 136.82C78.1665 138.617 81.9555 139.675 85.9505 140.111C87.2415 140.252 88.3505 138.907 88.3505 137.711C88.3505 136.296 87.2445 135.452 85.9505 135.311C72.7165 133.868 62.3885 122.306 56.9685 110.919C55.5845 108.011 54.5035 104.969 53.6725 101.859C52.8755 98.878 48.2435 100.143 49.0435 103.135Z" fill="#211715"/>
<path d="M92.8966 115.361C93.2226 115.173 93.5496 114.987 93.8866 114.818C93.9976 114.763 94.3736 114.509 94.4886 114.537C94.1616 114.673 94.0846 114.706 94.2566 114.637C94.3286 114.608 94.4016 114.58 94.4736 114.552C94.6016 114.504 94.7316 114.457 94.8606 114.413C95.5036 114.194 96.1626 114.024 96.8296 113.896C97.0536 113.853 97.2776 113.816 97.5036 113.78C97.1526 113.836 97.5806 113.771 97.7196 113.756C98.2166 113.703 98.7146 113.668 99.2136 113.649C100.116 113.614 101.021 113.632 101.92 113.724C102.125 113.745 102.406 113.796 102.045 113.735C102.245 113.769 102.446 113.801 102.645 113.841C102.946 113.901 103.245 113.971 103.541 114.054C103.825 114.134 104.103 114.23 104.381 114.327C104.796 114.472 104.4 114.26 104.268 114.271C104.334 114.265 104.558 114.404 104.618 114.434C104.952 114.6 105.272 114.79 105.574 115.007C106.597 115.743 108.291 115.218 108.858 114.146C109.514 112.905 109.088 111.647 107.997 110.862C105.546 109.099 102.135 108.738 99.2146 108.848C96.1156 108.965 93.1646 109.659 90.4746 111.214C89.3876 111.843 88.9136 113.412 89.6136 114.498C90.3206 115.595 91.7336 116.032 92.8976 115.359L92.8966 115.361Z" fill="#211715"/>
<path d="M97.3546 92.469C97.5806 93.213 97.7895 93.963 97.9895 94.714C98.1975 95.5 98.4276 96.302 98.5386 97.109L98.4526 96.471C98.4706 96.633 98.4765 96.792 98.4625 96.954L98.5486 96.316C98.5336 96.417 98.5125 96.509 98.4765 96.605L98.7186 96.032C98.6866 96.1 98.6536 96.155 98.6096 96.215L98.9846 95.729C98.9536 95.767 98.9195 95.8 98.8805 95.83L99.3665 95.455C99.2275 95.553 99.0776 95.63 98.9236 95.702L99.4966 95.46C99.3076 95.539 99.1196 95.596 98.9176 95.628L99.5556 95.542C99.3496 95.566 99.1476 95.561 98.9426 95.537L99.5806 95.623C99.1966 95.571 98.8166 95.502 98.4306 95.465C97.8526 95.41 97.1286 95.773 96.7336 96.168C96.3176 96.584 96.0035 97.267 96.0305 97.865C96.0585 98.486 96.2626 99.129 96.7336 99.562C97.2276 100.015 97.7646 100.201 98.4306 100.265C98.4666 100.268 98.5026 100.272 98.5386 100.277L97.9006 100.191C98.3766 100.256 98.8555 100.373 99.3375 100.36C100.132 100.338 100.833 100.127 101.533 99.756C102.335 99.331 102.972 98.564 103.167 97.667C103.338 96.884 103.25 96.168 103.087 95.392C102.789 93.976 102.405 92.576 101.985 91.192C101.807 90.605 101.417 90.071 100.882 89.758C100.368 89.457 99.6085 89.329 99.0325 89.516C97.8215 89.908 96.9656 91.182 97.3566 92.468L97.3546 92.469Z" fill="#211715"/>
<path d="M73.1815 80.699C72.5235 83.17 73.2295 88.77 77.8745 89.07C83.9885 88.798 84.0525 81.993 81.8715 78.879C80.0855 76.329 75.0875 75.432 73.1815 80.699Z" fill="#211715"/>
<path d="M122.154 78.818C123 81.231 122.726 86.868 118.117 87.524C112 87.722 111.414 80.942 113.349 77.669C114.934 74.989 119.849 73.712 122.154 78.818Z" fill="#211715"/>
<path d="M72.1375 66.153C71.7245 66.61 71.2405 67.002 70.7555 67.379L71.2415 67.004C70.1365 67.857 68.9415 68.71 67.6515 69.262L68.2245 69.02C68.1005 69.072 67.9755 69.119 67.8465 69.155C67.2635 69.32 66.7185 69.734 66.4125 70.258C66.1115 70.772 65.9835 71.531 66.1705 72.107C66.5685 73.338 67.8285 74.149 69.1225 73.783C70.3045 73.449 71.4195 72.728 72.4255 72.044C73.0995 71.586 73.7515 71.094 74.3875 70.585C74.7885 70.264 75.1865 69.929 75.5315 69.546C75.9575 69.074 76.2345 68.497 76.2345 67.849C76.2345 67.26 75.9735 66.557 75.5315 66.152C75.0745 65.732 74.4735 65.42 73.8345 65.449C73.2175 65.477 72.5645 65.68 72.1375 66.153Z" fill="#211715"/>
<path d="M74.0076 135.017C74.1106 136.989 74.1196 138.974 74.0656 140.948C74.0526 141.417 74.0356 141.887 74.0026 142.355C73.9916 142.509 73.9886 142.677 73.9616 142.829C74.0786 142.178 73.8356 143.08 73.7936 143.203C73.5056 144.055 72.8636 145.089 72.1796 145.787C72.0046 145.966 71.8216 146.152 71.6206 146.302C71.9236 146.076 71.1826 146.542 71.1076 146.584C70.6566 146.837 70.1906 147.065 69.7186 147.276C69.3986 147.419 68.7976 147.65 68.2596 147.842C67.6376 148.064 67.0106 148.269 66.3806 148.466C64.0706 149.186 61.7136 149.761 59.4296 150.564C58.2076 150.994 57.3926 152.204 57.7536 153.516C58.0796 154.701 59.4776 155.624 60.7056 155.192C63.2576 154.294 65.8996 153.678 68.4696 152.834C71.0196 151.997 73.8926 151.018 75.7556 148.988C77.6656 146.907 78.7256 144.4 78.8446 141.593C78.9366 139.407 78.9236 137.201 78.8086 135.016C78.7406 133.721 77.7536 132.616 76.4086 132.616C75.1616 132.616 73.9406 133.715 74.0086 135.016L74.0076 135.017Z" fill="#211715"/>
<path d="M137.741 147.707C137.182 147.637 138.046 147.756 137.511 147.678C137.279 147.644 137.047 147.611 136.815 147.575C136.276 147.492 135.739 147.402 135.202 147.305C134.132 147.112 133.067 146.893 132.009 146.645C130.896 146.384 129.789 146.091 128.698 145.748C128.204 145.592 127.712 145.427 127.226 145.246C126.995 145.16 126.765 145.073 126.538 144.979C126.901 145.129 126.316 144.876 126.255 144.848C124.655 144.098 123.2 143.109 122.706 141.62C121.896 139.179 121.766 136.481 121.612 133.935C121.534 132.641 120.565 131.535 119.212 131.535C117.973 131.535 116.733 132.635 116.812 133.935C116.995 136.956 117.15 140.292 118.17 143.168C119.055 145.663 121.102 147.619 123.434 148.8C127.81 151.016 132.917 151.9 137.741 152.507C139.029 152.669 140.141 151.288 140.141 150.107C140.141 148.675 139.033 147.869 137.741 147.707Z" fill="#211715"/>
<path d="M110.661 50.839C115.153 52.604 118.91 55.52 122.347 58.865C126.007 62.427 129.322 66.476 131.434 71.16C131.967 72.342 133.683 72.626 134.718 72.021C135.934 71.31 136.114 69.924 135.579 68.737C133.264 63.602 129.495 59.072 125.457 55.196C121.452 51.351 117.113 48.244 111.937 46.21C110.73 45.736 109.302 46.73 108.985 47.886C108.611 49.247 109.45 50.363 110.661 50.839Z" fill="#211715"/>
<path d="M58.8706 74.191C64.0376 67.988 69.7966 61.831 76.3296 57.047C77.0206 56.541 77.7256 56.053 78.4486 55.594C78.6006 55.498 79.4146 55.143 79.4586 54.983C79.4166 55.138 77.9886 55.13 78.1086 54.886C78.1146 54.874 78.1716 55.202 78.1756 55.165C78.1386 55.499 78.3596 56.01 78.3786 56.382C78.4016 56.853 78.3366 57.322 78.3646 57.792C78.4446 59.143 79.1486 60.411 80.2976 61.144C82.3346 62.443 84.2416 61.308 86.0106 60.198C87.6636 59.162 89.3036 58.106 90.9516 57.061C95.0096 54.489 99.0986 51.891 103.45 49.836C104.622 49.283 104.924 47.601 104.311 46.552C103.609 45.352 102.204 45.135 101.027 45.691C97.1436 47.525 93.4756 49.802 89.8446 52.085C88.1216 53.168 86.4096 54.268 84.6906 55.357C83.9426 55.831 83.1926 56.304 82.4376 56.768C82.3736 56.807 81.9616 57.033 81.9626 57.058C81.9566 56.804 82.9686 57.185 82.9806 57.189C83.0696 57.212 83.0546 57.508 83.1586 57.453C83.2506 57.404 83.1836 56.659 83.1816 56.566C83.1336 54.283 82.4646 51.387 80.0166 50.573C77.9996 49.902 76.2896 51.226 74.7146 52.325C71.2046 54.774 67.9876 57.646 64.9216 60.624C61.6026 63.848 58.4376 67.242 55.4756 70.798C54.6466 71.793 54.5006 73.217 55.4756 74.192C56.3286 75.045 58.0366 75.193 58.8696 74.192L58.8706 74.191Z" fill="#211715"/>
<path d="M134.588 298.455C131.809 298.327 128.987 298.175 126.078 298.021C115.838 297.481 105.098 296.711 95.3676 295.372C76.8566 300.075 56.9496 303.572 41.1936 304.801C35.0816 305.278 20.4406 303.961 13.7906 297.107C7.86058 290.995 4.85058 283.422 3.91558 277.179C1.96858 264.183 2.30658 253.287 2.75258 244.62C3.86358 223.024 5.01158 209.442 11.0816 187.607C14.6226 178.871 18.6856 172.779 25.4146 168.136C34.3186 161.992 43.6946 157.485 61.8906 151.651C68.3416 159.111 84.2526 163.346 99.2466 162.816C113.983 162.205 128.199 157.557 135.406 149.164C146.459 151.57 157.831 154.329 167.647 160.042C171.727 162.422 175.127 164.732 178.317 168.282C181.347 171.632 183.907 175.412 186.027 179.402C192.467 191.572 194.207 205.232 195.747 218.762C197.257 232.072 197.557 245.532 196.917 258.912C196.417 269.352 195.137 275.972 190.637 284.022C186.967 290.592 176.187 296.782 166.747 297.812C155.037 299.094 145.118 298.942 134.587 298.456L134.588 298.455Z" fill="white"/>
<path d="M119.24 270.768C116.997 262.062 114.358 252.281 112.589 246.443C119.569 243.233 123.021 242.3 129.75 240.357C135.27 238.763 141.167 237.096 148.774 237.096C153.833 237.096 159.246 239.286 163 240.607L164.136 241.007C163.173 251.268 162.095 261.268 161.121 268.406L160.009 269.406C160.009 269.406 155.792 273.199 152.668 273.806C148.057 274.702 125.358 276.298 121.166 274.169C121.166 274.169 120.714 273.94 119.954 273.554C119.722 272.642 119.483 271.711 119.24 270.768Z" fill="white"/>
<path d="M29.9266 231.733C29.7886 231.489 29.6636 231.24 29.5526 230.987C28.8666 229.426 29.3366 227.846 30.1486 226.924C30.9476 226.017 32.6206 225.159 34.5286 225.481C34.5286 225.481 35.0866 225.539 35.7556 225.613C35.2496 225.02 34.8266 224.415 34.5186 223.761C33.6146 221.841 34.0646 219.849 35.2296 218.558C36.2306 217.45 38.1706 216.996 39.7966 217.172C41.5186 217.358 43.4346 218.247 44.9496 219.587C52.4366 226.215 66.2166 239.653 73.1786 246.674C73.1786 246.674 74.5226 247.964 75.9496 249.295C60.9106 251.908 45.5706 254.584 38.4086 255.908L37.6946 255.017C35.4726 252.244 33.6076 249.707 31.2136 246.633C30.4606 245.665 29.6646 244.692 29.2836 243.526C28.9026 242.36 29.1076 240.538 29.9276 239.626C31.4606 237.919 33.4696 238.227 36.1896 238.713C35.0836 237.576 33.9776 236.439 32.8586 235.32C31.6786 234.14 30.6386 232.992 29.9286 231.733H29.9266Z" fill="white"/>
<path d="M158.312 267.71C156.676 269.173 154.538 270.923 152.165 271.463C151.818 271.542 151.466 271.59 151.115 271.646C151.017 271.662 150.919 271.674 150.821 271.688C150.5 271.736 151.319 271.625 150.981 271.667C150.716 271.7 150.451 271.734 150.186 271.765C149.026 271.901 147.863 272.014 146.699 272.115C140.629 272.645 134.495 272.976 128.402 272.785C127.021 272.742 125.64 272.663 124.267 272.503C123.803 272.449 124.25 272.5 124.332 272.513C124.154 272.486 123.976 272.459 123.799 272.428C123.558 272.385 123.317 272.339 123.079 272.283C122.87 272.234 122.667 272.169 122.459 272.116C122.379 272.095 122.299 272.049 122.218 272.034C121.817 271.961 122.741 272.275 122.378 272.099C121.213 271.533 119.784 271.781 119.094 272.96C118.478 274.013 118.784 275.675 119.955 276.244C122.046 277.26 124.501 277.388 126.786 277.517C129.957 277.695 133.142 277.647 136.315 277.54C141.862 277.353 147.623 277.197 153.093 276.162C156.313 275.553 159.313 273.246 161.706 271.105C164.013 269.041 160.609 265.656 158.312 267.711V267.71Z" fill="#211715"/>
<path d="M115.467 247.762C118.988 246.21 122.6 244.95 126.288 243.86C130.142 242.72 134.007 241.542 137.937 240.688C142.051 239.794 146.472 239.168 150.684 239.593C154.715 240 158.574 241.58 162.362 242.921C163.584 243.354 164.988 242.431 165.314 241.245C165.679 239.918 164.864 238.727 163.638 238.293C159.465 236.816 155.332 235.281 150.897 234.815C146.335 234.335 141.515 235.035 137.052 235.977C132.986 236.835 128.994 238.055 125.012 239.233C120.92 240.443 116.949 241.898 113.044 243.619C111.858 244.142 111.582 245.875 112.183 246.903C112.898 248.126 114.276 248.289 115.467 247.764V247.762Z" fill="#211715"/>
<path d="M74.8745 244.977C67.4265 237.471 59.8415 230.088 52.1085 222.876C48.4055 219.423 44.2695 214.467 38.7205 214.745C35.4155 214.911 32.4145 216.876 31.7845 220.284C31.1365 223.79 33.1675 226.56 35.5565 228.866C40.6085 233.742 45.5885 238.692 50.6315 243.578C52.8515 245.729 56.2495 242.338 54.0255 240.184C50.0415 236.324 46.0935 232.428 42.1375 228.54C41.1355 227.555 40.1165 226.591 39.1025 225.619C38.2155 224.768 37.1705 223.859 36.6595 222.71C35.6655 220.474 37.8425 219.252 39.7955 219.571C41.9175 219.918 43.4705 221.466 44.9935 222.845C46.6245 224.322 48.2365 225.819 49.8415 227.324C53.5295 230.784 57.1745 234.288 60.7985 237.815C64.3855 241.306 67.9545 244.817 71.4805 248.37C73.6595 250.566 77.0535 247.172 74.8745 244.976V244.977Z" fill="#211715"/>
<path d="M34.5276 223.08C31.7476 222.72 28.6566 224.129 27.4476 226.73C25.9726 229.901 27.5166 232.883 29.5856 235.333C31.5436 237.651 33.8336 239.741 35.9536 241.912C38.1126 244.122 40.2976 246.307 42.5966 248.371C44.8956 250.435 48.2956 247.046 45.9906 244.977C42.2886 241.654 38.8986 238.014 35.4046 234.479C34.5826 233.647 33.7336 232.835 32.9796 231.938C32.4576 231.318 31.7456 230.458 31.6296 229.628C31.4066 228.036 33.2486 227.714 34.5286 227.879C35.8166 228.046 36.9286 226.657 36.9286 225.479C36.9286 224.044 35.8206 223.246 34.5286 223.079L34.5276 223.08Z" fill="#211715"/>
<path d="M34.6145 236.054C32.2885 235.75 29.8855 236.111 28.2295 237.929C26.6705 239.641 26.2795 242.427 27.1175 244.56C28.0335 246.89 29.8855 248.798 31.3905 250.769C32.9125 252.762 34.4305 254.757 35.9965 256.715C36.8065 257.728 38.5455 257.56 39.3905 256.715C40.3915 255.714 40.2025 254.337 39.3905 253.321C38.2015 251.834 37.2135 250.545 36.0655 249.042C34.8295 247.422 33.4295 245.731 32.3415 244.177C32.1115 243.849 31.8125 243.401 31.6855 243.125C31.6885 243.131 31.5715 242.784 31.5415 242.7C31.3915 242.286 31.5265 242.888 31.5125 242.609C31.5025 242.422 31.5055 242.238 31.5015 242.05C31.4935 241.609 31.4545 242.148 31.5085 241.896C31.5475 241.711 31.5975 241.535 31.6475 241.352C31.5645 241.658 31.6065 241.421 31.7085 241.243C31.8875 240.933 31.2925 241.682 31.7925 241.146C32.0755 240.843 31.7505 241.153 31.9275 241.019C32.0735 240.908 32.3495 240.785 32.0235 240.92C32.1885 240.852 32.3645 240.821 32.5345 240.768C32.7795 240.692 32.2035 240.756 32.6565 240.745C32.8495 240.74 33.0415 240.73 33.2355 240.734C33.6985 240.743 34.1575 240.794 34.6155 240.854C35.9025 241.023 37.0155 239.63 37.0155 238.454C37.0155 237.017 35.9055 236.223 34.6145 236.054Z" fill="#211715"/>
<path d="M164.35 206.926C163.389 226.053 161.623 245.217 159.265 264.221C158.826 267.757 158.416 271.091 157.694 274.843C157.45 276.115 158.051 277.433 159.37 277.795C160.545 278.118 162.076 277.398 162.322 276.119C163.816 268.347 164.563 260.399 165.391 252.536C166.476 242.23 167.408 231.906 168.193 221.573C168.564 216.694 168.903 211.812 169.149 206.926C169.304 203.839 164.504 203.847 164.349 206.926H164.35Z" fill="#211715"/>
<path d="M67.1366 147.498C53.5916 151.642 39.8116 156.139 27.7436 163.729C25.0206 165.441 22.3326 167.252 19.9586 169.432C17.2226 171.946 14.9156 174.937 13.0216 178.128C10.8456 181.794 9.09156 185.697 7.99256 189.812C6.80156 194.271 5.72356 198.761 4.80756 203.285C3.15356 211.457 2.08256 219.732 1.39856 228.039C0.714556 236.346 0.198555 244.64 0.0415555 252.943C-0.124445 261.73 0.151556 270.821 1.89056 279.459C2.66756 283.319 4.09556 287.083 5.98956 290.531C7.93256 294.069 10.4766 297.667 13.6526 300.202C19.1456 304.585 26.4096 306.256 33.2596 306.986C39.6286 307.664 45.9646 306.85 52.2876 306.052C69.2276 303.914 86.0406 300.491 102.504 295.969C106.502 294.871 110.48 293.699 114.428 292.435C116.244 291.853 118.054 291.252 119.856 290.627C121.933 289.907 124.314 289.356 125.113 287.029C125.622 285.546 125.14 284.067 124.793 282.606C124.483 281.302 124.166 280.001 123.846 278.7C123.063 275.524 122.257 272.353 121.438 269.186C119.747 262.648 118.015 256.117 116.153 249.625C115.788 248.353 115.418 247.084 115.034 245.818C114.555 244.238 114.141 242.598 112.66 241.642C110.566 240.29 107.515 241.377 105.219 241.78C93.8746 243.769 82.5246 245.726 71.1776 247.7C60.5096 249.555 49.8366 251.39 39.1846 253.337C37.8576 253.58 36.5296 253.824 35.2056 254.083C33.9326 254.332 33.2046 255.853 33.5296 257.035C33.8946 258.364 35.2056 258.961 36.4816 258.711C44.9556 257.054 53.4806 255.638 61.9856 254.153C73.7436 252.099 85.5046 250.065 97.2646 248.02C99.6786 247.6 102.093 247.18 104.506 246.758C106.308 246.443 108.371 246.346 110.108 245.774C110.44 245.665 110.28 245.805 110.26 245.749C110.367 246.052 109.849 245.495 109.931 245.493C109.808 245.497 109.914 245.277 109.931 245.559C109.963 246.077 110.288 246.708 110.439 247.206C110.811 248.436 111.171 249.669 111.525 250.904C112.375 253.868 113.193 256.84 113.997 259.817C115.72 266.195 117.384 272.589 118.976 279.001C119.303 280.316 119.626 281.633 119.942 282.951C120.07 283.483 120.197 284.016 120.322 284.549C120.379 284.792 120.436 285.036 120.493 285.28C120.552 285.536 120.693 286 120.584 285.459C120.528 285.18 120.942 285.237 120.33 285.387C119.92 285.488 119.509 285.678 119.109 285.818C118.162 286.149 117.213 286.473 116.261 286.792C114.485 287.387 112.702 287.96 110.913 288.516C95.1916 293.399 79.0536 297.068 62.8096 299.72C55.5606 300.903 48.2386 301.948 40.9046 302.425C35.2356 302.794 29.3626 301.985 23.9736 300.228C21.2196 299.33 18.4046 298.077 16.2396 296.133C13.3526 293.539 11.1066 290.155 9.39556 286.695C5.81256 279.446 5.31356 271.025 4.95856 263.077C4.60756 255.221 4.98556 247.375 5.42756 239.532C5.88056 231.498 6.43356 223.453 7.56156 215.482C8.74956 207.091 10.5476 198.806 12.7476 190.624C14.6016 183.729 18.5986 176.957 24.0056 172.246C28.0656 168.708 33.0486 165.964 37.8396 163.553C43.6836 160.612 49.8036 158.272 55.9826 156.142C60.0996 154.723 64.2496 153.404 68.4136 152.13C71.3586 151.229 70.1026 146.594 67.1376 147.501L67.1366 147.498Z" fill="#211715"/>
<path d="M131.89 150.855C140.455 152.699 149.07 154.563 157.264 157.729C164.946 160.697 172.417 164.933 177.771 171.295C189.315 185.013 191.763 203.503 193.561 220.709C194.564 230.302 194.945 239.956 194.809 249.599C194.694 257.747 194.685 266.232 192.325 274.106C191.341 277.39 189.962 280.696 188.099 283.585C186.285 286.397 183.473 288.577 180.658 290.316C177.326 292.375 173.699 293.922 169.887 294.832C165.716 295.828 161.292 295.972 157.023 296.187C148.232 296.629 139.438 296.313 130.655 295.861C121.329 295.381 112.003 294.851 102.715 293.861C100.476 293.622 98.2376 293.361 96.0066 293.056C94.7236 292.881 93.4296 293.366 93.0546 294.732C92.7466 295.852 93.4386 297.508 94.7306 297.684C104.503 299.019 114.338 299.772 124.183 300.317C133.313 300.822 142.459 301.348 151.606 301.173C160.663 301 169.944 300.694 178.333 296.963C181.976 295.343 185.426 293.183 188.382 290.498C191.177 287.959 193.069 284.878 194.627 281.468C198.04 274 199.002 266.061 199.363 257.93C199.809 247.887 199.722 237.816 198.988 227.788C198.291 218.255 197.224 208.616 195.315 199.244C193.481 190.243 190.468 181.402 185.439 173.661C183.004 169.913 180.157 166.297 176.738 163.396C173.415 160.577 169.643 158.252 165.763 156.284C157.596 152.14 148.712 149.702 139.819 147.683C137.605 147.18 135.386 146.702 133.166 146.224C130.154 145.576 128.867 150.202 131.89 150.853V150.855Z" fill="#211715"/>
<path d="M61.0655 154.278C64.4045 157.541 68.6345 159.692 72.9715 161.307C78.1785 163.247 83.6875 164.315 89.2035 164.877C100.363 166.014 112.257 164.744 122.688 160.492C127.821 158.4 132.719 155.587 136.538 151.509C138.648 149.256 135.261 145.854 133.144 148.115C126.632 155.068 116.777 158.151 107.621 159.608C97.4195 161.232 86.6535 160.648 76.7795 157.546C72.3405 156.152 67.8265 154.175 64.4585 150.884C62.2475 148.724 58.8505 152.115 61.0645 154.278H61.0655Z" fill="#211715"/>
</svg>
