<svg width="329" height="494" viewBox="0 0 329 494" fill="none" xmlns="http://www.w3.org/2000/svg">
<path d="M232.244 121.074C234.569 118.722 237.789 117.751 240.578 117.741C246.646 117.722 249.348 120.82 250.532 122.654C254.063 128.129 254.33 138.449 252.359 144.915C250.963 149.495 248.656 156.506 242.634 161.696C240.152 163.835 236.436 165.323 232.807 164.863C232.807 164.863 232.459 164.82 231.848 164.743C230.849 168.469 229.579 172.132 228.786 173.916C226.533 180.664 213.603 204.439 196.416 214.326C196.689 219.249 197.096 223.197 198.164 227.59C198.848 230.883 201.277 233.146 203.679 234.707C207.733 237.338 215.874 239.332 222.418 240.44C222.288 240.565 222.222 240.636 222.222 240.636C210.066 253.457 187.222 260.566 163.564 261.524C139.41 262.356 113.813 255.875 102.741 244.39C108.389 242.756 115.222 241.14 119.889 238.378C122.501 236.833 125.154 232.918 125.818 229.638C126.153 226.994 126.085 219.814 125.917 216.93C118.266 213.417 111.237 207.907 104.444 200.573C95.0747 190.46 89.5325 179.397 86.3485 170.177C82.5449 171.287 78.3359 170.051 75.4931 167.957C69.0807 163.231 66.228 156.413 64.4761 151.952C62.0008 145.653 61.4553 135.342 64.5453 129.621C65.5803 127.703 68.0325 124.413 74.084 123.978C76.8642 123.779 80.152 124.506 82.6553 126.678C82.6553 126.678 70.0991 57.7767 158.004 57.7767C245.909 57.7767 232.247 121.077 232.247 121.077L232.244 121.074Z" fill="white"/>
<path d="M241.115 61.9738C236.975 51.0771 230.521 41.5489 221.427 34.9954L211.085 25.2053C199.234 11.1331 180.588 3.9628 154.35 3.82306C120.23 3.97565 95.6629 19.7811 85.0744 34.0381L87.4492 36.2531C65.1088 56.67 58.0751 91.9592 70.5867 124.632C71.592 124.306 72.7489 124.071 74.0805 123.976C76.8607 123.777 80.1485 124.505 82.6518 126.676L94.2209 116.445C102.807 106.366 118.063 91.0853 128.951 84.9897C130.228 84.2749 131.937 85.1133 132.549 87.2159C133.14 89.2478 133.198 90.8043 133.091 92.2836C132.928 94.5307 135.22 96.0743 137.071 94.9789C144.835 90.3866 158.627 81.2134 168.487 76.7223L183.418 77.9447C188.281 79.7935 191.999 81.6053 197.437 85.8233C206.757 93.0514 215.816 103.106 220.017 112.357L232.242 121.074C234.567 118.721 237.787 117.751 240.576 117.741C242.103 117.736 243.419 117.929 244.551 118.25C248.443 100.379 247.743 79.4224 241.113 61.9754L241.115 61.9738Z" fill="#645D5C"/>
<path d="M88.4906 35.9849C90.0496 33.9048 92.6106 31.1405 94.9772 28.9656C97.6239 26.5322 100.437 24.3493 103.44 22.364C110.856 17.4633 119.038 13.8027 127.637 11.3693C137.923 8.46035 148.579 7.35204 159.269 7.78894C168.736 8.17604 178.2 9.64736 187.063 13.006C195.353 16.1462 202.62 21.2637 208.289 27.9296C209.654 29.5342 212.472 29.3045 213.883 27.9296C215.511 26.3426 215.251 24.0859 213.883 22.478C201.381 7.77769 182.325 1.71092 163.337 0.311881C141.982 -1.26063 119.895 3.0698 101.665 14.2926C93.9686 19.0294 87.0387 24.9131 81.6596 32.093C80.3989 33.7747 81.3679 36.3913 83.0785 37.3679C85.0809 38.5099 87.2266 37.6715 88.4906 35.9849Z" fill="#211715"/>
<path d="M74.2552 123.223C65.8701 100.805 65.9492 74.8448 78.3093 53.7821C81.5378 48.2807 85.5227 43.3351 90.2459 38.979C93.9506 35.5625 88.3506 30.1174 84.6525 33.5274C65.6493 51.0515 58.1014 77.7264 61.137 102.636C62.0814 110.378 63.8859 117.945 66.6266 125.273C67.3583 127.228 69.3128 128.549 71.4915 127.965C73.4263 127.446 74.9902 125.188 74.2552 123.223Z" fill="#211715"/>
<path d="M219.432 38.3235C237.748 51.6794 243.356 76.679 242.958 97.7802C242.836 104.181 242.145 110.542 240.827 116.814C240.398 118.852 241.433 120.979 243.589 121.556C245.545 122.079 248.023 120.912 248.454 118.864C253.464 95.0528 251.534 67.2793 237.616 46.4592C233.778 40.7168 229.052 35.7696 223.425 31.6657C221.713 30.4176 219.005 31.3958 218.013 33.0486C216.832 35.0179 217.717 37.0723 219.432 38.3235Z" fill="#211715"/>
<path d="M85.4499 123.949C80.2488 119.723 73.0733 118.918 67.0037 121.949C62.6744 124.111 60.1777 128.429 59.2004 132.933C56.8701 143.663 60.0277 155.679 66.6346 164.479C71.4154 170.848 78.1624 175.522 86.5887 174.093C88.6948 173.736 89.8781 171.219 89.3507 169.351C88.7393 167.183 86.5969 166.301 84.4858 166.659C78.7128 167.637 74.0473 161.926 71.5011 157.661C69.0308 153.523 67.1751 148.974 66.6016 144.14C66.0726 139.673 66.0479 134.314 68.6352 130.464C68.7902 130.25 68.7539 130.287 68.5248 130.578C68.6814 130.39 68.8429 130.209 69.0126 130.034C69.1461 129.907 70.0295 129.136 69.7823 129.314C70.6376 128.697 71.5638 128.329 72.5855 128.079C75.0394 127.478 77.8575 127.777 79.8549 129.399C81.4947 130.731 83.8414 130.965 85.4482 129.399C86.854 128.029 87.0963 125.287 85.4482 123.948L85.4499 123.949Z" fill="#211715"/>
<path d="M235.04 123.8C238.453 120.563 244.114 121.064 246.828 124.163C246.256 123.511 247.019 124.447 247.117 124.6C247.471 125.147 247.804 125.732 248.058 126.333C248.486 127.343 248.765 128.448 249.005 129.513C249.603 132.155 249.714 134.886 249.585 137.584C249.363 142.228 247.921 146.967 245.815 151.13C243.29 156.119 239.168 161.601 232.807 161.008C230.678 160.809 228.852 162.923 228.852 164.863C228.852 167.114 230.671 168.519 232.807 168.718C245.971 169.945 253.409 155.884 256.313 145.46C257.875 139.854 257.918 133.699 256.753 128.021C255.797 123.364 253.598 118.801 249.378 116.175C243.208 112.336 234.608 113.451 229.445 118.347C225.79 121.813 231.386 127.263 235.038 123.798L235.04 123.8Z" fill="#211715"/>
<path d="M229.236 158.313C228.7 161.461 227.865 164.56 226.894 167.607C226.5 168.847 226.083 170.08 225.619 171.296C225.52 171.556 225.417 171.815 225.315 172.074C225.02 172.824 225.77 170.925 225.172 172.43C225.014 172.827 224.867 173.224 224.712 173.621C224.618 173.863 224.519 174.106 224.427 174.348C224.369 174.499 224.302 174.649 224.241 174.798C224.046 175.275 224.551 174.106 224.328 174.597C223.977 175.373 223.62 176.146 223.244 176.91C222.397 178.629 221.487 180.319 220.533 181.983C215.472 190.825 209.249 199.253 201.434 205.983C197.167 209.658 192.297 212.705 186.899 214.136C181.992 215.437 184.074 222.878 189.001 221.572C200.391 218.552 209.588 210.108 216.737 201.302C222.758 193.886 228.13 185.74 231.818 176.963C231.972 176.6 232.123 176.237 232.263 175.869C232.324 175.712 232.632 174.791 232.438 175.334C232.16 176.11 232.662 174.806 232.802 174.47C232.929 174.165 233.051 173.86 233.17 173.551C233.463 172.792 233.735 172.024 233.997 171.253C235.207 167.698 236.235 164.059 236.865 160.361C237.214 158.31 236.312 156.21 234.103 155.619C232.209 155.112 229.589 156.246 229.238 158.311L229.236 158.313Z" fill="#211715"/>
<path d="M80.8243 165.66C83.7396 176.287 88.5666 186.517 95.1718 195.448C102.402 205.223 111.718 214.335 122.883 219.766C128.819 222.653 135.064 224.352 141.647 225.052C143.775 225.279 145.603 223.118 145.603 221.197C145.603 218.925 143.78 217.569 141.647 217.342C119.838 215.025 102.817 196.453 93.8847 178.163C91.6039 173.492 89.8224 168.606 88.4529 163.61C87.1394 158.822 79.5059 160.854 80.8243 165.66Z" fill="#211715"/>
<path d="M153.094 185.298C153.632 184.996 154.171 184.697 154.726 184.426C154.909 184.337 155.529 183.929 155.718 183.974C155.179 184.193 155.052 184.246 155.336 184.135C155.454 184.088 155.575 184.043 155.693 183.998C155.904 183.921 156.119 183.846 156.331 183.775C157.391 183.423 158.477 183.15 159.576 182.945C159.945 182.876 160.314 182.816 160.687 182.758C160.108 182.848 160.814 182.744 161.043 182.72C161.862 182.635 162.683 182.578 163.505 182.548C164.991 182.492 166.483 182.521 167.964 182.668C168.302 182.702 168.765 182.784 168.17 182.686C168.5 182.741 168.831 182.792 169.159 182.856C169.655 182.953 170.148 183.065 170.636 183.198C171.104 183.327 171.562 183.481 172.02 183.637C172.704 183.87 172.052 183.529 171.834 183.547C171.943 183.537 172.312 183.761 172.411 183.809C172.961 184.075 173.489 184.381 173.986 184.729C175.672 185.911 178.464 185.068 179.398 183.346C180.479 181.353 179.777 179.332 177.979 178.071C173.94 175.24 168.319 174.66 163.507 174.836C158.399 175.024 153.536 176.139 149.103 178.637C147.312 179.647 146.53 182.167 147.684 183.912C148.849 185.674 151.178 186.376 153.096 185.295L153.094 185.298Z" fill="#211715"/>
<path d="M160.441 148.528C160.814 149.723 161.158 150.928 161.488 152.134C161.83 153.396 162.21 154.685 162.392 155.981L162.251 154.956C162.28 155.216 162.29 155.472 162.267 155.732L162.409 154.707C162.384 154.869 162.35 155.017 162.29 155.171L162.689 154.251C162.636 154.36 162.582 154.449 162.509 154.545L163.127 153.764C163.076 153.825 163.02 153.878 162.956 153.926L163.757 153.324C163.528 153.482 163.281 153.605 163.027 153.721L163.971 153.332C163.66 153.459 163.35 153.551 163.017 153.602L164.068 153.464C163.729 153.502 163.396 153.494 163.058 153.456L164.11 153.594C163.477 153.51 162.851 153.4 162.214 153.34C161.262 153.252 160.069 153.835 159.418 154.469C158.732 155.138 158.215 156.235 158.259 157.195C158.305 158.193 158.642 159.225 159.418 159.921C160.232 160.649 161.117 160.947 162.214 161.05C162.274 161.055 162.333 161.061 162.392 161.069L161.341 160.931C162.125 161.036 162.915 161.224 163.709 161.203C165.018 161.167 166.173 160.829 167.327 160.233C168.648 159.55 169.698 158.318 170.019 156.877C170.301 155.619 170.156 154.469 169.888 153.223C169.397 150.949 168.764 148.7 168.072 146.477C167.778 145.534 167.135 144.676 166.254 144.173C165.407 143.69 164.156 143.484 163.207 143.785C161.211 144.414 159.8 146.461 160.445 148.526L160.441 148.528Z" fill="#211715"/>
<path d="M120.604 129.622C119.52 133.591 120.683 142.586 128.338 143.068C138.414 142.631 138.52 131.701 134.925 126.699C131.982 122.603 123.745 121.162 120.604 129.622Z" fill="#211715"/>
<path d="M201.31 126.601C202.704 130.477 202.253 139.531 194.657 140.585C184.576 140.903 183.61 130.013 186.799 124.755C189.411 120.451 197.511 118.4 201.31 126.601Z" fill="#211715"/>
<path d="M118.883 106.258C118.203 106.992 117.405 107.622 116.606 108.227L117.407 107.625C115.586 108.995 113.616 110.365 111.491 111.252L112.435 110.863C112.23 110.947 112.024 111.022 111.812 111.08C110.851 111.345 109.953 112.01 109.449 112.852C108.953 113.677 108.742 114.896 109.05 115.822C109.706 117.799 111.782 119.101 113.915 118.514C115.863 117.977 117.7 116.819 119.358 115.72C120.469 114.985 121.543 114.194 122.592 113.377C123.252 112.861 123.908 112.323 124.477 111.708C125.179 110.95 125.635 110.023 125.635 108.982C125.635 108.036 125.205 106.907 124.477 106.256C123.724 105.582 122.733 105.081 121.68 105.127C120.663 105.172 119.587 105.498 118.883 106.258Z" fill="#211715"/>
<path d="M121.965 216.87C122.135 220.038 122.15 223.226 122.061 226.397C122.039 227.15 122.011 227.905 121.957 228.657C121.939 228.904 121.934 229.174 121.889 229.418C122.082 228.373 121.682 229.821 121.612 230.019C121.138 231.387 120.08 233.048 118.953 234.169C118.664 234.457 118.363 234.756 118.031 234.997C118.531 234.634 117.309 235.382 117.186 235.45C116.443 235.856 115.675 236.222 114.897 236.561C114.369 236.791 113.379 237.162 112.492 237.47C111.467 237.827 110.434 238.156 109.396 238.473C105.589 239.629 101.704 240.553 97.9404 241.842C95.9265 242.533 94.5834 244.477 95.1783 246.584C95.7156 248.488 98.0195 249.97 100.043 249.276C104.249 247.834 108.603 246.844 112.838 245.489C117.041 244.144 121.776 242.572 124.846 239.311C127.993 235.968 129.74 231.942 129.936 227.433C130.088 223.922 130.067 220.378 129.877 216.869C129.765 214.789 128.139 213.014 125.922 213.014C123.867 213.014 121.855 214.779 121.967 216.869L121.965 216.87Z" fill="#211715"/>
<path d="M226.998 237.253C226.077 237.141 227.501 237.332 226.619 237.207C226.237 237.152 225.854 237.099 225.472 237.041C224.584 236.908 223.699 236.764 222.814 236.608C221.05 236.298 219.295 235.946 217.552 235.548C215.717 235.128 213.893 234.658 212.095 234.107C211.281 233.856 210.47 233.591 209.669 233.301C209.289 233.162 208.91 233.023 208.535 232.872C209.134 233.113 208.17 232.706 208.069 232.661C205.432 231.457 203.034 229.868 202.22 227.476C200.885 223.555 200.671 219.222 200.417 215.132C200.289 213.054 198.692 211.277 196.462 211.277C194.42 211.277 192.377 213.044 192.507 215.132C192.808 219.985 193.064 225.343 194.745 229.963C196.203 233.97 199.577 237.112 203.42 239.009C210.632 242.569 219.048 243.988 226.998 244.963C229.121 245.224 230.953 243.005 230.953 241.108C230.953 238.808 229.127 237.514 226.998 237.253Z" fill="#211715"/>
<path d="M182.37 81.66C189.773 84.495 195.964 89.1788 201.628 94.5517C207.66 100.273 213.123 106.777 216.604 114.3C217.482 116.199 220.31 116.655 222.016 115.683C224.02 114.541 224.317 112.315 223.435 110.409C219.62 102.16 213.408 94.8842 206.754 88.6584C200.154 82.4824 193.003 77.4918 184.473 74.2247C182.484 73.4634 180.13 75.06 179.608 76.9168C178.991 79.1029 180.374 80.8954 182.37 81.66Z" fill="#211715"/>
<path d="M97.0193 119.169C105.535 109.205 115.025 99.3158 125.792 91.6316C126.931 90.8188 128.093 90.035 129.284 89.2977C129.535 89.1435 130.876 88.5733 130.949 88.3163C130.879 88.5652 128.526 88.5524 128.724 88.1605C128.734 88.1412 128.828 88.668 128.834 88.6086C128.773 89.1451 129.137 89.9659 129.169 90.5634C129.207 91.3199 129.099 92.0733 129.146 92.8282C129.277 94.9982 130.438 97.035 132.331 98.2123C135.688 100.299 138.831 98.4758 141.746 96.6928C144.47 95.0288 147.173 93.3326 149.889 91.654C156.577 87.5228 163.315 83.3498 170.486 80.0489C172.417 79.1607 172.915 76.459 171.905 74.7741C170.748 72.8466 168.433 72.498 166.493 73.3911C160.094 76.3369 154.049 79.9943 148.065 83.6614C145.225 85.4009 142.404 87.1678 139.571 88.917C138.338 89.6784 137.102 90.4381 135.858 91.1834C135.753 91.2461 135.074 91.6091 135.075 91.6492C135.065 91.2412 136.733 91.8532 136.753 91.8596C136.9 91.8966 136.875 92.372 137.046 92.2837C137.198 92.205 137.087 91.0083 137.084 90.859C137.005 87.1919 135.902 82.5402 131.868 81.2328C128.544 80.155 125.726 82.2816 123.13 84.0469C117.346 87.9806 112.044 92.5937 106.991 97.3771C101.522 102.556 96.3057 108.007 91.4243 113.719C90.0581 115.317 89.8175 117.604 91.4243 119.171C92.8301 120.541 95.6449 120.778 97.0177 119.171L97.0193 119.169Z" fill="#211715"/>
<path d="M221.802 479.391C217.222 479.186 212.572 478.942 207.777 478.694C190.902 477.827 173.202 476.59 157.167 474.439C126.661 481.993 93.8538 487.61 67.8878 489.585C57.8151 490.351 33.6866 488.235 22.7273 477.226C12.9546 467.409 7.99414 455.245 6.45325 445.217C3.24457 424.342 3.8016 406.841 4.53661 392.919C6.36755 358.231 8.25946 336.415 18.2629 301.343C24.0985 287.31 30.7944 277.525 41.8838 270.067C56.5577 260.199 72.0094 252.959 101.997 243.589C112.628 255.571 138.849 262.374 163.56 261.522C187.845 260.541 211.273 253.075 223.15 239.594C241.366 243.458 260.107 247.89 276.284 257.067C283.007 260.889 288.611 264.6 293.868 270.302C298.861 275.683 303.08 281.754 306.574 288.163C317.187 307.711 320.055 329.653 322.593 351.385C325.081 372.764 325.576 394.384 324.521 415.876C323.697 432.645 321.587 443.278 314.171 456.208C308.123 466.761 290.358 476.704 274.8 478.359C255.502 480.418 239.156 480.174 221.8 479.393L221.802 479.391Z" fill="white"/>
<path d="M196.508 434.919C192.812 420.935 188.462 405.225 185.547 395.847C197.05 390.691 202.739 389.193 213.829 386.072C222.926 383.511 232.644 380.834 245.18 380.834C253.518 380.834 262.438 384.351 268.625 386.473L270.499 387.116C268.912 403.597 267.134 419.66 265.528 431.125L263.696 432.731C263.696 432.731 256.746 438.824 251.598 439.799C243.999 441.238 206.591 443.802 199.682 440.382C199.682 440.382 198.937 440.014 197.685 439.394C197.302 437.929 196.909 436.434 196.508 434.919Z" fill="white"/>
<path d="M49.3193 372.219C49.0919 371.828 48.8859 371.428 48.7029 371.021C47.5724 368.514 48.347 365.976 49.6852 364.495C51.0019 363.038 53.759 361.66 56.9034 362.177C56.9034 362.177 57.823 362.27 58.9256 362.389C58.0917 361.437 57.3946 360.465 56.887 359.415C55.3972 356.331 56.1388 353.131 58.0587 351.057C59.7084 349.278 62.9055 348.548 65.5852 348.831C68.423 349.13 71.5806 350.558 74.0774 352.71C86.416 363.356 109.126 384.941 120.599 396.218C120.599 396.218 122.814 398.29 125.166 400.428C100.381 404.625 75.1008 408.924 63.2977 411.05L62.121 409.619C58.4592 405.165 55.3856 401.09 51.4403 396.152C50.1993 394.598 48.8875 393.035 48.2596 391.162C47.6317 389.289 47.9696 386.362 49.321 384.898C51.8474 382.156 55.1582 382.65 59.6408 383.431C57.8181 381.605 55.9954 379.778 54.1513 377.981C52.2066 376.086 50.4927 374.242 49.3226 372.219H49.3193Z" fill="white"/>
<path d="M260.899 430.007C258.203 432.357 254.679 435.168 250.769 436.035C250.197 436.162 249.617 436.239 249.038 436.329C248.877 436.355 248.715 436.374 248.554 436.397C248.025 436.474 249.375 436.296 248.817 436.363C248.381 436.416 247.944 436.471 247.507 436.52C245.596 436.739 243.679 436.92 241.761 437.083C231.757 437.934 221.648 438.466 211.607 438.159C209.331 438.09 207.055 437.963 204.793 437.706C204.028 437.619 204.765 437.701 204.9 437.722C204.606 437.679 204.313 437.635 204.021 437.585C203.624 437.516 203.227 437.442 202.835 437.352C202.49 437.274 202.156 437.169 201.813 437.084C201.681 437.051 201.549 436.977 201.416 436.953C200.755 436.835 202.278 437.34 201.679 437.057C199.76 436.148 197.404 436.546 196.267 438.44C195.252 440.131 195.756 442.801 197.686 443.715C201.132 445.347 205.178 445.552 208.944 445.76C214.17 446.045 219.419 445.968 224.648 445.797C233.789 445.496 243.283 445.246 252.298 443.583C257.605 442.605 262.549 438.899 266.492 435.46C270.294 432.145 264.685 426.708 260.899 430.009V430.007Z" fill="#211715"/>
<path d="M190.29 397.966C196.093 395.473 202.045 393.449 208.123 391.698C214.475 389.867 220.844 387.975 227.321 386.603C234.101 385.168 241.387 384.162 248.328 384.845C254.971 385.498 261.331 388.036 267.573 390.19C269.587 390.886 271.901 389.403 272.438 387.498C273.04 385.367 271.697 383.454 269.676 382.757C262.799 380.384 255.988 377.919 248.679 377.17C241.161 376.399 233.217 377.523 225.862 379.036C219.162 380.415 212.583 382.374 206.02 384.266C199.277 386.21 192.732 388.547 186.297 391.311C184.342 392.151 183.888 394.935 184.878 396.586C186.056 398.551 188.327 398.813 190.29 397.969V397.966Z" fill="#211715"/>
<path d="M123.394 393.493C111.12 381.436 98.6195 369.577 85.8754 357.993C79.7728 352.447 72.9567 344.486 63.8119 344.933C58.3652 345.199 53.4195 348.356 52.3813 353.83C51.3134 359.461 54.6605 363.911 58.5976 367.615C66.9233 375.447 75.1304 383.397 83.4413 391.246C87.0999 394.701 92.6998 389.254 89.0347 385.794C82.469 379.594 75.9627 373.336 69.4431 367.091C67.7918 365.509 66.1125 363.96 64.4414 362.399C62.9796 361.032 61.2575 359.572 60.4153 357.727C58.7772 354.135 62.3649 352.172 65.5835 352.685C69.0806 353.242 71.6399 355.728 74.1498 357.943C76.8377 360.316 79.4943 362.72 82.1394 365.138C88.2173 370.695 94.2243 376.324 100.197 381.989C106.108 387.596 111.99 393.236 117.801 398.943C121.392 402.47 126.985 397.018 123.394 393.491V393.493Z" fill="#211715"/>
<path d="M56.9018 358.32C52.3203 357.742 47.2263 360.005 45.2339 364.183C42.803 369.277 45.3476 374.066 48.7573 378.002C51.9841 381.725 55.758 385.082 59.2518 388.569C62.8099 392.119 66.4108 395.629 70.1996 398.944C73.9883 402.259 79.5916 396.816 75.7929 393.492C69.692 388.155 64.1052 382.308 58.3471 376.63C56.9924 375.294 55.5932 373.989 54.3506 372.549C53.4904 371.553 52.317 370.171 52.1258 368.838C51.7583 366.281 54.794 365.764 56.9034 366.029C59.026 366.297 60.8586 364.066 60.8586 362.174C60.8586 359.869 59.0326 358.587 56.9034 358.319L56.9018 358.32Z" fill="#211715"/>
<path d="M57.0449 379.16C53.2116 378.672 49.2515 379.252 46.5224 382.172C43.9531 384.922 43.3087 389.397 44.6898 392.823C46.1994 396.565 49.2515 399.63 51.7317 402.796C54.24 405.997 56.7417 409.202 59.3225 412.347C60.6574 413.974 63.5232 413.704 64.9158 412.347C66.5655 410.739 66.254 408.527 64.9158 406.895C62.9563 404.507 61.3281 402.436 59.4362 400.022C57.3992 397.42 55.092 394.704 53.299 392.208C52.9199 391.681 52.4272 390.961 52.2179 390.518C52.2228 390.527 52.03 389.97 51.9806 389.835C51.7334 389.17 51.9559 390.137 51.9328 389.689C51.9163 389.389 51.9212 389.093 51.9147 388.791C51.9015 388.083 51.8372 388.948 51.9262 388.544C51.9905 388.247 52.0729 387.964 52.1553 387.67C52.0185 388.161 52.0877 387.781 52.2558 387.495C52.5508 386.997 51.5702 388.2 52.3942 387.339C52.8606 386.852 52.325 387.35 52.6167 387.135C52.8573 386.957 53.3122 386.759 52.7749 386.976C53.0468 386.867 53.3369 386.817 53.617 386.732C54.0208 386.61 53.0716 386.713 53.8181 386.695C54.1362 386.687 54.4526 386.671 54.7723 386.677C55.5353 386.692 56.2918 386.774 57.0466 386.87C59.1675 387.141 61.0018 384.904 61.0018 383.015C61.0018 380.707 59.1725 379.432 57.0449 379.16Z" fill="#211715"/>
<path d="M270.85 332.373C269.266 363.096 266.355 393.878 262.469 424.403C261.746 430.083 261.07 435.438 259.88 441.465C259.478 443.508 260.469 445.625 262.643 446.206C264.579 446.725 267.102 445.568 267.507 443.514C269.97 431.03 271.201 418.264 272.565 405.634C274.353 389.08 275.889 372.497 277.183 355.9C277.794 348.063 278.353 340.222 278.758 332.373C279.014 327.415 271.103 327.428 270.848 332.373H270.85Z" fill="#211715"/>
<path d="M110.642 236.918C88.3194 243.574 65.6099 250.797 45.7217 262.989C41.2341 265.739 36.8043 268.647 32.8919 272.149C28.3829 276.187 24.581 280.991 21.4597 286.117C17.8736 292.005 14.983 298.275 13.1718 304.884C11.209 312.046 9.43248 319.259 7.9229 326.525C5.19709 339.651 3.43207 352.943 2.30483 366.286C1.17759 379.629 0.327221 392.951 0.0684838 406.288C-0.205086 420.402 0.249765 435.004 3.11565 448.879C4.39616 455.079 6.74952 461.125 9.87085 466.663C13.0729 472.346 17.2655 478.125 22.4996 482.197C31.5521 489.237 43.5232 491.921 54.8121 493.094C65.3083 494.183 75.7501 492.876 86.1704 491.594C114.088 488.16 141.796 482.661 168.927 475.398C175.516 473.634 182.071 471.752 188.578 469.722C191.571 468.787 194.553 467.821 197.523 466.818C200.946 465.661 204.87 464.776 206.187 461.038C207.026 458.656 206.231 456.281 205.659 453.934C205.149 451.839 204.626 449.75 204.099 447.66C202.808 442.558 201.48 437.465 200.13 432.378C197.344 421.876 194.489 411.386 191.421 400.958C190.819 398.915 190.209 396.877 189.576 394.843C188.787 392.306 188.105 389.671 185.664 388.136C182.213 385.964 177.185 387.71 173.401 388.357C154.706 391.552 136.001 394.696 117.301 397.866C99.7204 400.846 82.1312 403.793 64.5765 406.921C62.3896 407.311 60.2011 407.703 58.0191 408.119C55.9212 408.519 54.7214 410.962 55.257 412.861C55.8586 414.995 58.0191 415.954 60.122 415.553C74.0872 412.891 88.1365 410.617 102.153 408.231C121.53 404.932 140.912 401.665 160.293 398.38C164.271 397.706 168.25 397.031 172.226 396.353C175.196 395.847 178.596 395.692 181.458 394.773C182.006 394.598 181.742 394.823 181.709 394.733C181.885 395.219 181.032 394.325 181.167 394.321C180.964 394.328 181.139 393.974 181.167 394.427C181.219 395.259 181.755 396.273 182.004 397.073C182.617 399.049 183.21 401.029 183.794 403.013C185.194 407.774 186.542 412.547 187.867 417.329C190.707 427.574 193.449 437.844 196.073 448.143C196.612 450.256 197.144 452.371 197.665 454.488C197.876 455.343 198.085 456.199 198.291 457.055C198.385 457.445 198.479 457.837 198.573 458.229C198.67 458.64 198.903 459.385 198.723 458.516C198.631 458.068 199.313 458.16 198.304 458.401C197.629 458.563 196.951 458.868 196.292 459.093C194.731 459.625 193.167 460.145 191.599 460.658C188.672 461.613 185.733 462.534 182.785 463.427C156.877 471.27 130.281 477.163 103.511 481.423C91.5644 483.323 79.4976 485.002 67.4111 485.768C58.0686 486.361 48.3898 485.061 39.5087 482.239C34.97 480.797 30.3309 478.784 26.763 475.661C22.0051 471.495 18.3037 466.059 15.484 460.502C9.57915 448.858 8.75679 435.332 8.17175 422.566C7.5933 409.947 8.21625 397.344 8.94467 384.747C9.69122 371.842 10.6026 358.92 12.4615 346.116C14.4194 332.639 17.3825 319.331 21.0081 306.189C24.0635 295.113 30.6506 284.236 39.5614 276.669C46.2523 270.986 54.4644 266.579 62.36 262.706C71.9909 257.982 82.0768 254.223 92.2598 250.802C99.0447 248.523 105.884 246.404 112.746 244.358C117.6 242.911 115.53 235.466 110.643 236.923L110.642 236.918Z" fill="#211715"/>
<path d="M217.355 242.31C231.471 245.272 245.668 248.266 259.172 253.351C271.832 258.118 284.144 264.922 292.968 275.141C311.992 297.176 316.027 326.875 318.99 354.512C320.643 369.921 321.271 385.428 321.047 400.917C320.857 414.004 320.842 427.633 316.953 440.281C315.331 445.556 313.059 450.866 309.988 455.506C306.999 460.023 302.365 463.525 297.726 466.318C292.234 469.625 286.257 472.11 279.975 473.572C273.101 475.171 265.81 475.403 258.775 475.748C244.287 476.458 229.795 475.95 215.32 475.224C199.951 474.453 184.581 473.602 169.275 472.012C165.585 471.628 161.897 471.209 158.22 470.719C156.105 470.438 153.973 471.217 153.355 473.411C152.847 475.21 153.988 477.87 156.117 478.153C172.221 480.297 188.429 481.506 204.654 482.382C219.7 483.193 234.773 484.038 249.848 483.757C264.774 483.479 280.069 482.987 293.894 476.995C299.898 474.392 305.583 470.923 310.455 466.61C315.061 462.532 318.179 457.583 320.747 452.106C326.371 440.11 327.957 427.358 328.552 414.298C329.287 398.167 329.143 381.99 327.934 365.883C326.785 350.57 325.026 335.088 321.88 320.034C318.858 305.576 313.892 291.376 305.605 278.942C301.592 272.922 296.9 267.113 291.265 262.454C285.789 257.926 279.573 254.191 273.178 251.03C259.719 244.374 245.078 240.458 230.422 237.215C226.774 236.407 223.117 235.639 219.458 234.871C214.494 233.83 212.373 241.261 217.355 242.307V242.31Z" fill="#211715"/>
<path d="M100.637 247.808C106.139 253.049 113.11 256.504 120.258 259.098C128.839 262.214 137.918 263.93 147.008 264.832C165.398 266.659 185 264.619 202.19 257.789C210.649 254.429 218.721 249.91 225.015 243.36C228.492 239.741 222.911 234.277 219.422 237.909C208.69 249.077 192.449 254.029 177.36 256.369C160.548 258.978 142.806 258.04 126.533 253.057C119.218 250.818 111.779 247.642 106.228 242.356C102.584 238.887 96.9862 244.334 100.635 247.808H100.637Z" fill="#211715"/>
</svg>
