<svg width="173" height="288" viewBox="0 0 173 288" fill="none" xmlns="http://www.w3.org/2000/svg">
<path d="M129.156 150.44C137.898 154.139 148.494 149.259 151.878 140.527C154.65 133.371 152.282 123.751 150.535 116.279C147.524 103.403 146.768 90.46 147.358 77.27C148.05 69.676 148.044 60.625 147.993 56.833C147.816 43.686 142.773 28.724 134.765 20.105C131.576 16.673 130.501 14.959 127.332 12.847C127.332 12.847 125.497 11.624 123.662 10.402L119.977 8.65202C113.127 5.40002 105.93 3.08702 95.551 2.48402C78.534 1.49402 62.879 9.37902 55.783 15.423C44.012 25.449 35.806 44.535 35.134 71.473C34.074 89.695 31.816 102.749 29.289 110.1C27.569 115.129 25.858 123.572 25.504 128.763C25.003 136.304 32.816 147.27 46.143 145.848L129.157 150.44H129.156Z" fill="#645D5C"/>
<path d="M48.413 69.251C48.485 69.309 48.556 69.37 48.626 69.432C49.461 68.825 50.361 68.17 51.188 67.567C52.821 66.378 54.171 65.396 54.171 65.396C62.662 59.236 71.879 51.46 80.326 44.076C79.822 46.914 78.354 51.73 77.99 54.675C77.844 55.859 78.073 56.285 78.95 56.765C79.632 57.059 80.659 56.978 81.362 56.794C93.303 53.665 103.465 46.953 111.298 37.553C112.522 43.689 114.315 51.336 116.043 55.114C120.317 64.459 128.022 72.57 135.139 75.202C136.612 73.953 138.515 73.567 140.114 73.723C143.593 74.062 144.959 76.04 145.529 77.187C147.23 80.61 146.771 86.696 145.258 90.384C144.186 92.996 142.449 96.987 138.689 99.692C137.14 100.807 134.921 101.467 132.868 100.987L132.326 100.86C131.532 102.994 130.587 105.074 130.026 106.078C128.598 109.319 122.086 119.261 113.81 125.18C113.843 127.38 113.781 128.251 113.99 131.105C114.086 132.42 114.188 133.84 114.675 135.123C115.328 136.809 116.207 138.27 117.62 139.41C120.613 141.821 123.688 142.973 127.477 144.398L130.936 145.76C120.978 150.933 105.911 155.443 91.688 155.478C78.486 155.53 61.177 150.976 51.9 145.791L55.439 144.398C59.227 142.973 62.303 141.821 65.296 139.41C66.709 138.27 67.588 136.809 68.241 135.123C68.728 133.84 68.83 132.42 68.926 131.105C69.115 128.522 69.082 127.564 69.097 125.776C64.678 123.262 60.791 119.499 57.17 114.574C52.399 108.085 49.877 101.259 48.598 95.652C46.352 96.085 44.012 95.115 42.507 93.719C39.111 90.57 37.88 86.395 37.14 83.67C36.095 79.822 36.392 73.727 38.503 70.54C39.21 69.472 40.811 67.679 44.305 67.772C45.661 67.808 47.185 68.255 48.413 69.249V69.251Z" fill="white"/>
<path d="M130.01 100.222C128.412 104.461 126.213 108.32 123.522 111.957C120.31 116.298 116.364 120.586 111.807 123.657C109.226 125.396 106.463 126.731 103.375 127.248C102.096 127.462 101.381 129.043 101.699 130.2C102.072 131.556 103.368 132.091 104.651 131.876C110.876 130.833 116.319 126.768 120.726 122.453C124.606 118.654 128.099 114.278 130.868 109.601C132.385 107.039 133.591 104.278 134.639 101.498C135.096 100.285 134.131 98.867 132.963 98.546C131.616 98.176 130.47 99.005 130.011 100.222H130.01Z" fill="#211715"/>
<path d="M45.632 92.934C46.715 99.596 49.052 106.099 52.515 111.896C56.073 117.854 60.845 123.447 66.757 127.172C69.775 129.074 73.148 130.427 76.636 131.167C79.649 131.806 80.937 127.18 77.912 126.538C70.36 124.935 64.435 120.161 59.812 114.126C54.779 107.556 51.585 99.808 50.261 91.657C50.053 90.377 48.462 89.664 47.309 89.981C45.948 90.355 45.424 91.649 45.633 92.933L45.632 92.934Z" fill="#211715"/>
<path d="M84.163 110.041C84.309 109.974 84.457 109.909 84.603 109.841C84.955 109.679 84.434 109.931 84.363 109.941C84.457 109.928 84.595 109.848 84.684 109.814C85.144 109.64 85.615 109.497 86.093 109.381C86.402 109.307 86.713 109.253 87.025 109.192C87.484 109.102 86.739 109.213 87.057 109.183C87.229 109.167 87.4 109.145 87.573 109.131C88.463 109.056 89.357 109.053 90.249 109.101C90.673 109.124 91.096 109.16 91.518 109.209C91.049 109.154 91.763 109.25 91.794 109.255C91.97 109.285 92.146 109.319 92.321 109.355C92.955 109.487 93.581 109.659 94.187 109.886C94.262 109.914 94.336 109.942 94.409 109.972C94.581 110.041 94.506 110.009 94.185 109.877C94.262 109.865 94.44 109.995 94.505 110.027C94.714 110.13 94.919 110.24 95.118 110.36C95.272 110.453 95.419 110.555 95.569 110.655C96.032 110.963 95.079 110.238 95.56 110.656C96.506 111.48 98.036 111.656 98.954 110.656C99.783 109.752 99.965 108.142 98.954 107.262C96.623 105.233 93.529 104.52 90.513 104.316C87.439 104.109 84.526 104.61 81.74 105.894C80.596 106.421 80.224 108.161 80.879 109.178C81.639 110.358 82.939 110.603 84.163 110.039V110.041Z" fill="#211715"/>
<path d="M88.599 87.642C88.186 88.928 87.804 90.23 87.505 91.548C87.388 92.061 87.267 92.598 87.304 93.126C87.382 94.241 87.857 95.175 88.812 95.789C89.485 96.222 90.213 96.419 91 96.493C91.476 96.538 91.962 96.43 92.429 96.364L91.791 96.45C91.86 96.441 91.929 96.433 91.999 96.427C92.644 96.375 93.226 96.194 93.696 95.724C94.112 95.308 94.426 94.625 94.399 94.027C94.371 93.406 94.167 92.763 93.696 92.33C93.248 91.919 92.628 91.577 91.999 91.627C91.66 91.654 91.325 91.712 90.988 91.759L91.626 91.673C91.392 91.704 91.164 91.715 90.929 91.683L91.567 91.769C91.407 91.741 91.256 91.697 91.104 91.638L91.677 91.88C91.501 91.803 91.331 91.715 91.176 91.602L91.662 91.977C91.626 91.948 91.594 91.915 91.565 91.879L91.94 92.365C91.899 92.307 91.869 92.254 91.839 92.189L92.081 92.762C92.057 92.694 92.04 92.63 92.027 92.559L92.113 93.197C92.09 93.018 92.098 92.845 92.12 92.666L92.034 93.304C92.151 92.54 92.381 91.782 92.591 91.039C92.792 90.328 93.002 89.62 93.227 88.917C93.611 87.721 92.778 86.244 91.551 85.965C90.238 85.666 89.01 86.362 88.599 87.642Z" fill="#211715"/>
<path d="M68.572 75.338C67.715 77.61 67.849 82.967 72.209 83.693C78.011 84.018 78.719 77.596 76.955 74.446C75.511 71.867 70.875 70.544 68.572 75.338Z" fill="#211715"/>
<path d="M115.013 78.221C115.582 80.581 114.787 85.88 110.371 86.061C104.574 85.666 104.665 79.205 106.805 76.298C108.557 73.918 113.321 73.178 115.013 78.221Z" fill="#211715"/>
<path d="M136.835 76.898C137.988 75.986 139.631 75.927 140.988 76.315C141.433 76.442 142.164 76.814 142.314 76.931C142.507 77.081 142.671 77.266 142.844 77.437C143.251 77.841 142.737 77.23 143.007 77.63C144.503 79.847 144.396 83.098 144.034 85.639C143.621 88.539 142.578 91.019 141.091 93.49C139.576 96.007 136.829 99.325 133.504 98.673C132.233 98.424 130.913 99.033 130.552 100.349C130.228 101.527 130.95 103.051 132.228 103.301C140.16 104.856 145.244 97.142 147.687 90.725C149.724 85.376 150.19 76.773 145.018 72.997C141.528 70.449 136.716 70.912 133.44 73.503C132.422 74.308 132.598 76.056 133.44 76.897C134.445 77.902 135.814 77.704 136.834 76.897L136.835 76.898Z" fill="#211715"/>
<path d="M50.755 68.159C48.037 65.399 43.751 64.617 40.195 66.133C37.516 67.275 35.926 69.646 35.062 72.349C33.101 78.485 34.342 85.683 37.507 91.208C39.708 95.05 43.406 98.454 48.122 98.126C49.415 98.036 50.522 97.087 50.522 95.726C50.522 94.497 49.422 93.235 48.122 93.326C44.469 93.58 42.148 90.145 40.825 87.164C39.731 84.699 39.015 81.964 38.959 79.266C38.927 77.703 39.041 76.148 39.411 74.626C39.559 74.017 39.728 73.394 39.982 72.82C40.148 72.446 40.364 72.103 40.575 71.753C40.63 71.662 40.979 71.251 40.632 71.656C41.381 70.78 42.055 70.328 43.348 70.186C44.868 70.02 46.289 70.465 47.36 71.553C49.531 73.758 52.925 70.363 50.755 68.159Z" fill="#211715"/>
<path d="M109.089 38.719C110.715 46.726 112.482 54.721 116.892 61.714C121.093 68.375 127.003 74.667 134.5 77.515C135.712 77.975 137.132 77.005 137.452 75.839C137.823 74.489 136.992 73.349 135.776 72.887C129.275 70.417 124.099 64.359 120.592 58.573C116.729 52.197 115.213 44.811 113.717 37.443C113.459 36.172 111.953 35.44 110.765 35.767C109.443 36.13 108.83 37.445 109.089 38.719Z" fill="#211715"/>
<path d="M109.56 35.9041C104.147 42.3451 97.5531 47.6131 89.9211 51.1901C88.0641 52.0601 86.155 52.8051 84.208 53.4481C83.187 53.7851 82.1561 54.1031 81.1161 54.3741C81.1381 54.3681 79.9391 54.6091 79.9641 54.5561C80.0511 54.3711 80.3151 55.3421 80.3511 55.3591C79.9581 55.1741 81.2351 50.7221 81.3741 50.1581C81.8181 48.3491 82.3031 46.5461 82.6411 44.7121C83.0781 42.3391 80.493 40.7491 78.63 42.3771C70.316 49.6401 61.8951 56.8251 52.9611 63.3221C51.9141 64.0831 51.399 65.4081 52.1 66.6061C52.704 67.6391 54.3301 68.2341 55.3841 67.4671C64.6501 60.7291 73.4021 53.3051 82.0251 45.7721L78.0141 43.4371C77.3941 46.8001 76.2891 50.0621 75.7621 53.4431C75.4561 55.4061 75.4771 57.2571 77.2501 58.5141C78.9701 59.7341 81.0841 59.3731 82.9811 58.8401C90.4621 56.7401 97.4281 53.1621 103.552 48.3951C107.007 45.7061 110.141 42.6471 112.957 39.2961C113.79 38.3041 113.929 36.8741 112.957 35.9021C112.101 35.0461 110.401 34.9051 109.563 35.9021L109.56 35.9041Z" fill="#211715"/>
<path d="M144.957 77.271C144.363 90.92 145.321 104.528 148.437 117.847C150.653 127.319 153.74 140.117 144.055 146.566C139.778 149.414 134.568 150.085 129.793 148.126C128.593 147.634 127.155 148.66 126.841 149.802C126.463 151.179 127.313 152.26 128.517 152.754C138.753 156.954 150.998 150.767 154.447 140.453C156.433 134.515 155.458 127.87 154.246 121.881C152.88 115.127 151.196 108.506 150.435 101.638C149.54 93.548 149.402 85.398 149.755 77.271C149.889 74.182 145.089 74.189 144.955 77.271H144.957Z" fill="#211715"/>
<path d="M126.119 14.9201C127.724 16.0071 129.061 17.3381 130.349 18.7781C131.835 20.4391 133.404 22.0521 134.784 23.8041C137.46 27.2001 139.56 31.1461 141.154 35.1551C142.924 39.6051 144.186 44.263 144.935 48.993C145.563 52.964 145.625 56.964 145.611 60.974C145.591 66.41 145.44 71.855 144.958 77.271C144.843 78.564 146.144 79.6711 147.358 79.6711C148.752 79.6711 149.642 78.567 149.758 77.271C150.21 72.199 150.368 67.1021 150.406 62.0121C150.438 57.6871 150.361 53.4041 149.77 49.1121C148.45 39.5341 145.129 29.712 139.323 21.8951C137.684 19.6881 135.804 17.6981 133.979 15.6471C132.335 13.7991 130.599 12.1681 128.544 10.7761C125.979 9.03905 123.575 13.1961 126.121 14.9211L126.119 14.9201Z" fill="#211715"/>
<path d="M121.186 6.58102C112.676 2.56102 103.623 0.314016 94.197 0.0250157C84.235 -0.280984 74.268 2.23902 65.331 6.55802C58.915 9.65802 53.1059 13.819 48.6039 19.379C43.7609 25.36 40.31 32.289 37.868 39.566C34.429 49.814 33.019 60.701 32.733 71.474C32.651 74.564 37.451 74.562 37.533 71.474C37.963 55.274 40.999 38.01 50.635 24.569C54.338 19.404 59.0359 15.427 64.6169 12.328C72.3399 8.03902 81.1219 5.31602 89.9619 4.86902C99.8679 4.36702 109.819 6.50202 118.764 10.727C119.935 11.28 121.353 11.053 122.048 9.86602C122.658 8.82202 122.364 7.13802 121.187 6.58202L121.186 6.58102Z" fill="#211715"/>
<path d="M32.733 71.473C32.295 78.903 31.658 86.338 30.528 93.698C29.75 98.766 28.802 103.864 27.212 108.749C25.216 114.879 23.799 121.246 23.193 127.672C22.715 132.736 24.66 137.525 27.962 141.323C32.471 146.508 39.373 148.913 46.142 148.248C47.432 148.121 48.542 147.236 48.542 145.848C48.542 144.648 47.44 143.321 46.142 143.448C40.801 143.972 35.641 142.451 31.931 138.56C30.529 137.09 29.248 135.064 28.631 133.34C27.849 131.153 27.775 129.881 28.007 127.51C28.588 121.572 29.996 115.687 31.839 110.025C33.338 105.42 34.259 100.624 35.018 95.849C36.301 87.778 37.051 79.628 37.531 71.473C37.713 68.387 32.912 68.398 32.731 71.473H32.733Z" fill="#211715"/>
<path d="M113.596 69.601C114.275 70.532 115.015 71.419 115.848 72.216C116.328 72.675 116.843 73.088 117.377 73.485C117.859 73.844 118.355 74.075 118.918 74.297C119.237 74.397 119.556 74.411 119.875 74.34C120.194 74.326 120.492 74.231 120.767 74.055C121.265 73.764 121.74 73.193 121.87 72.621C122.01 72.007 121.98 71.317 121.628 70.772L121.253 70.286C120.954 69.989 120.601 69.783 120.194 69.669C120.17 69.66 120.147 69.65 120.123 69.641L120.696 69.883C120.326 69.723 119.992 69.491 119.674 69.246L120.16 69.621C119.188 68.863 118.326 67.943 117.573 66.97L117.948 67.456C117.878 67.365 117.809 67.273 117.741 67.179C117.59 66.899 117.384 66.675 117.123 66.506C116.891 66.294 116.619 66.151 116.307 66.076C115.733 65.918 114.968 65.989 114.458 66.318C113.946 66.648 113.494 67.14 113.355 67.752C113.22 68.345 113.223 69.088 113.597 69.601H113.596Z" fill="#211715"/>
<path d="M66.693 126.321C66.686 127.566 66.669 128.809 66.595 130.052C66.507 131.532 66.481 133.102 65.927 134.498C64.825 137.274 62.326 138.802 59.737 140.065C56.49 141.65 52.973 142.803 49.61 144.127C48.405 144.601 47.564 145.734 47.934 147.079C48.25 148.227 49.673 149.233 50.886 148.755C54.918 147.168 59.176 145.815 63.001 143.781C64.582 142.941 66.161 141.921 67.468 140.691C68.831 139.41 69.75 137.775 70.436 136.056C71.622 133.083 71.476 129.484 71.493 126.32C71.509 123.231 66.709 123.227 66.693 126.32V126.321Z" fill="#211715"/>
<path d="M111.42 126.321C111.437 129.485 111.291 133.084 112.477 136.057C113.163 137.777 114.082 139.411 115.445 140.692C116.753 141.921 118.331 142.941 119.912 143.782C123.737 145.815 127.995 147.168 132.027 148.756C133.233 149.231 134.662 148.235 134.979 147.08C135.353 145.718 134.514 144.604 133.303 144.128C129.939 142.804 126.422 141.651 123.176 140.066C120.596 138.807 118.075 137.274 116.986 134.499C116.436 133.098 116.406 131.537 116.318 130.053C116.244 128.81 116.226 127.567 116.22 126.322C116.204 123.234 111.404 123.227 111.42 126.321Z" fill="#211715"/>
<path d="M169.732 186.444C169.788 201.584 168.796 219.166 165.241 235.111C162.668 246.651 158.391 258.816 149.685 267.278C141.435 275.296 127.195 276.056 117.645 272.159C108.579 268.53 104.107 261.685 101.451 255.512C99.662 251.353 98.002 246.559 96.483 241.487C92.228 242.878 87.773 243.656 83.298 243.791L81.649 243.879C82.866 250.022 85.623 266.246 86.784 277.278C73.685 281.001 58.596 283.259 44.322 284.43C32.337 285.414 19.925 285.036 11.365 275.025C3.46101 265.781 2.56301 252.736 2.44601 241.114C2.33401 229.998 2.92501 218.862 3.74101 207.779C4.65401 195.385 9.70902 175.165 16.582 164.811C23.838 153.88 35.55 150.252 47.843 146.243C49.286 145.83 50.249 145.555 50.249 145.555C50.788 145.401 51.161 145.358 51.32 145.46C60.441 150.783 78.206 155.532 91.688 155.479C106.729 155.442 122.714 150.401 132.602 144.862C142.926 148.166 150.798 151.81 157.26 158.168C162.898 164.356 168.908 172.384 169.733 186.445" fill="#F8B8B4"/>
<path d="M97.878 245.939C97.4 244.486 96.935 242.999 96.483 241.488C92.227 242.877 87.7719 243.655 83.2979 243.79L81.642 243.84C82.66 248.973 84.772 261.257 86.112 271.608C91.391 271.558 96.661 271.468 101.93 271.387C104.046 271.354 107.606 270.672 111.461 268.747C106.378 265.018 103.417 260.08 101.451 255.511C100.195 252.592 99.003 249.359 97.879 245.939H97.878Z" fill="white"/>
<path d="M53.34 141.87C39.256 146.795 23.483 150.246 14.619 163.434C10.796 169.122 8.36203 175.817 6.36603 182.33C4.23403 189.287 2.67503 196.429 1.76103 203.648C0.643031 212.48 0.371037 221.513 0.139037 230.406C-0.0839634 238.963 -0.192971 247.631 1.05603 256.122C2.19303 263.856 4.88603 271.466 10.207 277.332C15.419 283.077 22.579 285.937 30.154 286.842C38.039 287.784 46.138 286.781 53.979 285.875C63.135 284.817 72.263 283.364 81.228 281.209C83.303 280.71 85.368 280.17 87.422 279.59C88.348 279.328 89.294 278.312 89.184 277.276C88.419 270.072 87.339 262.898 86.172 255.75C85.386 250.934 84.674 246.059 83.555 241.306C83.338 240.383 82.243 239.426 81.241 239.544C66.834 241.234 52.37 242.526 37.911 243.674C36.619 243.777 35.511 244.704 35.511 246.074C35.511 247.293 36.612 248.577 37.911 248.474C52.37 247.326 66.834 246.034 81.241 244.344L78.927 242.582C80.019 247.222 80.717 251.979 81.487 256.679C82.608 263.52 83.652 270.382 84.384 277.276L86.146 274.962C77.82 277.315 69.307 278.97 60.747 280.203C52.797 281.348 44.67 282.375 36.627 282.392C29.837 282.406 22.955 281.319 17.31 277.301C11.431 273.117 8.15103 266.327 6.55203 259.467C4.81603 252.016 4.79003 244.244 4.83803 236.633C4.89703 227.168 5.41304 217.712 6.10504 208.275C6.57904 201.801 7.82203 195.394 9.44403 189.114C11.146 182.523 13.254 175.916 16.409 169.863C19.49 163.953 23.906 159.321 29.695 156.004C35.845 152.48 42.701 150.451 49.4 148.258C51.144 147.687 52.885 147.107 54.617 146.501C55.84 146.073 56.653 144.859 56.293 143.549C55.967 142.362 54.57 141.443 53.341 141.873L53.34 141.87Z" fill="#211715"/>
<path d="M30.4941 198.965C32.3621 214.607 34.2551 230.247 36.0471 245.898C36.1951 247.186 37.0441 248.298 38.4471 248.298C39.6301 248.298 40.995 247.194 40.847 245.898C39.054 230.247 37.162 214.608 35.294 198.965C35.14 197.678 34.301 196.565 32.894 196.565C31.716 196.565 30.3391 197.669 30.4941 198.965Z" fill="#211715"/>
<path d="M129.76 143.669C119.993 148.718 108.895 151.828 97.9519 152.789C87.3849 153.717 76.8099 152.106 66.6729 149.12C61.7959 147.683 56.9439 145.939 52.5289 143.387C49.8499 141.838 47.4299 145.984 50.1059 147.532C54.2529 149.93 58.7989 151.673 63.3539 153.123C68.6339 154.804 74.0599 156.066 79.5399 156.883C85.0539 157.705 90.5869 158.086 96.1569 157.726C102.323 157.327 108.459 156.248 114.419 154.628C120.539 152.964 126.544 150.728 132.182 147.814C134.927 146.395 132.503 142.252 129.76 143.669Z" fill="#211715"/>
<path d="M86.1699 274.007C90.8669 273.961 95.5629 273.886 100.26 273.813C104.314 273.75 107.94 272.94 111.662 271.3C112.848 270.777 113.124 269.044 112.523 268.016C111.808 266.793 110.43 266.63 109.239 267.155C107.546 267.902 105.745 268.454 103.924 268.788C102.453 269.058 100.852 269.004 99.3049 269.028C94.9269 269.096 90.5489 269.165 86.1699 269.207C83.0829 269.237 83.0749 274.037 86.1699 274.007Z" fill="#211715"/>
<path d="M83.2979 246.19C87.9319 246.038 92.554 245.264 96.971 243.851C98.165 243.469 99.058 242.167 98.647 240.899C98.26 239.703 96.975 238.813 95.695 239.223C93.626 239.885 91.518 240.412 89.378 240.788C88.853 240.88 88.327 240.962 87.8 241.038C88.236 240.976 87.471 241.078 87.463 241.079C87.178 241.113 86.893 241.144 86.608 241.173C85.507 241.284 84.4039 241.354 83.2979 241.39C82.0449 241.431 80.839 242.464 80.898 243.79C80.955 245.055 81.9539 246.234 83.2979 246.19Z" fill="#211715"/>
<path d="M172.132 186.444C171.526 176.812 168.32 168.046 162.357 160.461C159.8 157.208 156.954 154.407 153.593 151.978C149.961 149.353 145.952 147.356 141.823 145.646C136.454 143.422 130.87 141.756 125.286 140.171C122.309 139.326 121.039 143.956 124.01 144.8C132.743 147.279 141.7 149.895 149.376 154.893C155.588 158.937 160.492 164.806 163.671 171.466C165.903 176.141 167.006 181.295 167.331 186.445C167.412 187.739 168.376 188.845 169.731 188.845C170.967 188.845 172.213 187.745 172.131 186.445L172.132 186.444Z" fill="#211715"/>
<path d="M124.118 148.648C125.34 146.872 126.431 145.16 127.421 143.277C127.92 142.329 128.389 141.341 128.838 140.274C131.826 130.584 133.651 114.03 134.076 105.392C134.174 103.392 134.184 102.703 133.594 101.115C133.119 99.838 131.036 98.455 129.474 98.605C126.397 98.901 125.478 100.897 125.121 102.763C124.981 103.494 124.826 104.609 124.72 105.5L124.655 105.421C124.11 104.756 122.672 103.178 120.56 103.378C118.229 103.593 116.723 105.357 116.165 108.12C115.324 112.368 113.602 119.481 112.112 125.042C112.197 123.12 112.247 121.327 112.307 119.165C112.332 118.255 112.138 117.17 111.779 116.333C111.42 115.496 110.773 114.869 109.89 114.646C108.681 114.34 106.979 115.157 106.293 116.429C105.706 117.517 105.434 119.173 105.252 120.606C104.734 124.679 103.751 128.693 102.327 132.544C99.446 139.349 91.118 148.045 90.078 153.581C89.497 156.671 90.004 159.182 90.415 161.911C90.831 164.674 91.703 167.66 91.838 171.131C92.285 177.852 92.525 181.889 92.819 188.275C102.1 186.507 112.357 184.518 121.15 182.962C118.711 177.583 115.932 170.666 116.352 166.747C116.632 160.877 118.042 157.157 121.102 152.897C122.192 151.376 123.194 149.994 124.119 148.648H124.118Z" fill="white"/>
<path d="M114.752 124.451C116.008 119.674 117.201 114.873 118.217 110.039C118.392 109.204 118.608 107.962 118.86 107.395C118.949 107.193 119.062 107.002 119.174 106.813C119.225 106.727 119.509 106.347 119.314 106.584C119.461 106.405 119.645 106.218 119.828 106.074C119.526 106.313 120.077 105.948 120.128 105.922C119.74 106.121 120.958 105.732 120.561 105.78C121.034 105.724 121.291 105.771 121.591 105.907C121.878 106.037 122.12 106.242 122.233 106.347C122.493 106.589 122.732 106.847 122.959 107.12C123.789 108.117 125.495 107.978 126.353 107.12C127.34 106.133 127.185 104.725 126.353 103.726C124.634 101.66 122.09 100.585 119.419 101.139C116.685 101.706 114.847 104.039 114.073 106.601C113.319 109.097 112.945 111.758 112.344 114.298C111.642 117.267 110.901 120.226 110.125 123.176C109.339 126.166 113.968 127.442 114.754 124.452L114.752 124.451Z" fill="#211715"/>
<path d="M131.152 140.91C133.008 134.825 134.007 128.476 134.853 122.183C135.651 116.244 136.429 110.189 136.523 104.189C136.577 100.74 135.014 97.766 131.663 96.549C128.592 95.433 124.909 97.078 123.522 99.98C122.907 101.268 122.701 102.619 122.51 104.021C122.427 104.626 122.295 105.751 122.252 106.102C122.226 106.311 122.1 107.14 122.031 107.604C121.624 110.335 121.206 113.065 120.776 115.793C119.821 121.863 118.922 127.976 117.571 133.974C116.894 136.983 121.52 138.267 122.2 135.25C123.267 130.51 124.018 125.691 124.794 120.897C125.602 115.91 126.504 110.905 127.071 105.884C127.192 104.813 127.308 103.706 127.606 102.667C127.828 101.892 128.043 101.413 129.013 101.117C131.315 100.414 131.76 103 131.712 104.553C131.546 109.953 130.937 115.368 130.246 120.722C129.425 127.075 128.396 133.495 126.523 139.633C125.62 142.594 130.251 143.861 131.152 140.91Z" fill="#211715"/>
<path d="M95.21 188.277C94.825 179.829 94.631 171.314 93.029 162.998C92.366 159.56 91.606 155.563 92.97 152.32C94.176 149.451 96.2879 146.614 98.1139 143.984C100.386 140.711 102.803 137.434 104.393 133.758C104.907 132.569 104.745 131.184 103.532 130.474C102.518 129.881 100.766 130.139 100.248 131.335C97.416 137.88 92.125 142.996 89.055 149.403C87.213 153.247 87.271 157.119 87.9 161.267C88.207 163.294 88.629 165.293 88.994 167.309C89.389 169.496 89.4799 171.704 89.6219 173.919C89.9279 178.702 90.1929 183.487 90.4109 188.275C90.5509 191.351 95.352 191.368 95.211 188.275L95.21 188.277Z" fill="#211715"/>
<path d="M123.223 181.756C121.631 178.235 120.096 174.627 119.18 170.861C118.408 167.685 118.707 164.34 119.576 161.201C120.556 157.661 122.688 154.802 124.79 151.852C127.135 148.561 129.321 145.206 130.913 141.478C131.421 140.287 131.269 138.906 130.052 138.194C129.043 137.604 127.28 137.856 126.768 139.055C125.057 143.063 122.649 146.633 120.121 150.161C117.794 153.409 115.719 156.686 114.767 160.619C113.849 164.411 113.627 168.333 114.551 172.136C115.563 176.299 117.318 180.286 119.077 184.177C119.611 185.358 121.325 185.644 122.361 185.038C123.576 184.327 123.758 182.94 123.222 181.754L123.223 181.756Z" fill="#211715"/>
<path d="M104.639 133.182C105.823 129.949 106.715 126.618 107.276 123.22C107.548 121.568 107.612 120.2 108.038 118.594C108.086 118.409 108.14 118.225 108.199 118.043C108.308 117.756 108.326 117.696 108.251 117.865C108.32 117.715 108.399 117.571 108.488 117.432C108.356 117.592 108.387 117.566 108.581 117.352C108.794 117.16 108.826 117.13 108.677 117.262C108.815 117.172 108.959 117.09 109.107 117.017C108.622 117.232 109.715 116.799 109.345 116.966C109.179 116.989 109.221 116.995 109.471 116.983C109.173 116.936 109.179 116.952 109.487 117.029C109.278 116.95 109.298 116.977 109.546 117.111C109.36 116.985 109.371 117.017 109.579 117.208C109.516 116.973 109.627 117.385 109.66 117.498C109.719 117.698 109.866 118.269 109.872 118.309C110.06 119.636 109.855 121.098 109.812 122.433C109.716 125.369 109.553 128.3 109.337 131.23C109.241 132.524 110.509 133.63 111.737 133.63C113.115 133.63 114.041 132.528 114.137 131.23C114.335 128.557 114.491 125.883 114.586 123.205C114.685 120.428 115.114 117.321 113.688 114.792C112.045 111.879 108.345 111.508 105.809 113.447C103.254 115.401 103.167 118.698 102.703 121.614C102.145 125.125 101.235 128.567 100.013 131.904C99.567 133.121 100.513 134.533 101.689 134.856C103.027 135.224 104.194 134.401 104.641 133.18L104.639 133.182Z" fill="#211715"/>
<path d="M167.332 186.444C167.384 203.417 166.359 220.642 162.294 237.175C160.498 244.477 158.027 251.682 154.008 258.08C152.064 261.175 149.749 264.134 146.96 266.517C144.586 268.545 141.671 269.934 138.692 270.811C132.619 272.599 125.918 272.467 119.917 270.45C113.651 268.344 108.689 263.963 105.465 258.245C102.579 253.126 100.772 247.341 99.055 241.702C97.088 235.244 95.449 228.687 93.98 222.099C91.717 211.954 89.799 201.705 88.356 191.409C88.33 191.223 88.212 190.357 88.27 190.788C88.325 191.198 88.22 190.4 88.197 190.221L86.435 192.535C99.542 189.842 112.634 187.066 125.78 184.567L122.828 182.891C126.229 194.35 129.824 205.749 133.088 217.248C133.93 220.215 138.563 218.954 137.717 215.972C134.453 204.473 130.858 193.073 127.457 181.615C127.066 180.298 125.803 179.692 124.505 179.939C111.359 182.438 98.267 185.214 85.16 187.907C84.241 188.096 83.274 189.241 83.398 190.221C84.64 200.029 86.454 209.789 88.501 219.457C89.959 226.341 91.59 233.195 93.535 239.959C95.327 246.19 97.313 252.483 100.116 258.345C103.125 264.637 107.885 270.058 114.173 273.213C120.585 276.431 127.917 277.439 134.999 276.474C142.389 275.468 148.843 272.132 153.734 266.48C159.092 260.288 162.618 252.787 165.083 245.031C167.698 236.804 169.206 228.242 170.286 219.691C171.408 210.8 171.943 201.839 172.093 192.881C172.129 190.735 172.141 188.589 172.134 186.442C172.125 183.354 167.325 183.348 167.334 186.442L167.332 186.444Z" fill="#211715"/>
</svg>
