<svg width="301" height="503" viewBox="0 0 301 503" fill="none" xmlns="http://www.w3.org/2000/svg">
<path d="M225.845 263.062C241.131 269.53 259.659 260.997 265.577 245.728C270.424 233.215 266.283 216.393 263.228 203.328C257.963 180.812 256.641 158.18 257.673 135.116C258.883 121.837 258.873 106.01 258.783 99.3792C258.474 76.3901 249.656 50.2273 235.653 35.156C230.076 29.1547 228.197 26.1576 222.655 22.4645C222.655 22.4645 219.446 20.3259 216.238 18.1891L209.794 15.129C197.816 9.44254 185.231 5.39799 167.082 4.34357C137.326 2.61244 109.951 16.4003 97.5433 26.9689C76.9603 44.5006 62.6111 77.8747 61.4361 124.979C59.5825 156.842 55.6341 179.669 51.2154 192.523C48.2078 201.317 45.2159 216.08 44.5969 225.157C43.7208 238.344 57.3827 257.519 80.6865 255.032L225.846 263.062H225.845Z" fill="#645D5C"/>
<path d="M84.656 121.094C84.7819 121.195 84.906 121.302 85.0284 121.41C86.4885 120.349 88.0623 119.203 89.5084 118.149C92.3639 116.07 94.7245 114.353 94.7245 114.353C109.572 103.581 125.689 89.9839 140.46 77.0721C139.578 82.0347 137.011 90.4561 136.375 95.6057C136.12 97.6761 136.52 98.421 138.053 99.2603C139.246 99.7744 141.042 99.6328 142.271 99.3111C163.151 93.8396 180.921 82.1029 194.618 65.6659C196.758 76.3954 199.893 89.7671 202.915 96.3734C210.389 112.714 223.862 126.897 236.307 131.5C238.882 129.316 242.21 128.641 245.006 128.913C251.089 129.506 253.478 132.965 254.475 134.971C257.449 140.956 256.647 151.598 254.001 158.047C252.126 162.615 249.089 169.593 242.514 174.323C239.806 176.273 235.925 177.427 232.335 176.588L231.388 176.366C229.999 180.097 228.347 183.734 227.366 185.49C224.869 191.157 213.482 208.542 199.01 218.892C199.068 222.739 198.96 224.262 199.325 229.253C199.493 231.552 199.671 234.035 200.523 236.279C201.665 239.227 203.202 241.781 205.673 243.775C210.906 247.991 216.283 250.005 222.909 252.497L228.957 254.879C211.544 263.924 185.198 271.81 160.327 271.872C137.242 271.963 106.975 263.999 90.7534 254.933L96.9418 252.497C103.566 250.005 108.944 247.991 114.178 243.775C116.649 241.781 118.186 239.227 119.328 236.279C120.179 234.035 120.357 231.552 120.525 229.253C120.856 224.736 120.798 223.061 120.824 219.934C113.097 215.538 106.3 208.958 99.9686 200.346C91.6259 188.999 87.2159 177.063 84.9795 167.259C81.0521 168.016 76.9603 166.32 74.3286 163.879C68.3903 158.372 66.2377 151.072 64.9438 146.307C63.1165 139.578 63.6358 128.92 67.3271 123.348C68.5634 121.48 71.363 118.345 77.4726 118.507C79.8438 118.57 82.5087 119.352 84.656 121.09V121.094Z" fill="white"/>
<path d="M227.338 175.25C224.544 182.662 220.698 189.41 215.993 195.77C210.376 203.361 203.476 210.859 195.508 216.229C190.995 219.27 186.163 221.604 180.763 222.508C178.527 222.882 177.277 225.647 177.833 227.67C178.485 230.041 180.751 230.977 182.995 230.601C193.88 228.777 203.398 221.669 211.104 214.124C217.888 207.481 223.996 199.829 228.838 191.65C231.491 187.17 233.6 182.342 235.432 177.481C236.231 175.36 234.544 172.881 232.502 172.319C230.146 171.672 228.142 173.122 227.34 175.25H227.338Z" fill="#211715"/>
<path d="M79.7929 162.506C81.6867 174.155 85.7732 185.527 91.8286 195.663C98.0502 206.082 106.395 215.862 116.732 222.375C122.01 225.701 127.908 228.067 134.007 229.361C139.276 230.478 141.528 222.389 136.238 221.267C123.033 218.464 112.672 210.116 104.588 199.563C95.7875 188.074 90.2024 174.526 87.8873 160.273C87.5236 158.035 84.7415 156.788 82.7254 157.342C80.3455 157.996 79.4292 160.259 79.7947 162.504L79.7929 162.506Z" fill="#211715"/>
<path d="M147.169 192.42C147.424 192.303 147.683 192.189 147.938 192.07C148.554 191.787 147.643 192.227 147.519 192.245C147.683 192.222 147.924 192.082 148.08 192.023C148.884 191.719 149.708 191.469 150.544 191.266C151.084 191.136 151.628 191.042 152.174 190.935C152.976 190.778 151.673 190.972 152.229 190.919C152.53 190.891 152.829 190.853 153.132 190.829C154.688 190.697 156.251 190.692 157.811 190.776C158.552 190.816 159.292 190.879 160.03 190.965C159.21 190.869 160.458 191.037 160.513 191.045C160.82 191.098 161.128 191.157 161.434 191.22C162.543 191.451 163.637 191.752 164.697 192.149C164.828 192.198 164.958 192.247 165.085 192.299C165.386 192.42 165.255 192.364 164.694 192.133C164.828 192.112 165.14 192.339 165.253 192.395C165.619 192.575 165.977 192.768 166.325 192.978C166.594 193.14 166.851 193.319 167.114 193.493C167.923 194.032 166.257 192.764 167.098 193.495C168.752 194.936 171.428 195.244 173.033 193.495C174.482 191.914 174.801 189.099 173.033 187.56C168.957 184.012 163.547 182.766 158.273 182.409C152.897 182.047 147.804 182.923 142.932 185.168C140.932 186.09 140.281 189.132 141.427 190.911C142.755 192.974 145.029 193.402 147.169 192.416V192.42Z" fill="#211715"/>
<path d="M154.926 153.252C154.204 155.501 153.536 157.778 153.013 160.083C152.808 160.98 152.597 161.919 152.661 162.842C152.798 164.792 153.628 166.425 155.298 167.498C156.475 168.256 157.748 168.6 159.124 168.729C159.957 168.808 160.806 168.619 161.623 168.504L160.507 168.654C160.628 168.638 160.749 168.625 160.871 168.614C161.999 168.523 163.017 168.207 163.838 167.385C164.566 166.657 165.115 165.463 165.068 164.417C165.019 163.331 164.662 162.207 163.838 161.45C163.055 160.731 161.971 160.133 160.871 160.221C160.278 160.268 159.692 160.369 159.103 160.451L160.219 160.301C159.81 160.355 159.411 160.375 159 160.319L160.116 160.469C159.836 160.42 159.572 160.343 159.306 160.24L160.308 160.663C160 160.528 159.703 160.375 159.432 160.177L160.282 160.833C160.219 160.782 160.163 160.724 160.112 160.661L160.768 161.511C160.696 161.41 160.644 161.317 160.591 161.203L161.014 162.205C160.972 162.086 160.943 161.975 160.92 161.85L161.07 162.966C161.03 162.653 161.044 162.35 161.083 162.037L160.932 163.153C161.137 161.817 161.539 160.492 161.906 159.192C162.258 157.949 162.625 156.711 163.018 155.482C163.69 153.391 162.233 150.808 160.088 150.32C157.792 149.797 155.644 151.014 154.926 153.252Z" fill="#211715"/>
<path d="M119.906 131.737C118.408 135.71 118.642 145.078 126.266 146.347C136.411 146.915 137.649 135.686 134.565 130.178C132.04 125.668 123.933 123.355 119.906 131.737Z" fill="#211715"/>
<path d="M201.114 136.779C202.109 140.905 200.719 150.171 192.997 150.488C182.86 149.797 183.019 138.499 186.761 133.416C189.825 129.254 198.155 127.96 201.114 136.779Z" fill="#211715"/>
<path d="M239.272 134.465C241.288 132.871 244.161 132.767 246.534 133.446C247.312 133.668 248.591 134.318 248.853 134.523C249.19 134.785 249.477 135.109 249.78 135.408C250.491 136.114 249.593 135.046 250.065 135.745C252.681 139.622 252.493 145.307 251.86 149.75C251.138 154.821 249.315 159.158 246.714 163.478C244.065 167.88 239.262 173.682 233.448 172.541C231.225 172.106 228.917 173.171 228.286 175.472C227.719 177.532 228.982 180.197 231.216 180.634C245.086 183.353 253.976 169.864 258.248 158.643C261.81 149.29 262.625 134.247 253.581 127.644C247.478 123.188 239.064 123.998 233.336 128.529C231.556 129.936 231.863 132.993 233.336 134.464C235.093 136.221 237.487 135.875 239.27 134.464L239.272 134.465Z" fill="#211715"/>
<path d="M88.751 119.184C83.9983 114.358 76.5037 112.99 70.2856 115.641C65.6011 117.638 62.8208 121.784 61.31 126.511C57.8809 137.24 60.051 149.827 65.5854 159.488C69.4341 166.206 75.9004 172.158 84.1469 171.585C86.4079 171.428 88.3437 169.768 88.3437 167.388C88.3437 165.239 86.4201 163.032 84.1469 163.192C77.7592 163.636 73.7007 157.629 71.3873 152.417C69.4743 148.106 68.2223 143.324 68.1244 138.606C68.0684 135.873 68.2677 133.154 68.9147 130.492C69.1735 129.427 69.4691 128.338 69.9132 127.334C70.2035 126.68 70.5812 126.081 70.9501 125.469C71.0463 125.309 71.6566 124.591 71.0498 125.299C72.3595 123.767 73.5381 122.977 75.7991 122.729C78.457 122.438 80.9417 123.216 82.8145 125.119C86.6107 128.975 92.5455 123.038 88.751 119.184Z" fill="#211715"/>
<path d="M190.755 67.7048C193.598 81.706 196.688 95.6862 204.399 107.914C211.745 119.562 222.08 130.564 235.189 135.544C237.308 136.349 239.791 134.652 240.351 132.614C241 130.253 239.547 128.259 237.42 127.452C226.053 123.133 217.002 112.539 210.869 102.422C204.114 91.2727 201.463 78.3574 198.848 65.4736C198.396 63.2511 195.763 61.9711 193.686 62.5429C191.374 63.1776 190.302 65.4771 190.755 67.7048Z" fill="#211715"/>
<path d="M191.579 62.7825C182.113 74.0453 170.583 83.257 157.238 89.5118C153.99 91.0331 150.652 92.3359 147.248 93.4602C145.462 94.0495 143.66 94.6056 141.841 95.0794C141.879 95.0689 139.783 95.4904 139.827 95.3977C139.979 95.0742 140.44 96.7721 140.503 96.8018C139.816 96.4783 142.049 88.6935 142.292 87.7073C143.069 84.544 143.917 81.3913 144.508 78.1843C145.272 74.0348 140.752 71.2545 137.494 74.1013C122.956 86.8015 108.231 99.3653 92.6087 110.726C90.7779 112.057 89.8773 114.374 91.1031 116.469C92.1592 118.275 95.0025 119.315 96.8456 117.974C113.048 106.192 128.352 93.2102 143.431 80.0378L136.417 75.9548C135.333 81.8354 133.4 87.5394 132.479 93.4515C131.944 96.884 131.981 100.121 135.081 102.319C138.088 104.452 141.785 103.821 145.102 102.889C158.184 99.2167 170.364 92.9601 181.073 84.6244C187.115 79.9224 192.595 74.5734 197.519 68.7138C198.975 66.9791 199.218 64.4786 197.519 62.779C196.022 61.2821 193.049 61.0356 191.584 62.779L191.579 62.7825Z" fill="#211715"/>
<path d="M253.474 135.118C252.436 158.984 254.111 182.78 259.559 206.07C263.434 222.632 268.832 245.011 251.897 256.288C244.418 261.268 235.308 262.441 226.958 259.016C224.86 258.156 222.345 259.95 221.796 261.947C221.135 264.354 222.622 266.245 224.727 267.109C242.626 274.453 264.038 263.634 270.069 245.599C273.541 235.215 271.837 223.596 269.717 213.123C267.329 201.313 264.384 189.736 263.053 177.726C261.488 163.58 261.247 149.329 261.864 135.118C262.098 129.716 253.705 129.728 253.471 135.118H253.474Z" fill="#211715"/>
<path d="M220.534 26.0895C223.34 27.9902 225.678 30.3176 227.931 32.8356C230.529 35.7401 233.273 38.5606 235.686 41.6242C240.365 47.5625 244.037 54.4625 246.824 61.4727C249.919 69.2541 252.126 77.3992 253.436 85.6701C254.534 92.6139 254.643 99.6084 254.618 106.62C254.583 116.126 254.319 125.647 253.476 135.118C253.275 137.379 255.55 139.314 257.673 139.314C260.11 139.314 261.667 137.384 261.87 135.118C262.66 126.249 262.936 117.336 263.003 108.435C263.059 100.873 262.924 93.3833 261.891 85.8782C259.582 69.1299 253.775 51.955 243.623 38.2861C240.757 34.4269 237.469 30.9471 234.278 27.3607C231.403 24.1293 228.368 21.2773 224.774 18.8432C220.289 15.8058 216.086 23.0748 220.537 26.0912L220.534 26.0895Z" fill="#211715"/>
<path d="M211.908 11.5077C197.027 4.47824 181.197 0.549094 164.714 0.043743C147.295 -0.491334 129.866 3.91519 114.239 11.4675C103.02 16.8882 92.862 24.1642 84.9897 33.8865C76.5211 44.345 70.4867 56.4612 66.2165 69.1859C60.203 87.1057 57.7375 106.143 57.2374 124.981C57.094 130.384 65.4874 130.38 65.6308 124.981C66.3827 96.6531 71.6915 66.465 88.5411 42.9618C95.0163 33.9302 103.231 26.976 112.99 21.557C126.495 14.0572 141.851 9.29568 157.309 8.51405C174.631 7.63624 192.031 11.3695 207.673 18.7575C209.72 19.7244 212.2 19.3275 213.415 17.2519C214.482 15.4263 213.968 12.4817 211.91 11.5094L211.908 11.5077Z" fill="#211715"/>
<path d="M57.2375 124.979C56.4716 137.971 55.3577 150.972 53.3818 163.842C52.0214 172.704 50.3637 181.619 47.5834 190.161C44.0931 200.88 41.6154 212.013 40.5557 223.25C39.7199 232.105 43.1209 240.479 48.8948 247.12C56.7793 256.187 68.8483 260.392 80.6847 259.229C82.9405 259.007 84.8814 257.46 84.8814 255.033C84.8814 252.934 82.9544 250.614 80.6847 250.836C71.3454 251.752 62.3225 249.092 55.8351 242.289C53.3836 239.718 51.1436 236.175 50.0647 233.161C48.6972 229.337 48.5679 227.112 48.9735 222.966C49.9895 212.583 52.4515 202.292 55.6742 192.392C58.2954 184.339 59.9059 175.953 61.2331 167.603C63.4765 153.49 64.788 139.239 65.6274 124.979C65.9456 119.583 57.5505 119.602 57.234 124.979H57.2375Z" fill="#211715"/>
<path d="M198.636 121.706C199.823 123.334 201.117 124.885 202.574 126.278C203.413 127.081 204.314 127.803 205.248 128.497C206.09 129.125 206.958 129.529 207.942 129.917C208.5 130.092 209.058 130.117 209.616 129.992C210.173 129.968 210.694 129.802 211.175 129.494C212.046 128.985 212.877 127.987 213.104 126.986C213.349 125.913 213.296 124.706 212.681 123.753L212.025 122.903C211.502 122.384 210.885 122.024 210.173 121.825C210.131 121.809 210.091 121.791 210.049 121.776L211.051 122.199C210.404 121.919 209.82 121.513 209.264 121.085L210.114 121.741C208.414 120.415 206.907 118.806 205.59 117.105L206.246 117.955C206.124 117.796 206.003 117.635 205.884 117.47C205.62 116.981 205.26 116.589 204.803 116.294C204.398 115.923 203.922 115.673 203.376 115.542C202.373 115.265 201.035 115.39 200.143 115.965C199.248 116.542 198.458 117.402 198.215 118.472C197.978 119.509 197.984 120.809 198.638 121.706H198.636Z" fill="#211715"/>
<path d="M116.621 220.887C116.608 223.064 116.579 225.238 116.449 227.411C116.295 229.999 116.25 232.745 115.281 235.186C113.354 240.04 108.984 242.712 104.457 244.92C98.7795 247.692 92.6296 249.708 86.749 252.023C84.6419 252.852 83.1713 254.833 83.8183 257.185C84.3709 259.193 86.8592 260.952 88.9802 260.116C96.0307 257.341 103.476 254.975 110.165 251.418C112.929 249.949 115.69 248.166 117.976 246.015C120.359 243.775 121.966 240.916 123.166 237.91C125.24 232.711 124.984 226.418 125.014 220.886C125.042 215.484 116.649 215.477 116.621 220.886V220.887Z" fill="#211715"/>
<path d="M194.831 220.887C194.861 226.42 194.605 232.713 196.679 237.912C197.879 240.919 199.486 243.777 201.869 246.017C204.156 248.166 206.916 249.949 209.68 251.42C216.369 254.975 223.814 257.341 230.865 260.117C232.973 260.948 235.472 259.206 236.027 257.187C236.681 254.805 235.213 252.857 233.096 252.025C227.214 249.71 221.064 247.694 215.388 244.922C210.876 242.72 206.468 240.04 204.564 235.187C203.602 232.738 203.55 230.008 203.396 227.413C203.266 225.24 203.235 223.066 203.224 220.889C203.196 215.489 194.803 215.477 194.831 220.887Z" fill="#211715"/>
<path d="M296.796 326.02C296.894 352.494 295.16 383.238 288.943 411.119C284.444 431.299 276.965 452.571 261.742 467.367C247.316 481.388 222.415 482.717 205.716 475.902C189.863 469.557 182.043 457.587 177.399 446.793C174.271 439.521 171.368 431.138 168.712 422.269C161.271 424.701 153.481 426.061 145.656 426.298L142.773 426.451C144.901 437.193 149.722 465.563 151.752 484.853C128.847 491.364 102.462 495.312 77.5022 497.36C56.545 499.08 34.8411 498.419 19.873 480.914C6.05187 464.75 4.4816 441.939 4.27702 421.616C4.08117 402.179 5.1146 382.706 6.54147 363.326C8.13796 341.654 16.9773 306.297 28.9955 288.192C41.6835 269.077 62.1633 262.734 83.659 255.723C86.1823 255.001 87.8662 254.52 87.8662 254.52C88.8087 254.251 89.4609 254.176 89.739 254.354C105.688 263.662 136.752 271.966 160.327 271.874C186.628 271.809 214.58 262.994 231.87 253.308C249.923 259.086 263.688 265.458 274.988 276.576C284.846 287.396 295.356 301.434 296.798 326.021" fill="#F8B8B4"/>
<path d="M171.151 430.053C170.315 427.513 169.502 424.913 168.712 422.27C161.27 424.699 153.48 426.06 145.656 426.296L142.761 426.383C144.541 435.359 148.234 456.839 150.577 474.939C159.808 474.851 169.023 474.694 178.237 474.552C181.937 474.495 188.162 473.302 194.903 469.936C186.015 463.415 180.837 454.781 177.399 446.791C175.203 441.687 173.119 436.034 171.153 430.053H171.151Z" fill="white"/>
<path d="M93.2714 248.077C68.6438 256.688 41.0629 262.723 25.5631 285.784C18.8781 295.73 14.622 307.437 11.1317 318.826C7.4037 330.991 4.67761 343.479 3.07937 356.103C1.12442 371.546 0.648801 387.342 0.243122 402.892C-0.14682 417.855 -0.337433 433.012 1.84659 447.86C3.83477 461.383 8.5438 474.69 17.8482 484.948C26.962 494.994 39.4821 499.995 52.7279 501.577C66.5157 503.224 80.6778 501.471 94.3887 499.886C110.399 498.036 126.36 495.496 142.037 491.727C145.665 490.855 149.276 489.91 152.868 488.896C154.487 488.438 156.141 486.661 155.949 484.85C154.611 472.253 152.723 459.708 150.682 447.209C149.308 438.788 148.063 430.263 146.106 421.952C145.726 420.338 143.812 418.665 142.06 418.871C116.867 421.826 91.5752 424.085 66.2919 426.093C64.0327 426.273 62.0952 427.894 62.0952 430.29C62.0952 432.421 64.0205 434.666 66.2919 434.486C91.5752 432.479 116.867 430.22 142.06 427.264L138.013 424.183C139.923 432.297 141.143 440.615 142.49 448.834C144.45 460.796 146.275 472.795 147.555 484.85L150.637 480.804C136.078 484.918 121.192 487.812 106.223 489.968C92.3218 491.97 78.1108 493.766 64.0467 493.796C52.1736 493.82 40.1396 491.92 30.2687 484.894C19.9885 477.577 14.253 465.704 11.457 453.709C8.4214 440.68 8.37593 427.09 8.45986 413.781C8.56303 397.23 9.46534 380.695 10.6754 364.194C11.5042 352.873 13.6777 341.67 16.514 330.688C19.4901 319.163 23.1763 307.61 28.6931 297.026C34.0806 286.691 41.8025 278.592 51.9253 272.792C62.6793 266.629 74.6678 263.081 86.3818 259.247C89.4314 258.248 92.4757 257.234 95.5043 256.174C97.6429 255.426 99.0645 253.303 98.435 251.012C97.865 248.937 95.4222 247.33 93.2731 248.082L93.2714 248.077Z" fill="#211715"/>
<path d="M53.3225 347.914C56.5889 375.266 59.8991 402.614 63.0326 429.982C63.2914 432.234 64.7759 434.178 67.2293 434.178C69.2979 434.178 71.6847 432.248 71.4259 429.982C68.2907 402.614 64.9823 375.267 61.7158 347.914C61.4465 345.663 59.9795 343.717 57.5192 343.717C55.4593 343.717 53.0515 345.648 53.3225 347.914Z" fill="#211715"/>
<path d="M226.901 251.222C209.822 260.051 190.416 265.489 171.281 267.17C152.803 268.792 134.311 265.975 116.585 260.754C108.057 258.241 99.5732 255.192 91.853 250.729C87.1685 248.021 82.9368 255.27 87.6161 257.977C94.8676 262.17 102.817 265.218 110.782 267.754C120.014 270.693 129.502 272.9 139.085 274.328C148.727 275.766 158.402 276.432 168.142 275.803C178.924 275.105 189.653 273.218 200.075 270.385C210.777 267.476 221.277 263.566 231.136 258.47C235.936 255.989 231.697 248.744 226.901 251.222Z" fill="#211715"/>
<path d="M150.678 479.134C158.892 479.053 167.103 478.922 175.316 478.794C182.405 478.684 188.746 477.268 195.254 474.4C197.328 473.486 197.81 470.455 196.76 468.658C195.509 466.519 193.1 466.234 191.017 467.152C188.057 468.458 184.907 469.424 181.723 470.008C179.151 470.48 176.351 470.385 173.646 470.427C165.991 470.546 158.335 470.667 150.678 470.74C145.28 470.793 145.266 479.186 150.678 479.134Z" fill="#211715"/>
<path d="M145.656 430.492C153.759 430.226 161.842 428.873 169.565 426.402C171.653 425.734 173.215 423.458 172.496 421.24C171.819 419.149 169.572 417.593 167.334 418.31C163.716 419.467 160.03 420.389 156.288 421.046C155.37 421.207 154.45 421.351 153.529 421.483C154.291 421.375 152.953 421.553 152.939 421.555C152.441 421.615 151.943 421.669 151.444 421.719C149.519 421.914 147.59 422.036 145.656 422.099C143.465 422.171 141.357 423.977 141.46 426.296C141.559 428.508 143.306 430.569 145.656 430.492Z" fill="#211715"/>
<path d="M300.993 326.019C299.934 309.177 294.327 293.848 283.9 280.585C279.429 274.897 274.453 269.999 268.576 265.752C262.225 261.161 255.214 257.669 247.994 254.679C238.606 250.79 228.842 247.877 219.077 245.106C213.872 243.628 211.651 251.724 216.846 253.2C232.117 257.535 247.779 262.109 261.202 270.849C272.064 277.92 280.639 288.183 286.198 299.829C290.101 308.003 292.03 317.016 292.598 326.021C292.74 328.284 294.425 330.218 296.795 330.218C298.956 330.218 301.135 328.294 300.991 326.021L300.993 326.019Z" fill="#211715"/>
<path d="M217.035 259.929C219.172 256.823 221.079 253.829 222.811 250.537C223.683 248.879 224.503 247.151 225.288 245.286C230.513 228.341 233.705 199.395 234.448 184.29C234.619 180.793 234.637 179.588 233.605 176.811C232.774 174.578 229.132 172.16 226.401 172.422C221.02 172.94 219.413 176.43 218.789 179.693C218.544 180.971 218.273 182.921 218.088 184.479L217.974 184.341C217.021 183.178 214.506 180.419 210.813 180.769C206.737 181.145 204.104 184.229 203.128 189.061C201.658 196.489 198.646 208.927 196.041 218.651C196.19 215.29 196.277 212.155 196.382 208.374C196.426 206.783 196.086 204.886 195.459 203.422C194.831 201.958 193.7 200.862 192.156 200.472C190.042 199.937 187.065 201.366 185.866 203.59C184.839 205.492 184.364 208.388 184.046 210.894C183.14 218.016 181.421 225.035 178.931 231.769C173.893 243.668 159.331 258.874 157.512 268.554C156.496 273.958 157.383 278.348 158.101 283.12C158.829 287.952 160.353 293.173 160.59 299.243C161.371 310.995 161.791 318.054 162.305 329.221C178.534 326.129 196.469 322.651 211.845 319.931C207.58 310.525 202.721 298.43 203.455 291.577C203.945 281.312 206.41 274.807 211.761 267.358C213.667 264.699 215.419 262.282 217.037 259.929H217.035Z" fill="white"/>
<path d="M200.657 217.617C202.853 209.264 204.94 200.869 206.716 192.416C207.022 190.956 207.4 188.784 207.841 187.793C207.996 187.44 208.194 187.106 208.39 186.775C208.479 186.625 208.975 185.96 208.634 186.375C208.891 186.062 209.213 185.735 209.533 185.483C209.005 185.901 209.969 185.263 210.058 185.217C209.379 185.565 211.509 184.885 210.815 184.969C211.642 184.871 212.091 184.953 212.616 185.191C213.118 185.418 213.541 185.777 213.739 185.96C214.193 186.383 214.611 186.835 215.008 187.312C216.459 189.055 219.443 188.812 220.943 187.312C222.669 185.586 222.398 183.124 220.943 181.377C217.937 177.764 213.489 175.885 208.818 176.853C204.037 177.845 200.823 181.924 199.47 186.404C198.151 190.769 197.497 195.422 196.447 199.864C195.219 205.055 193.923 210.229 192.566 215.388C191.192 220.616 199.286 222.847 200.661 217.619L200.657 217.617Z" fill="#211715"/>
<path d="M229.335 246.398C232.58 235.757 234.327 224.655 235.806 213.651C237.202 203.266 238.562 192.679 238.727 182.187C238.821 176.156 236.088 170.955 230.228 168.827C224.858 166.876 218.418 169.752 215.993 174.827C214.917 177.079 214.557 179.441 214.223 181.893C214.078 182.951 213.847 184.918 213.772 185.532C213.727 185.897 213.506 187.347 213.386 188.158C212.674 192.934 211.943 197.708 211.191 202.478C209.521 213.092 207.949 223.781 205.587 234.269C204.403 239.531 212.492 241.776 213.681 236.501C215.547 228.212 216.86 219.786 218.217 211.403C219.63 202.682 221.207 193.931 222.199 185.151C222.41 183.278 222.613 181.342 223.134 179.525C223.522 178.17 223.898 177.333 225.594 176.815C229.62 175.586 230.398 180.108 230.314 182.823C230.024 192.266 228.959 201.735 227.75 211.097C226.315 222.206 224.515 233.432 221.24 244.165C219.661 249.342 227.759 251.558 229.335 246.398Z" fill="#211715"/>
<path d="M166.486 329.225C165.813 314.452 165.473 299.563 162.672 285.021C161.513 279.009 160.184 272.02 162.569 266.349C164.678 261.333 168.371 256.372 171.564 251.773C175.537 246.05 179.763 240.32 182.543 233.892C183.442 231.813 183.159 229.391 181.038 228.149C179.265 227.112 176.201 227.563 175.295 229.655C170.343 241.099 161.091 250.045 155.723 261.249C152.502 267.97 152.603 274.741 153.703 281.994C154.24 285.539 154.978 289.034 155.616 292.56C156.307 296.384 156.466 300.245 156.714 304.118C157.25 312.482 157.713 320.849 158.094 329.221C158.339 334.6 166.734 334.63 166.488 329.221L166.486 329.225Z" fill="#211715"/>
<path d="M215.47 317.822C212.686 311.665 210.002 305.356 208.4 298.771C207.05 293.217 207.573 287.368 209.093 281.879C210.806 275.689 214.534 270.69 218.21 265.531C222.311 259.776 226.133 253.91 228.917 247.391C229.805 245.308 229.539 242.894 227.411 241.649C225.647 240.617 222.564 241.058 221.669 243.154C218.677 250.163 214.466 256.405 210.046 262.574C205.977 268.254 202.348 273.984 200.684 280.861C199.078 287.492 198.69 294.35 200.306 301C202.076 308.28 205.144 315.251 208.22 322.055C209.154 324.12 212.151 324.62 213.963 323.561C216.087 322.318 216.405 319.892 215.468 317.818L215.47 317.822Z" fill="#211715"/>
<path d="M182.974 232.885C185.044 227.231 186.604 221.407 187.585 215.465C188.061 212.576 188.172 210.184 188.917 207.376C189.001 207.052 189.096 206.73 189.199 206.412C189.389 205.91 189.421 205.805 189.29 206.101C189.41 205.839 189.549 205.587 189.704 205.344C189.473 205.624 189.528 205.578 189.867 205.204C190.239 204.868 190.295 204.816 190.035 205.047C190.276 204.889 190.528 204.746 190.787 204.618C189.939 204.994 191.85 204.237 191.203 204.529C190.913 204.569 190.986 204.58 191.423 204.559C190.902 204.477 190.913 204.504 191.451 204.639C191.086 204.501 191.121 204.548 191.554 204.783C191.229 204.562 191.248 204.618 191.612 204.952C191.502 204.541 191.696 205.262 191.754 205.459C191.857 205.809 192.114 206.807 192.124 206.877C192.453 209.198 192.095 211.754 192.019 214.089C191.852 219.223 191.566 224.348 191.189 229.471C191.021 231.734 193.238 233.668 195.386 233.668C197.795 233.668 199.414 231.741 199.582 229.471C199.928 224.797 200.201 220.121 200.367 215.439C200.54 210.583 201.291 205.15 198.797 200.727C195.924 195.634 189.454 194.985 185.02 198.376C180.552 201.792 180.4 207.558 179.589 212.657C178.613 218.796 177.022 224.815 174.885 230.65C174.105 232.778 175.759 235.247 177.815 235.812C180.155 236.455 182.196 235.016 182.977 232.881L182.974 232.885Z" fill="#211715"/>
<path d="M292.6 326.019C292.691 355.699 290.898 385.819 283.79 414.729C280.65 427.497 276.329 440.096 269.301 451.283C265.902 456.695 261.854 461.87 256.977 466.036C252.826 469.583 247.729 472.012 242.519 473.545C231.9 476.672 220.183 476.441 209.689 472.914C198.732 469.231 190.056 461.57 184.418 451.572C179.372 442.621 176.212 432.505 173.21 422.645C169.77 411.352 166.904 399.886 164.335 388.366C160.378 370.627 157.024 352.705 154.501 334.701C154.456 334.376 154.249 332.862 154.351 333.615C154.447 334.332 154.263 332.937 154.223 332.624L151.142 336.67C174.061 331.961 196.954 327.107 219.941 322.737L214.779 319.807C220.726 339.844 227.013 359.776 232.72 379.884C234.193 385.072 242.294 382.867 240.815 377.653C235.107 357.545 228.821 337.611 222.874 317.575C222.19 315.272 219.982 314.213 217.712 314.645C194.724 319.014 171.832 323.869 148.912 328.578C147.305 328.908 145.615 330.91 145.831 332.624C148.003 349.774 151.175 366.841 154.755 383.747C157.304 395.784 160.156 407.769 163.557 419.597C166.691 430.492 170.163 441.496 175.065 451.747C180.326 462.749 188.65 472.228 199.645 477.745C210.857 483.372 223.678 485.135 236.062 483.447C248.984 481.688 260.27 475.855 268.822 465.972C278.191 455.144 284.357 442.028 288.667 428.466C293.24 414.08 295.877 399.108 297.765 384.156C299.727 368.609 300.663 352.939 300.925 337.275C300.988 333.523 301.009 329.77 300.997 326.016C300.981 320.616 292.588 320.606 292.603 326.016L292.6 326.019Z" fill="#211715"/>
</svg>
