<svg width="380" height="279" viewBox="0 0 380 279" fill="none" xmlns="http://www.w3.org/2000/svg">
<path d="M345.461 162.165C361.381 172.447 382.29 191.063 371.918 213.754C367.463 223.503 359.556 231.414 351.484 237.571C343.328 243.667 334.537 248.676 325.297 252.49C306.393 260.51 286.294 265.07 266.237 267.974C249.671 270.371 232.979 271.36 216.295 272.29C207.923 272.758 199.542 273.216 191.159 273.361C183.291 273.498 175.377 272.914 167.521 272.496C150.896 271.613 134.226 270.722 117.696 268.517C97.6459 265.843 77.5652 261.573 58.5308 254.049C40.955 247.102 22.2587 236.618 11.2283 219.453C6.94788 212.791 4.19222 204.714 5.66175 196.623C7.06942 188.866 11.4427 182.293 16.4954 176.835C28.4285 163.945 44.4443 155.455 59.9385 148.972C63.3394 147.549 66.7739 146.23 70.2418 145.016C73.4803 143.882 72.0959 138.274 68.832 139.416C52.4019 145.168 35.9641 152.998 22.0046 164.214C9.41957 174.334 -2.86156 189.338 0.590193 207.756C2.44314 217.639 8.50028 226.088 15.0016 232.928C22.3777 240.484 30.7515 246.782 39.8412 251.607C58.8579 262.022 79.8181 267.836 100.702 271.653C117.942 274.605 135.314 276.536 152.744 277.437C169.797 278.517 186.786 279.493 203.863 278.726C221.185 277.943 238.597 277.132 255.846 275.127C276.373 272.741 296.925 268.942 316.608 261.997C335.878 255.198 355.511 245.143 369.13 228.223C376.444 219.141 381.604 207.872 379.543 195.517C377.665 184.242 370.173 174.92 362.323 167.872C357.853 163.903 353.11 160.317 348.137 157.146C345.191 155.243 342.519 160.261 345.461 162.16V162.165Z" fill="#211715"/>
<path d="M318.658 145.297C350.59 158.203 396.775 186.996 368.734 224.28C343.515 257.811 289.32 268.655 252.18 272.633C241.072 273.823 204.297 276.117 190.01 276.278C175.728 276.117 138.95 273.823 127.842 272.633C90.6973 268.655 36.5023 257.811 11.2837 224.28C-21.7853 180.311 48.3834 148.15 76.6505 139.93L318.658 145.297Z" fill="white"/>
<path d="M194.142 242.582C178.63 239.957 157.429 232.946 142.107 234.424C125.993 235.978 113.643 248.502 96.9786 248.783C79.9629 249.068 59.5463 238.924 55.2603 220.093C50.5335 199.33 74.2483 190.766 88.6509 192.393C106.303 194.392 118.095 203.147 132.239 214.06C135.3 216.545 139.92 216.6 143.444 216.832C159.686 217.883 176.43 218.76 192.52 218.829C209.903 218.904 228.825 218.91 246.153 219.03C259.313 219.121 284.626 215.312 280.157 238.156C276.4 257.379 257.727 255.713 242.731 253.12C225.707 250.181 194.412 242.628 194.142 242.582Z" fill="#CFCFCF"/>
<path d="M194.847 239.783C185.253 238.141 175.82 235.534 166.262 233.662C156.918 231.832 147.17 230.287 137.73 232.172C128.506 234.013 120.273 239.139 111.532 242.588C107.161 244.433 102.559 245.535 97.8837 245.854C93.9362 246.011 89.9866 245.612 86.1318 244.668C78.5001 242.832 70.9944 239.144 65.3329 233.149C62.6829 230.4 60.5524 227.107 59.0625 223.459C58.2779 221.489 57.7322 219.415 57.4393 217.289C57.3484 216.499 57.3019 215.702 57.3001 214.905C57.3007 214.126 57.3487 213.348 57.4438 212.577C57.9237 209.51 59.252 206.678 61.2491 204.464C63.4194 202.076 65.9869 200.164 68.8133 198.833C74.6188 195.988 80.9701 194.735 87.3174 195.183C96.4097 195.8 105.269 199.24 113.207 204C117.373 206.498 121.359 209.343 125.276 212.28C127.271 213.777 129.209 215.387 131.234 216.832C133.348 218.208 135.717 219.048 138.167 219.288C143.507 220.056 148.988 220.104 154.364 220.413C160.173 220.747 165.983 221.029 171.794 221.259C183.344 221.709 194.894 221.751 206.45 221.783C217.903 221.816 229.355 221.857 240.807 221.904C247.368 221.94 253.955 221.574 260.51 221.803C263.344 221.82 266.168 222.165 268.937 222.832C269.589 222.998 270.237 223.186 270.876 223.408C271.185 223.514 271.493 223.628 271.798 223.751C271.949 223.811 272.098 223.872 272.248 223.938C272.713 224.132 272.105 223.859 272.377 223.997C272.903 224.255 273.415 224.544 273.913 224.861C274.172 225.027 274.42 225.209 274.671 225.388C275.284 225.828 274.646 225.28 275.183 225.817C275.588 226.223 275.965 226.64 276.332 227.086C276.734 227.576 276.269 226.879 276.575 227.449C276.743 227.764 276.931 228.062 277.088 228.384C277.154 228.52 277.502 229.38 277.298 228.821C277.415 229.139 277.519 229.466 277.606 229.795C277.693 230.124 277.777 230.484 277.845 230.834C277.879 231.014 277.909 231.197 277.936 231.378C278.018 231.907 277.936 231.267 277.959 231.601C278.247 235.298 277.602 239.011 276.094 242.335C273.166 248.691 267.226 251.128 260.979 251.635C253.797 252.218 246.748 250.967 239.747 249.655C225.705 247.022 211.754 243.772 197.831 240.483C196.837 240.248 195.842 239.976 194.848 239.779C194.17 239.595 193.454 239.703 192.848 240.081C192.241 240.458 191.789 241.076 191.586 241.806C191.405 242.549 191.498 243.339 191.845 244.007C192.191 244.675 192.763 245.167 193.438 245.377C197.359 246.154 201.25 247.221 205.15 248.121C213.093 249.955 221.046 251.741 229.016 253.4C236.616 255.143 244.294 256.448 252.018 257.309C259.216 257.96 267.251 257.773 273.616 253.559C280.183 249.205 283.81 240.348 283.293 232.047C283.154 228.6 281.946 225.307 279.868 222.713C277.839 220.439 275.307 218.779 272.519 217.893C266.589 215.764 260.033 215.857 253.866 215.988C244.916 216.178 235.966 216.07 227.007 216.04C203.041 215.958 179.109 216.01 155.167 214.65C149.745 214.343 144.183 214.349 138.798 213.571C136.484 213.227 134.291 212.23 132.435 210.679C130.336 209.066 128.237 207.462 126.113 205.897C118.041 199.955 109.497 194.661 100.067 191.797C92.1828 189.215 83.8504 188.725 75.7588 190.368C68.9636 191.869 61.8524 195.085 57.1112 200.808C51.8639 207.143 50.8684 215.58 53.4329 223.532C56.2947 232.41 62.4844 239.364 69.8453 244.013C77.3765 248.696 85.8294 251.318 94.4849 251.655C104.523 252.072 113.593 248.1 122.647 243.854C126.962 241.708 131.422 239.928 135.987 238.532C140.474 237.343 145.099 236.899 149.706 237.215C159.835 237.732 169.816 240.259 179.703 242.521C184.263 243.564 188.826 244.6 193.429 245.386C194.106 245.567 194.821 245.458 195.427 245.081C196.034 244.704 196.486 244.088 196.691 243.358C196.874 242.617 196.783 241.826 196.438 241.157C196.093 240.488 195.521 239.994 194.847 239.783Z" fill="#211715"/>
<path d="M70.0795 228.898C72.4797 232.077 75.3955 234.742 78.6801 236.761C82.1425 238.739 85.953 239.878 89.853 240.101C90.5563 240.101 91.2308 239.795 91.7281 239.251C92.2254 238.706 92.5048 237.968 92.5048 237.198C92.5048 236.428 92.2254 235.689 91.7281 235.145C91.2308 234.6 90.5563 234.295 89.853 234.295C86.8087 234.079 83.8395 233.167 81.1375 231.616C80.4431 231.197 79.7686 230.739 79.1166 230.245C78.9788 230.14 78.8411 230.033 78.7033 229.924C78.7188 229.936 78.1586 229.479 78.3608 229.65C78.5818 229.836 78.0702 229.394 78.0293 229.354C77.8621 229.204 77.6971 229.053 77.5343 228.9C76.206 227.635 74.9685 226.26 73.8329 224.787C73.3326 224.248 72.6592 223.947 71.9578 223.947C71.2564 223.947 70.583 224.248 70.0828 224.787C69.5981 225.338 69.3274 226.074 69.3274 226.84C69.3274 227.605 69.5981 228.341 70.0828 228.892L70.0795 228.898Z" fill="#211715"/>
<path d="M98.5134 239.895C99.9449 239.948 101.376 239.765 102.757 239.352C103.959 239.043 105.137 238.634 106.281 238.127C106.936 237.902 107.498 237.431 107.865 236.796C108.22 236.131 108.319 235.34 108.141 234.595C107.963 233.85 107.521 233.213 106.914 232.825C106.611 232.624 106.272 232.494 105.921 232.444C105.569 232.394 105.212 232.424 104.871 232.532C103.191 233.291 101.432 233.819 99.6338 234.105L100.339 234.001C99.7363 234.096 99.1266 234.124 98.5189 234.085C97.9935 234.084 97.4795 234.253 97.0422 234.572C96.605 234.891 96.2641 235.345 96.0628 235.876C95.8616 236.408 95.809 236.993 95.9119 237.557C96.0148 238.121 96.2684 238.639 96.6406 239.045C97.1547 239.563 97.8207 239.863 98.5189 239.892L98.5134 239.895Z" fill="#211715"/>
<path d="M244.613 246.143C248.738 246.974 252.92 247.413 257.114 247.457C260.63 247.417 264.421 246.963 267.484 244.916C270.393 242.974 267.731 237.95 264.806 239.902C264.527 240.09 264.24 240.252 263.951 240.42C263.67 240.561 263.648 240.575 263.886 240.464C263.724 240.534 263.561 240.6 263.396 240.663C262.694 240.926 261.976 241.132 261.246 241.28C259.771 241.55 258.275 241.674 256.779 241.652C253.173 241.606 249.576 241.237 246.025 240.547C245.348 240.365 244.632 240.474 244.026 240.851C243.419 241.228 242.967 241.845 242.762 242.575C242.581 243.317 242.674 244.108 243.02 244.776C243.367 245.444 243.94 245.936 244.615 246.145L244.613 246.143Z" fill="#211715"/>
<path d="M98.089 184.804C75.425 149.583 67.5315 104.763 66.6531 62.3993C66.5525 57.5607 66.5713 52.6181 67.9447 48.0142C70.3479 39.958 79.4127 32.3009 86.1526 28.1325C103.068 17.6703 133.484 7.39674 160.149 4.68109C170.52 3.62507 180.421 3.00573 190.104 2.84848C199.79 3.00573 209.69 3.62507 220.06 4.68109C239.239 6.44041 258.079 11.2691 275.978 19.013C288.205 24.3838 304.139 31.6731 310.518 45.1655C314.118 52.7862 314.287 61.786 313.466 70.314C308.763 119.17 300.622 171.775 264.795 205.81L98.089 184.804Z" fill="white"/>
<path d="M106.535 65.8153C104.384 64.8075 102.292 63.6562 100.27 62.3678C111.529 44.7675 154.071 41.6938 171.322 40.8011C190.636 39.8007 213.348 39.9882 235.938 43.5252C244.968 44.9381 278.348 54.1217 280.364 66.7504C262.443 74.4198 243.613 79.2463 224.445 81.0834C214.469 82.0995 204.484 82.6136 194.49 82.6257C184.506 82.5975 174.521 82.0834 164.534 81.0834C145.366 79.2484 126.535 74.4235 108.613 66.7552C107.993 66.4939 107.288 66.1722 106.535 65.8153Z" fill="#957F6E"/>
<path d="M360.734 114.396C357.689 135.422 341.307 152.899 325.752 163.113C315.808 169.645 282.321 188.97 279.524 190.098C279.524 190.098 278.913 190.34 277.903 190.758C287.003 178.232 294.017 163.578 299.327 147.993L300.302 147.547C311.502 142.467 325.231 133.705 330.113 120.469C334.66 108.147 322.048 93.5887 309.907 103.877C311.343 94.6714 312.338 85.5095 312.967 76.6199L313.845 76.367C324.463 73.3078 336.756 73.3175 346.162 78.4162C354.27 82.812 360.232 90.9904 361.128 104.245C361.356 107.634 361.223 111.04 360.734 114.396Z" fill="white"/>
<path d="M93.2915 45.9771C92.2345 46.8496 91.3837 47.9865 90.8105 49.2928C90.2372 50.5991 89.9582 52.0368 89.9967 53.4854C90.3634 56.2873 91.6618 58.8424 93.6429 60.661C97.5377 64.6432 102.586 67.2149 107.48 69.3705C123.333 76.2161 139.92 80.8185 156.839 83.066C174.566 85.4525 192.451 86.1304 210.287 85.0922C227.717 84.1547 245.069 81.7185 261.906 76.5824C266.547 75.1655 271.138 73.5635 275.679 71.7764C279.18 70.5515 282.584 69.0141 285.856 67.1798C288.623 65.6674 290.827 63.1523 292.091 60.0622C293.461 56.2567 292.288 52.1766 290.459 48.8246C288.711 45.6203 284.124 48.5368 285.88 51.7556C286.619 52.9981 287.127 54.3879 287.375 55.8454C287.51 56.8117 287.334 57.7993 286.876 58.6385C285.768 60.4164 284.211 61.8033 282.396 62.6303C279.758 64.0029 277.044 65.1915 274.269 66.1891C270.539 67.6503 266.772 68.991 262.97 70.2112C247.566 75.0066 231.728 77.9346 215.739 78.9424C183.206 81.283 149.716 79.102 118.64 67.6709C112.232 65.3157 106.541 63.2194 100.88 59.3752C99.8083 58.6718 98.7906 57.874 97.8372 56.9897C96.9776 56.2375 96.2448 55.3266 95.6715 54.2983C95.5693 54.1066 95.4764 53.9091 95.3931 53.7068C95.6207 54.2801 95.3146 53.3197 95.2826 53.1999C95.1047 52.4137 95.329 53.7963 95.2693 52.9967C95.2664 52.8328 95.2712 52.6689 95.2837 52.5056C95.2395 52.8282 95.2373 52.8798 95.2771 52.6604C95.3279 52.4524 95.3721 52.2455 95.4417 52.0411C95.2627 52.5685 95.6892 51.6008 95.7577 51.4907C96.1401 50.9736 96.5707 50.5017 97.0427 50.0827C97.5344 49.535 97.8099 48.7978 97.8099 48.0299C97.8099 47.262 97.5344 46.5248 97.0427 45.9771C96.5386 45.4471 95.8667 45.1511 95.1677 45.1511C94.4687 45.1511 93.7957 45.4471 93.2915 45.9771Z" fill="#211715"/>
<path d="M100.378 183.346C90.0688 166.925 82.4041 148.692 77.7166 129.439C72.9867 110.159 70.2492 90.3576 69.5557 70.4083C69.2107 65.2297 69.1649 60.0324 69.4187 54.8475C69.6539 50.4093 71.1706 46.1676 73.75 42.7341C78.7431 36.1318 85.5383 31.5038 92.4816 27.7635C108.232 19.2863 125.588 13.8804 142.785 10.3144C152.429 8.41088 162.171 7.15655 171.955 6.55846C182.11 5.7965 192.297 5.67534 202.465 6.19557C222.912 7.31086 243.214 10.0604 262.78 16.8973C271.005 19.7374 279.039 23.2047 286.822 27.2736C293.731 30.9219 300.676 35.3782 305.527 42.0313C311.155 49.7573 311.714 59.7973 310.902 69.2652C310.142 78.1464 309.122 87.0228 307.929 95.8459C305.506 113.76 302.097 131.615 296.391 148.648C290.813 165.305 282.815 181.117 271.834 194.252C269.026 197.602 266.047 200.777 262.913 203.761C260.335 206.219 264.099 210.312 266.664 207.866C279.521 195.382 289.789 180.032 296.78 162.845C303.843 145.87 308.242 127.765 311.255 109.445C312.786 100.14 313.973 90.7703 314.993 81.381C316.077 71.4135 317.592 61.1316 315.382 51.2161C311.205 32.4739 293.568 23.7052 278.719 17.1041C259.438 8.68736 239.119 3.46477 218.431 1.6086C207.917 0.423793 197.351 -0.107287 186.783 0.0179168C176.278 0.300974 165.719 0.962649 155.285 2.35132C136.392 4.83516 117.875 10.0023 100.202 17.7223C92.8816 20.9448 85.5416 24.5495 79.1199 29.6276C75.4567 32.402 72.1686 35.7273 69.3524 39.5055C66.4658 43.5234 64.6913 48.3626 64.2389 53.4503C63.8468 58.7568 63.8376 64.089 64.2112 69.3971C64.416 74.6026 64.7339 79.8004 65.1648 84.9906C66.0069 95.289 67.3688 105.529 69.2441 115.662C73.013 135.79 79.1342 155.541 88.4012 173.46C90.6758 177.86 93.1435 182.13 95.8041 186.27C96.1716 186.92 96.7529 187.39 97.4279 187.584C98.1029 187.778 98.8202 187.68 99.4315 187.312C100.034 186.919 100.472 186.282 100.65 185.539C100.828 184.796 100.732 184.006 100.383 183.34L100.378 183.346Z" fill="#211715"/>
<path d="M102.694 63.6258C102.765 63.5206 102.836 63.4142 102.907 63.3089C103.157 62.946 102.672 63.6258 102.939 63.2726C103.095 63.067 103.251 62.8614 103.412 62.6606C103.795 62.1823 104.197 61.7227 104.616 61.2816C105.355 60.4863 106.148 59.7531 106.988 59.0885C109.097 57.4499 111.344 56.0355 113.699 54.8644C119.036 52.2999 124.602 50.3472 130.306 49.0375C141.762 46.3585 153.398 44.6999 165.099 44.078C181.045 42.9376 197.04 42.879 212.992 43.9026C221.136 44.3063 229.25 45.2414 237.292 46.7029C241.94 47.6637 246.538 48.8997 251.064 50.4056C256.495 52.0932 261.785 54.2828 266.877 56.951C269.184 58.1762 271.39 59.6157 273.472 61.2537C273.604 61.3468 273.729 61.4524 273.844 61.5695C274.036 61.7412 274.227 61.913 274.413 62.0908C274.831 62.4864 275.236 62.8976 275.62 63.3307C275.956 63.7081 276.275 64.102 276.577 64.5125C276.766 64.7702 276.502 64.4121 276.485 64.3916C276.566 64.5125 276.652 64.6335 276.725 64.7629C276.852 64.9831 276.985 65.196 277.104 65.421C277.223 65.646 277.318 65.8649 277.429 66.0851C277.669 66.5689 277.309 65.6496 277.463 66.1613C277.605 66.6083 277.72 67.0654 277.806 67.5294C277.998 68.268 278.448 68.8942 279.058 69.2734C279.669 69.6526 280.39 69.7543 281.068 69.5567C281.738 69.338 282.305 68.8441 282.65 68.1784C282.996 67.5127 283.092 66.7266 282.92 65.9847C282.046 60.9199 277.782 57.251 274.035 54.6672C268.972 51.3607 263.58 48.7007 257.965 46.7392C252.762 44.7799 247.461 43.149 242.087 41.8547C235.407 40.3821 228.65 39.3721 221.854 38.8306C204.073 37.168 186.206 36.9101 168.391 38.0588C156.457 38.6231 144.575 40.1148 132.834 42.5224C126.623 43.7782 120.532 45.6607 114.638 48.146C109.556 50.3766 104.504 53.1818 100.592 57.4603C99.6891 58.4649 98.8594 59.5447 98.1099 60.69C97.7601 61.3561 97.6637 62.1461 97.8418 62.8892C98.0198 63.6324 98.4579 64.269 99.0612 64.6613C99.6721 65.0328 100.39 65.1319 101.066 64.9379C101.742 64.7439 102.324 64.2717 102.69 63.6198L102.694 63.6258Z" fill="#211715"/>
<path d="M314.55 79.1686C324.765 76.2582 336.722 75.9763 346.029 81.6169C350.651 84.3403 354.284 88.7123 356.324 94.0073C358.745 100.855 359.282 108.328 357.871 115.506C354.941 131.418 344.511 144.7 332.973 154.278C324.197 161.563 314.155 167.024 304.48 172.706C296.13 177.609 287.795 182.683 279.218 187.1C279.029 187.197 278.838 187.288 278.651 187.387C278.084 187.686 279.304 187.108 278.822 187.306C278.155 187.529 277.591 188.023 277.246 188.687C276.902 189.352 276.803 190.135 276.971 190.877C277.162 191.616 277.611 192.244 278.221 192.623C278.832 193.003 279.554 193.104 280.232 192.905C283.187 191.545 286.068 190 288.862 188.28C293.953 185.407 299.024 182.49 304.075 179.529C309.327 176.461 314.572 173.368 319.772 170.204C324.573 167.393 329.221 164.28 333.694 160.88C346.4 150.887 358.014 137.196 362.277 120.327C365.981 105.665 363.577 88.3776 351.907 78.8649C342.211 70.9623 328.887 70.2112 317.398 72.5349C315.971 72.824 314.554 73.1736 313.149 73.574C309.848 74.5151 311.248 80.1169 314.559 79.1734L314.55 79.1686Z" fill="#211715"/>
<path d="M311.247 106.386C314.574 103.634 318.66 102.257 322.379 104.315C323.947 105.215 325.3 106.504 326.331 108.079C327.362 109.655 328.041 111.472 328.316 113.387C328.953 118.088 326.579 122.595 324.042 126.239C321.093 130.305 317.555 133.815 313.571 136.629C309.166 139.828 304.486 142.547 299.597 144.746C298.931 144.972 298.369 145.467 298.025 146.13C297.681 146.793 297.581 147.575 297.745 148.317C297.935 149.057 298.385 149.684 298.995 150.064C299.606 150.444 300.329 150.544 301.007 150.344C311.349 145.626 321.63 139.289 328.503 129.343C331.729 124.675 334.27 119.012 333.575 113.022C333.27 110.305 332.409 107.699 331.057 105.397C329.705 103.095 327.896 101.156 325.766 99.7253C320.241 96.1121 313.572 97.231 308.57 101.367C307.979 101.772 307.552 102.408 307.375 103.147C307.198 103.885 307.285 104.669 307.618 105.339C307.977 106 308.558 106.48 309.237 106.675C309.917 106.87 310.638 106.764 311.247 106.381V106.386Z" fill="#211715"/>
<path d="M87.2065 120.152C87.2065 120.152 117.457 143.65 188.919 145.981C260.381 148.312 291.098 126.802 291.098 126.802" stroke="white"/>
<g filter="url(#filter0_d_29_100)">
<path d="M100.883 143.426C101.436 143.649 102.12 143.899 102.934 144.175C103.759 144.4 104.537 144.587 105.269 144.737C107.045 145.103 108.718 145.175 110.288 144.954C111.91 144.743 113.357 144.197 114.628 143.315C115.95 142.444 117.076 141.205 118.006 139.6C118.998 137.953 119.747 135.902 120.253 133.446C121.22 128.745 120.849 124.993 119.139 122.191C117.439 119.336 114.761 117.533 111.105 116.78C110.373 116.629 109.61 116.5 108.816 116.391C108.074 116.292 107.3 116.215 106.495 116.158L100.883 143.426ZM102.916 155.77C102.028 155.587 101.015 155.351 99.8764 155.062C98.738 154.774 97.558 154.422 96.3365 154.007C95.1673 153.603 93.9827 153.141 92.7827 152.622C91.6243 152.166 90.5656 151.621 89.6069 150.988C86.9596 149.3 85.9155 147.098 86.4746 144.381L94.0062 107.788C94.232 106.691 94.6913 105.915 95.3842 105.458C96.1401 104.96 97.078 104.636 98.1981 104.486C100.595 104.217 103.068 104.236 105.619 104.543C108.18 104.798 110.453 105.129 112.438 105.538C116.513 106.377 120.094 107.631 123.18 109.301C126.319 110.981 128.849 113.108 130.77 115.682C132.753 118.214 134.076 121.181 134.736 124.584C135.397 127.987 135.287 131.831 134.405 136.114C133.545 140.293 132.166 143.821 130.267 146.697C128.379 149.521 126.039 151.762 123.247 153.42C120.519 155.037 117.428 156.034 113.974 156.412C110.52 156.79 106.834 156.576 102.916 155.77Z" fill="#795944"/>
</g>
<g filter="url(#filter1_d_29_100)">
<path d="M157.918 168.442C154.798 168.029 151.947 167.22 149.362 166.017C146.838 164.768 144.686 163.138 142.909 161.127C141.183 159.123 139.914 156.722 139.102 153.925C138.342 151.134 138.196 147.967 138.666 144.425C139.128 140.936 140.079 138.022 141.518 135.684C143.018 133.3 144.798 131.438 146.858 130.097C148.926 128.703 151.199 127.794 153.676 127.369C156.16 126.891 158.645 126.817 161.13 127.146C163.932 127.517 166.414 128.276 168.575 129.424C170.789 130.578 172.618 132.004 174.061 133.701C175.556 135.406 176.617 137.349 177.243 139.53C177.921 141.718 178.099 144.028 177.777 146.46C177.539 148.258 176.855 149.566 175.724 150.384C174.593 151.203 173.112 151.625 171.279 151.651L151.301 151.99C151.652 153.812 152.666 155.291 154.345 156.428C156.03 157.513 158.036 158.209 160.363 158.517C162.53 158.804 164.601 158.81 166.574 158.533C168.608 158.211 170.281 157.76 171.595 157.181C172.371 157.822 172.987 158.656 173.442 159.685C173.898 160.714 174.056 161.757 173.916 162.814C173.6 165.194 172.255 166.818 169.881 167.687C168.07 168.361 166.086 168.717 163.929 168.754C161.772 168.791 159.768 168.687 157.918 168.442ZM159.827 136.98C158.558 136.812 157.42 136.876 156.412 137.173C155.457 137.477 154.643 137.934 153.971 138.544C153.305 139.102 152.757 139.782 152.328 140.586C151.959 141.344 151.691 142.143 151.527 142.982L165.382 142.558C165.364 141.48 164.922 140.345 164.058 139.155C163.193 137.964 161.783 137.239 159.827 136.98Z" fill="#795944"/>
</g>
<g filter="url(#filter2_d_29_100)">
<path d="M206.358 140.275C205.024 140.28 203.745 140.498 202.52 140.93C201.348 141.361 200.311 142.004 199.407 142.861C198.557 143.664 197.867 144.68 197.338 145.909C196.81 147.137 196.548 148.578 196.554 150.232C196.566 153.538 197.509 156.015 199.382 157.661C201.308 159.308 203.631 160.126 206.351 160.116C207.951 160.11 209.337 159.918 210.509 159.54C211.681 159.163 212.719 158.759 213.624 158.329C214.694 159.072 215.497 159.895 216.033 160.8C216.57 161.651 216.84 162.69 216.845 163.917C216.853 166.104 215.819 167.814 213.744 169.049C211.668 170.23 208.79 170.827 205.11 170.84C201.75 170.853 198.708 170.384 195.985 169.434C193.261 168.43 190.909 167.052 188.93 165.3C187.003 163.493 185.502 161.339 184.426 158.836C183.35 156.333 182.806 153.562 182.795 150.522C182.782 147.002 183.331 143.933 184.441 141.316C185.605 138.645 187.17 136.453 189.137 134.739C191.104 133.025 193.366 131.737 195.923 130.874C198.533 130.011 201.278 129.574 204.158 129.563C207.998 129.549 210.961 130.232 213.046 131.611C215.131 132.99 216.178 134.773 216.186 136.959C216.189 137.973 215.953 138.934 215.476 139.842C214.999 140.697 214.442 141.446 213.804 142.088C212.896 141.665 211.801 141.269 210.52 140.9C209.239 140.478 207.851 140.27 206.358 140.275Z" fill="#795944"/>
</g>
<g filter="url(#filter3_d_29_100)">
<path d="M243.887 157.701C244.781 157.552 245.741 157.312 246.767 156.979C247.837 156.584 248.609 156.186 249.082 155.783L248.032 149.469L242.429 150.888C240.973 151.238 239.816 151.755 238.956 152.439C238.097 153.122 237.755 153.99 237.93 155.042C238.105 156.095 238.644 156.897 239.547 157.45C240.493 157.941 241.94 158.025 243.887 157.701ZM238.097 126.792C240.938 126.32 243.564 126.18 245.975 126.374C248.438 126.559 250.586 127.121 252.419 128.059C254.295 128.937 255.833 130.222 257.034 131.914C258.226 133.554 259.027 135.611 259.439 138.083L262.379 155.761C262.606 157.128 262.4 158.325 261.76 159.351C261.163 160.315 260.391 161.2 259.444 162.007C256.366 164.627 251.722 166.454 245.514 167.487C242.726 167.95 240.157 168.107 237.807 167.958C235.51 167.799 233.458 167.329 231.652 166.548C229.899 165.759 228.44 164.623 227.274 163.141C226.161 161.65 225.425 159.826 225.066 157.669C224.462 154.039 225.077 151.071 226.91 148.765C228.744 146.46 231.883 144.694 236.329 143.468L246.483 140.644L246.391 140.091C246.137 138.566 245.274 137.601 243.801 137.197C242.372 136.732 240.395 136.71 237.87 137.13C235.87 137.462 233.959 137.996 232.135 138.732C230.311 139.468 228.689 140.279 227.268 141.164C226.505 140.804 225.808 140.19 225.177 139.322C224.538 138.401 224.13 137.414 223.955 136.362C223.728 134.994 223.864 133.863 224.364 132.969C224.908 132.014 225.816 131.133 227.087 130.327C228.517 129.494 230.236 128.776 232.244 128.171C234.304 127.558 236.255 127.098 238.097 126.792Z" fill="#795944"/>
</g>
<g filter="url(#filter4_d_29_100)">
<path d="M264.03 120.911C263.288 118.294 263.091 115.938 263.44 113.844C263.825 111.683 264.62 109.795 265.824 108.178C267.014 106.51 268.555 105.103 270.448 103.956C272.391 102.795 274.543 101.88 276.904 101.211C280.7 100.134 283.642 99.8538 285.729 100.371C287.802 100.836 289.18 102.275 289.864 104.686C290.155 105.713 290.186 106.702 289.957 107.654C289.779 108.591 289.492 109.338 289.095 109.894C288.048 109.914 286.963 109.999 285.842 110.151C284.758 110.237 283.523 110.476 282.137 110.869C279.931 111.495 278.321 112.367 277.308 113.486C276.281 114.554 276.029 116.011 276.553 117.858L277.251 120.321L289.873 116.741C290.341 117.218 290.827 117.857 291.331 118.656C291.872 119.39 292.288 120.27 292.579 121.296C293.088 123.092 293.049 124.516 292.46 125.57C291.909 126.558 290.966 127.241 289.632 127.62L280.781 130.13L287.701 154.528C287.232 154.827 286.454 155.214 285.369 155.688C284.335 156.147 283.228 156.545 282.048 156.879C280.919 157.199 279.871 157.414 278.904 157.522C277.988 157.615 277.157 157.518 276.41 157.231C275.664 156.944 275.002 156.466 274.424 155.799C273.883 155.065 273.431 154.057 273.067 152.774L264.03 120.911Z" fill="#795944"/>
</g>
<defs>
<filter id="filter0_d_29_100" x="80.894" y="101.99" width="62.656" height="67.1987" filterUnits="userSpaceOnUse" color-interpolation-filters="sRGB">
<feFlood flood-opacity="0" result="BackgroundImageFix"/>
<feColorMatrix in="SourceAlpha" type="matrix" values="0 0 0 0 0 0 0 0 0 0 0 0 0 0 0 0 0 0 127 0" result="hardAlpha"/>
<feOffset dy="4"/>
<feGaussianBlur stdDeviation="2"/>
<feComposite in2="hardAlpha" operator="out"/>
<feColorMatrix type="matrix" values="0 0 0 0 0 0 0 0 0 0 0 0 0 0 0 0 0 0 0.25 0"/>
<feBlend mode="normal" in2="BackgroundImageFix" result="effect1_dropShadow_29_100"/>
<feBlend mode="normal" in="SourceGraphic" in2="effect1_dropShadow_29_100" result="shape"/>
</filter>
<filter id="filter1_d_29_100" x="131.87" y="124.519" width="52.1345" height="54.1295" filterUnits="userSpaceOnUse" color-interpolation-filters="sRGB">
<feFlood flood-opacity="0" result="BackgroundImageFix"/>
<feColorMatrix in="SourceAlpha" type="matrix" values="0 0 0 0 0 0 0 0 0 0 0 0 0 0 0 0 0 0 127 0" result="hardAlpha"/>
<feOffset dy="4"/>
<feGaussianBlur stdDeviation="2"/>
<feComposite in2="hardAlpha" operator="out"/>
<feColorMatrix type="matrix" values="0 0 0 0 0 0 0 0 0 0 0 0 0 0 0 0 0 0 0.25 0"/>
<feBlend mode="normal" in2="BackgroundImageFix" result="effect1_dropShadow_29_100"/>
<feBlend mode="normal" in="SourceGraphic" in2="effect1_dropShadow_29_100" result="shape"/>
</filter>
<filter id="filter2_d_29_100" x="178.719" y="129.517" width="42.1516" height="49.4047" filterUnits="userSpaceOnUse" color-interpolation-filters="sRGB">
<feFlood flood-opacity="0" result="BackgroundImageFix"/>
<feColorMatrix in="SourceAlpha" type="matrix" values="0 0 0 0 0 0 0 0 0 0 0 0 0 0 0 0 0 0 127 0" result="hardAlpha"/>
<feOffset dy="4"/>
<feGaussianBlur stdDeviation="2"/>
<feComposite in2="hardAlpha" operator="out"/>
<feColorMatrix type="matrix" values="0 0 0 0 0 0 0 0 0 0 0 0 0 0 0 0 0 0 0.25 0"/>
<feBlend mode="normal" in2="BackgroundImageFix" result="effect1_dropShadow_29_100"/>
<feBlend mode="normal" in="SourceGraphic" in2="effect1_dropShadow_29_100" result="shape"/>
</filter>
<filter id="filter3_d_29_100" x="216.419" y="123.642" width="51.4033" height="54.8901" filterUnits="userSpaceOnUse" color-interpolation-filters="sRGB">
<feFlood flood-opacity="0" result="BackgroundImageFix"/>
<feColorMatrix in="SourceAlpha" type="matrix" values="0 0 0 0 0 0 0 0 0 0 0 0 0 0 0 0 0 0 127 0" result="hardAlpha"/>
<feOffset dy="4"/>
<feGaussianBlur stdDeviation="2"/>
<feComposite in2="hardAlpha" operator="out"/>
<feColorMatrix type="matrix" values="0 0 0 0 0 0 0 0 0 0 0 0 0 0 0 0 0 0 0.25 0"/>
<feBlend mode="normal" in2="BackgroundImageFix" result="effect1_dropShadow_29_100"/>
<feBlend mode="normal" in="SourceGraphic" in2="effect1_dropShadow_29_100" result="shape"/>
</filter>
<filter id="filter4_d_29_100" x="255.817" y="98.0674" width="51.165" height="68.8638" filterUnits="userSpaceOnUse" color-interpolation-filters="sRGB">
<feFlood flood-opacity="0" result="BackgroundImageFix"/>
<feColorMatrix in="SourceAlpha" type="matrix" values="0 0 0 0 0 0 0 0 0 0 0 0 0 0 0 0 0 0 127 0" result="hardAlpha"/>
<feOffset dy="4"/>
<feGaussianBlur stdDeviation="2"/>
<feComposite in2="hardAlpha" operator="out"/>
<feColorMatrix type="matrix" values="0 0 0 0 0 0 0 0 0 0 0 0 0 0 0 0 0 0 0.25 0"/>
<feBlend mode="normal" in2="BackgroundImageFix" result="effect1_dropShadow_29_100"/>
<feBlend mode="normal" in="SourceGraphic" in2="effect1_dropShadow_29_100" result="shape"/>
</filter>
</defs>
</svg>
