<svg width="512" height="512" viewBox="0 0 512 512" fill="none" xmlns="http://www.w3.org/2000/svg">
<rect width="512" height="512" rx="20" fill="#A98A75"/>
<path d="M249.064 85.6C306.749 85.6 352.829 98.0586 387.304 122.976C422.12 147.893 439.528 186.464 439.528 238.688V290.912C439.528 344.16 422.291 383.072 387.816 407.648C353.683 431.883 307.432 444 249.064 444H85.736C81.9813 444 78.7387 442.635 76.008 439.904C73.2773 437.173 71.912 433.931 71.912 430.176V99.424C71.912 95.6693 73.2773 92.4267 76.008 89.696C78.7387 86.9653 81.9813 85.6 85.736 85.6H249.064ZM251.624 344.16C267.667 344.16 280.296 340.405 289.512 332.896C299.069 325.045 303.848 314.123 303.848 300.128V229.472C303.848 215.477 299.069 204.725 289.512 197.216C280.296 189.365 267.667 185.44 251.624 185.44H205.032V344.16H251.624Z" fill="white"/>
</svg>
