<svg width="80" height="86" viewBox="0 0 80 86" fill="none" xmlns="http://www.w3.org/2000/svg">
<path d="M29.0522 78.7709C27.5806 78.0365 26.5541 76.5999 26.1818 74.7535C25.9698 72.725 26.4218 70.4984 27.4593 68.4601C27.4593 68.4601 27.8229 67.6698 27.8902 67.5253C39.5164 46.4433 45.5202 35.0362 57.3504 14.1666C58.8893 11.3806 60.5241 9.13273 62.5985 7.74673C66.4331 5.18585 69.5762 6.90341 70.5965 7.46555C71.5887 8.07592 74.6317 9.96234 74.2963 14.5619C74.1112 17.0486 72.9638 19.576 71.2998 22.2935C58.9802 42.8769 52.0117 53.723 39.4057 74.2342C39.314 74.3612 38.8049 75.0701 38.8049 75.0701C37.5456 76.9783 35.8333 78.4707 33.9652 79.2881C32.1756 79.8749 30.4198 79.6906 29.0553 78.7728" fill="#F2635F"/>
<path d="M27.962 80.6419C26.7557 80.0263 25.7848 79.0219 25.1416 77.7241C24.4984 76.4263 24.2043 74.8781 24.2871 73.2266C24.5135 70.205 26.024 67.2986 27.5342 64.5545C30.9339 58.377 34.3187 52.1918 37.6885 45.9991C40.7233 40.4385 43.7628 34.8817 46.831 29.345C48.5326 26.2738 50.2433 23.2079 51.963 20.1473C53.8054 16.8677 55.5278 13.359 57.7432 10.3243C58.6943 8.95369 59.8449 7.76196 61.1218 6.82476C62.3987 5.88757 63.7741 5.22538 65.1605 4.88027C67.1948 4.48839 69.1521 4.74285 70.8127 5.61511C74.0879 7.1709 76.437 10.6227 75.8702 15.2696C75.4475 18.7424 73.5821 21.8893 71.7405 24.9607C69.8172 28.1655 67.8854 31.3651 65.9452 34.5595C62.5946 40.0705 59.2168 45.5652 55.8116 51.0437C52.2716 56.754 48.7214 62.4573 45.1885 68.1729C41.9261 73.4517 38.0341 81.5549 31.9322 81.6902C30.4859 81.7055 29.13 81.3492 27.9603 80.6464C26.0132 79.522 28.3168 75.5622 30.2664 76.6881C32.1692 77.7857 34.2773 77.5072 36.2565 75.3941C37.9751 73.559 39.4532 70.8137 41.0298 68.2595C44.2977 62.9654 47.575 57.6775 50.8616 52.3958C53.906 47.4913 56.9453 42.584 59.9604 37.6603C63.4013 32.0435 66.9574 26.4398 70.2081 20.7056C71.5215 18.3891 72.6122 15.6899 71.9859 13.3468C71.7877 12.6373 71.4635 12.0087 71.0298 11.493C70.6699 11.0012 70.2335 10.5921 69.7348 10.279C68.9109 9.63571 67.9384 9.22544 66.8758 9.0729C66.0455 8.92723 65.1483 9.02563 64.2595 9.35986C63.3707 9.69409 62.5163 10.2544 61.7681 10.9936C59.5707 13.2082 58.1381 16.3047 56.5986 19.034C54.943 21.9721 53.2948 24.9125 51.6541 27.8549C48.803 32.9751 45.9743 38.1075 43.1679 43.2522C39.8864 49.2534 36.6169 55.2616 33.3286 61.26C32.4036 62.9441 31.4781 64.6291 30.5521 66.3149C30.1397 67.0633 29.6999 67.8066 29.3276 68.5728C29.2464 68.7397 29.1703 68.9108 29.0934 69.0803C29.0008 69.2826 29.0016 69.2798 29.0968 69.0745C28.9961 69.3053 28.8998 69.5374 28.808 69.7712C28.1984 71.1243 27.9564 72.5684 28.1187 73.8838C28.4446 75.1719 29.2086 76.1664 30.2692 76.6831C32.207 77.822 29.9047 81.7825 27.9631 80.6414L27.962 80.6419Z" fill="#211715"/>
<path d="M9.5548 68.0105C8.12593 67.541 6.97451 66.4455 6.33497 64.947C5.8073 63.2819 5.83572 61.3887 6.41528 59.596C6.41528 59.596 6.60566 58.9045 6.64123 58.778C13.4301 40.1502 16.8488 30.0986 23.8542 11.6277C24.7536 9.16583 25.8281 7.14183 27.4371 5.79192C30.4115 3.29756 33.4883 4.42412 34.4878 4.79364C35.4705 5.2059 38.4868 6.48233 38.9591 10.336C39.211 12.4198 38.6158 14.6295 37.5939 17.0464C30.1063 35.3262 25.7376 45.0041 17.9836 63.2512C17.9235 63.3655 17.5904 64.0032 17.5904 64.0032C16.7923 65.709 15.5224 67.1127 14.0014 67.9705C12.5114 68.6291 10.9224 68.6439 9.55789 68.0117" fill="#F2635F"/>
<path d="M8.40015 70.9372C7.22605 70.5423 6.19879 69.7944 5.41591 68.7645C4.63303 67.7347 4.12053 66.457 3.92706 65.0529C3.63981 62.4761 4.51494 59.8632 5.41614 57.3875C7.44471 51.8143 9.45873 46.2362 11.4582 40.6533C13.2617 35.6393 15.0698 30.6281 16.9068 25.6308C17.9256 22.8589 18.9532 20.0905 19.9897 17.3256C21.1001 14.3629 22.0665 11.2191 23.5487 8.42465C24.1742 7.16771 25.0062 6.04119 25.9919 5.11662C26.9776 4.19206 28.0955 3.48967 29.2745 3.05406C31.0231 2.51163 32.8077 2.52338 34.4278 3.08801C37.5968 4.06253 40.2477 6.7354 40.4947 10.721C40.6801 13.6994 39.5278 16.5524 38.3844 19.339C37.1899 22.2469 35.9869 25.1513 34.7756 28.052C32.683 33.0569 30.5634 38.0509 28.4168 43.0339C26.1877 48.2269 23.9483 53.415 21.7263 58.6116C19.6746 63.4112 17.5191 70.6627 12.106 71.4108C10.8203 71.5739 9.55491 71.4136 8.3993 70.9412C6.48313 70.1933 7.89424 66.608 9.81289 67.3569C11.6854 68.0867 13.518 67.6325 14.9389 65.6414C16.1728 63.9121 17.0452 61.4388 18.0361 59.1167C20.0903 54.3038 22.1538 49.495 24.2266 44.6906C26.1447 40.23 28.0578 35.7675 29.9467 31.2938C32.1026 26.1902 34.3635 21.0856 36.331 15.9025C37.126 13.8086 37.6608 11.4145 36.7238 9.49955C36.4325 8.92062 36.042 8.42312 35.5723 8.03239C35.1722 7.65415 34.7172 7.35376 34.2224 7.14104C33.3844 6.68299 32.4519 6.43731 31.4808 6.41876C30.7176 6.38189 29.9344 6.55823 29.1968 6.93296C28.4592 7.30769 27.7889 7.86988 27.2421 8.57225C25.6431 10.6718 24.8682 13.4372 23.9385 15.9034C22.9392 18.5581 21.947 21.2139 20.9617 23.8707C19.2507 28.4935 17.5616 33.1243 15.8944 37.7631C13.9425 43.175 12.0025 48.5916 10.0442 54.0018C9.49272 55.521 8.94099 57.041 8.38897 58.5617C8.14274 59.2369 7.87127 59.9107 7.66368 60.5968C7.61831 60.7463 7.57823 60.8988 7.5372 61.05C7.48746 61.2306 7.48773 61.2281 7.53926 61.0448C7.48688 61.2502 7.43872 61.4564 7.39478 61.6634C7.07075 62.8702 7.0888 64.1156 7.44619 65.2103C7.94491 66.2649 8.78637 67.0259 9.81466 67.3524C11.7249 68.1135 10.315 71.6993 8.40106 70.9367L8.40015 70.9372Z" fill="#211715"/>
</svg>
