<svg width="80" height="86" viewBox="0 0 80 86" fill="none" xmlns="http://www.w3.org/2000/svg">
<path d="M50.897 78.7709C52.3686 78.0365 53.3951 76.5999 53.7675 74.7535C53.9795 72.725 53.5275 70.4984 52.4899 68.4601C52.4899 68.4601 52.1264 67.6698 52.059 67.5253C40.4328 46.4433 34.429 35.0362 22.5988 14.1666C21.0599 11.3806 19.4252 9.13273 17.3507 7.74673C13.5161 5.18585 10.373 6.90341 9.35272 7.46555C8.3605 8.07592 5.31753 9.96234 5.65288 14.5619C5.83805 17.0486 6.98539 19.576 8.64946 22.2935C20.9691 42.8769 27.9375 53.723 40.5436 74.2342C40.6352 74.3612 41.1443 75.0701 41.1443 75.0701C42.4036 76.9783 44.1159 78.4707 45.984 79.2881C47.7736 79.8749 49.5294 79.6906 50.8939 78.7728" fill="#F2635F"/>
<path d="M51.9872 80.6419C53.1935 80.0263 54.1644 79.0219 54.8076 77.7241C55.4508 76.4263 55.7449 74.8781 55.6621 73.2266C55.4357 70.205 53.9253 67.2986 52.415 64.5545C49.0153 58.377 45.6306 52.1918 42.2608 45.9991C39.2259 40.4385 36.1864 34.8817 33.1182 29.345C31.4166 26.2738 29.7059 23.2079 27.9862 20.1473C26.1438 16.8677 24.4214 13.359 22.2061 10.3243C21.2549 8.95369 20.1043 7.76196 18.8274 6.82476C17.5505 5.88757 16.1752 5.22538 14.7888 4.88027C12.7544 4.48839 10.7971 4.74285 9.13655 5.61511C5.86135 7.1709 3.51219 10.6227 4.07898 15.2696C4.50168 18.7424 6.36711 21.8893 8.20871 24.9607C10.132 28.1655 12.0638 31.3651 14.004 34.5595C17.3546 40.0705 20.7324 45.5652 24.1376 51.0437C27.6776 56.754 31.2278 62.4573 34.7607 68.1729C38.0232 73.4517 41.9152 81.5549 48.0171 81.6902C49.4633 81.7055 50.8192 81.3492 51.989 80.6464C53.936 79.522 51.6324 75.5622 49.6829 76.6881C47.78 77.7857 45.6719 77.5072 43.6927 75.3941C41.9741 73.559 40.496 70.8137 38.9195 68.2595C35.6515 62.9654 32.3742 57.6775 29.0876 52.3958C26.0432 47.4913 23.0039 42.584 19.9888 37.6603C16.548 32.0435 12.9918 26.4398 9.74115 20.7056C8.42776 18.3891 7.33705 15.6899 7.96334 13.3468C8.16152 12.6373 8.48572 12.0087 8.9194 11.493C9.27929 11.0012 9.71574 10.5921 10.2145 10.279C11.0384 9.63571 12.0108 9.22544 13.0734 9.0729C13.9037 8.92723 14.8009 9.02563 15.6897 9.35986C16.5785 9.69409 17.4329 10.2544 18.1811 10.9936C20.3785 13.2082 21.8111 16.3047 23.3506 19.034C25.0063 21.9721 26.6544 24.9125 28.2951 27.8549C31.1462 32.9751 33.9749 38.1075 36.7813 43.2522C40.0628 49.2534 43.3323 55.2616 46.6206 61.26C47.5456 62.9441 48.4712 64.6291 49.3972 66.3149C49.8095 67.0633 50.2494 67.8066 50.6216 68.5728C50.7029 68.7397 50.7789 68.9108 50.8558 69.0803C50.9484 69.2826 50.9476 69.2798 50.8524 69.0745C50.9531 69.3053 51.0494 69.5374 51.1412 69.7712C51.7508 71.1243 51.9929 72.5684 51.8306 73.8838C51.5046 75.1719 50.7406 76.1664 49.68 76.6831C47.7422 77.822 50.0446 81.7825 51.9861 80.6414L51.9872 80.6419Z" fill="#211715"/>
<path d="M70.3944 68.0105C71.8233 67.541 72.9747 66.4455 73.6143 64.947C74.1419 63.2819 74.1135 61.3887 73.5339 59.596C73.5339 59.596 73.3436 58.9045 73.308 58.778C66.5191 40.1502 63.1004 30.0986 56.095 11.6277C55.1956 9.16583 54.1211 7.14183 52.5121 5.79192C49.5377 3.29756 46.461 4.42412 45.4614 4.79364C44.4787 5.2059 41.4624 6.48233 40.9901 10.336C40.7382 12.4198 41.3334 14.6295 42.3553 17.0464C49.843 35.3262 54.2116 45.0041 61.9656 63.2512C62.0257 63.3655 62.3588 64.0032 62.3588 64.0032C63.157 65.709 64.4268 67.1127 65.9478 67.9705C67.4378 68.6291 69.0268 68.6439 70.3913 68.0117" fill="#F2635F"/>
<path d="M71.5491 70.9372C72.7232 70.5423 73.7504 69.7944 74.5333 68.7645C75.3162 67.7347 75.8287 66.457 76.0222 65.0529C76.3094 62.4761 75.4343 59.8632 74.5331 57.3875C72.5045 51.8143 70.4905 46.2362 68.491 40.6533C66.6875 35.6393 64.8794 30.6281 63.0424 25.6308C62.0237 22.8589 60.996 20.0905 59.9595 17.3256C58.8491 14.3629 57.8827 11.2191 56.4005 8.42465C55.775 7.16771 54.943 6.04119 53.9573 5.11662C52.9716 4.19206 51.8538 3.48967 50.6747 3.05406C48.9261 2.51163 47.1416 2.52338 45.5214 3.08801C42.3524 4.06253 39.7015 6.7354 39.4545 10.721C39.2691 13.6994 40.4214 16.5524 41.5648 19.339C42.7594 22.2469 43.9623 25.1513 45.1736 28.052C47.2662 33.0569 49.3859 38.0509 51.5324 43.0339C53.7615 48.2269 56.0009 53.415 58.2229 58.6116C60.2746 63.4112 62.4301 70.6627 67.8432 71.4108C69.129 71.5739 70.3943 71.4136 71.5499 70.9412C73.4661 70.1933 72.055 66.608 70.1363 67.3569C68.2638 68.0867 66.4312 67.6325 65.0103 65.6414C63.7764 63.9121 62.904 61.4388 61.9131 59.1167C59.8589 54.3038 57.7954 49.495 55.7226 44.6906C53.8045 40.23 51.8914 35.7675 50.0025 31.2938C47.8466 26.1902 45.5858 21.0856 43.6182 15.9025C42.8232 13.8086 42.2884 11.4145 43.2254 9.49955C43.5167 8.92062 43.9072 8.42312 44.3769 8.03239C44.7771 7.65415 45.232 7.35376 45.7269 7.14104C46.5648 6.68299 47.4974 6.43731 48.4685 6.41876C49.2316 6.38189 50.0148 6.55823 50.7524 6.93296C51.49 7.30769 52.1603 7.86988 52.7071 8.57225C54.3061 10.6718 55.081 13.4372 56.0107 15.9034C57.01 18.5581 58.0023 21.2139 58.9875 23.8707C60.6985 28.4935 62.3876 33.1243 64.0548 37.7631C66.0067 43.175 67.9467 48.5916 69.9051 54.0018C70.4565 55.521 71.0082 57.041 71.5602 58.5617C71.8065 59.2369 72.0779 59.9107 72.2855 60.5968C72.3309 60.7463 72.371 60.8988 72.412 61.05C72.4618 61.2306 72.4615 61.2281 72.41 61.0448C72.4623 61.2502 72.5105 61.4564 72.5544 61.6634C72.8785 62.8702 72.8604 64.1156 72.503 65.2103C72.0043 66.2649 71.1628 67.0259 70.1346 67.3524C68.2243 68.1135 69.6342 71.6993 71.5482 70.9367L71.5491 70.9372Z" fill="#211715"/>
</svg>
