<svg width="110" height="118" viewBox="0 0 110 118" fill="none" xmlns="http://www.w3.org/2000/svg">
<path d="M39.9141 108.222C37.8924 107.213 36.4821 105.239 35.9705 102.702C35.6792 99.9154 36.3002 96.8563 37.7256 94.056C37.7256 94.056 38.2252 92.9701 38.3177 92.7716C54.2907 63.8074 62.5392 48.1356 78.7924 19.4632C80.9067 15.6357 83.1527 12.5473 86.0027 10.6431C91.271 7.12477 95.5892 9.48449 96.991 10.2568C98.3542 11.0954 102.535 13.6871 102.074 20.0063C101.82 23.4227 100.243 26.8951 97.9572 30.6286C81.0315 58.9077 71.4577 73.809 54.1385 101.989C54.0126 102.163 53.3132 103.137 53.3132 103.137C51.5831 105.759 49.2305 107.809 46.664 108.932C44.2053 109.738 41.793 109.485 39.9184 108.224" fill="#F2635F"/>
<path d="M38.4165 110.792C36.7591 109.946 35.4253 108.567 34.5416 106.783C33.658 105 33.2538 102.873 33.3676 100.605C33.6786 96.4533 35.7538 92.4602 37.8288 88.6901C42.4995 80.2029 47.1497 71.7053 51.7794 63.1972C55.949 55.5576 60.1248 47.9233 64.3401 40.3165C66.678 36.0971 69.0283 31.8849 71.3909 27.6799C73.9222 23.1741 76.2885 18.3537 79.3322 14.1843C80.639 12.3013 82.2197 10.664 83.974 9.37643C85.7283 8.08883 87.6179 7.17907 89.5226 6.70493C92.3176 6.16653 95.0067 6.51613 97.2881 7.71452C101.788 9.85198 105.015 14.5943 104.237 20.9786C103.656 25.7497 101.093 30.0733 98.5628 34.2929C95.9204 38.6961 93.2664 43.0919 90.6008 47.4805C85.9975 55.052 81.3567 62.6011 76.6784 70.1279C71.8149 77.9732 66.9374 85.8088 62.0836 93.6613C57.6014 100.914 52.2543 112.047 43.871 112.232C41.884 112.253 40.0211 111.764 38.4141 110.798C35.7391 109.254 38.9039 103.813 41.5824 105.36C44.1967 106.868 47.093 106.486 49.8121 103.582C52.1733 101.061 54.204 97.2895 56.37 93.7803C60.8598 86.5069 65.3624 79.242 69.8778 71.9855C74.0604 65.2474 78.236 58.5052 82.3784 51.7407C87.1057 44.0239 91.9915 36.3251 96.4574 28.447C98.2619 25.2644 99.7604 21.556 98.8999 18.3369C98.6277 17.3621 98.1823 16.4985 97.5864 15.7901C97.092 15.1143 96.4924 14.5522 95.8072 14.1222C94.6752 13.2383 93.3392 12.6747 91.8794 12.4651C90.7386 12.265 89.5059 12.4002 88.2848 12.8593C87.0637 13.3185 85.8899 14.0883 84.862 15.1039C81.843 18.1465 79.8748 22.4007 77.7597 26.1504C75.485 30.1871 73.2207 34.2267 70.9665 38.2693C67.0495 45.3038 63.1632 52.3551 59.3076 59.4234C54.7992 67.6683 50.3072 75.9228 45.7896 84.1638C44.5187 86.4776 43.2471 88.7926 41.9749 91.1087C41.4083 92.1368 40.8041 93.1581 40.2927 94.2107C40.181 94.4401 40.0765 94.6751 39.9709 94.908C39.8437 95.1859 39.8448 95.1821 39.9755 94.9001C39.8371 95.2171 39.7049 95.5361 39.5788 95.8571C38.7413 97.7162 38.4087 99.7002 38.6317 101.507C39.0795 103.277 40.1292 104.643 41.5863 105.353C44.2486 106.918 41.0854 112.359 38.418 110.792L38.4165 110.792Z" fill="#211715"/>
<path d="M13.127 93.4381C11.1639 92.7931 9.58202 91.288 8.70337 89.2293C7.97842 86.9416 8.01746 84.3406 8.81372 81.8776C8.81372 81.8776 9.07527 80.9276 9.12415 80.7538C18.4512 55.1615 23.1481 41.3517 32.7727 15.975C34.0083 12.5927 35.4846 9.81194 37.6951 7.95733C41.7816 4.53039 46.0087 6.07814 47.382 6.58581C48.7321 7.15221 52.8761 8.90586 53.525 14.2003C53.871 17.0632 53.0534 20.099 51.6494 23.4196C41.3622 48.5338 35.3602 61.8301 24.7072 86.8995C24.6246 87.0565 24.167 87.9326 24.167 87.9326C23.0704 90.2762 21.3258 92.2047 19.2362 93.3832C17.1891 94.288 15.0059 94.3083 13.1313 93.4398" fill="#F2635F"/>
<path d="M11.5408 97.4592C9.92772 96.9166 8.51638 95.8891 7.4408 94.4742C6.36523 93.0592 5.66111 91.3039 5.39531 89.3748C5.00066 85.8345 6.20298 82.2448 7.44113 78.8435C10.2281 71.1866 12.9952 63.523 15.7422 55.8527C18.22 48.9641 20.7041 42.0793 23.2279 35.2136C24.6275 31.4053 26.0394 27.6019 27.4634 23.8032C28.989 19.7329 30.3167 15.4138 32.3531 11.5745C33.2124 9.84758 34.3555 8.29988 35.7097 7.02964C37.0639 5.7594 38.5997 4.7944 40.2196 4.19593C42.622 3.4507 45.0737 3.46684 47.2997 4.24257C51.6534 5.58144 55.2955 9.25364 55.6349 14.7293C55.8896 18.8213 54.3064 22.741 52.7355 26.5694C51.0944 30.5646 49.4417 34.5548 47.7775 38.5401C44.9025 45.4162 41.9904 52.2773 39.0412 59.1234C35.9787 66.258 32.9021 73.3857 29.8494 80.5253C27.0305 87.1193 24.0691 97.082 16.6322 98.1097C14.8657 98.3339 13.1273 98.1136 11.5396 97.4646C8.90703 96.4371 10.8457 91.5113 13.4817 92.5402C16.0543 93.5429 18.5721 92.9189 20.5243 90.1833C22.2195 87.8075 23.418 84.4095 24.7795 81.2193C27.6017 74.6068 30.4367 68.0002 33.2844 61.3994C35.9196 55.2712 38.548 49.1403 41.1432 42.9939C44.1052 35.9821 47.2112 28.9691 49.9144 21.8482C51.0066 18.9714 51.7413 15.6821 50.4541 13.0512C50.0538 12.2559 49.5174 11.5724 48.872 11.0356C48.3223 10.5159 47.6973 10.1032 47.0174 9.81094C45.8662 9.18164 44.5849 8.8441 43.2507 8.81862C42.2023 8.76796 41.1262 9.01023 40.1129 9.52507C39.0995 10.0399 38.1785 10.8123 37.4273 11.7773C35.2305 14.6618 34.1659 18.4611 32.8886 21.8493C31.5157 25.4967 30.1525 29.1454 28.7988 32.7955C26.4481 39.1466 24.1275 45.5087 21.8369 51.8819C19.1554 59.3173 16.4899 66.759 13.7995 74.1919C13.0419 76.2792 12.2838 78.3674 11.5254 80.4567C11.1871 81.3843 10.8142 82.3101 10.529 83.2527C10.4666 83.4581 10.4116 83.6675 10.3552 83.8753C10.2869 84.1234 10.2872 84.12 10.358 83.8681C10.2861 84.1503 10.2199 84.4336 10.1595 84.7181C9.71435 86.376 9.73915 88.087 10.2302 89.591C10.9153 91.0399 12.0714 92.0855 13.4842 92.534C16.1086 93.5798 14.1716 98.5062 11.542 97.4585L11.5408 97.4592Z" fill="#211715"/>
</svg>
