<svg width="110" height="118" viewBox="0 0 110 118" fill="none" xmlns="http://www.w3.org/2000/svg">
<path d="M69.9265 108.222C71.9482 107.213 73.3585 105.239 73.8701 102.702C74.1614 99.9154 73.5404 96.8563 72.1149 94.056C72.1149 94.056 71.6154 92.9701 71.5229 92.7716C55.5499 63.8074 47.3014 48.1356 31.0482 19.4632C28.9339 15.6357 26.6879 12.5473 23.8379 10.6431C18.5696 7.12477 14.2514 9.48449 12.8496 10.2568C11.4864 11.0954 7.30576 13.6871 7.7665 20.0063C8.0209 23.4227 9.5972 26.8951 11.8834 30.6286C28.8091 58.9077 38.3829 73.809 55.7021 101.989C55.828 102.163 56.5274 103.137 56.5274 103.137C58.2575 105.759 60.6101 107.809 63.1766 108.932C65.6353 109.738 68.0476 109.485 69.9222 108.224" fill="#F2635F"/>
<path d="M71.4241 110.792C73.0815 109.946 74.4153 108.567 75.299 106.783C76.1826 105 76.5868 102.873 76.473 100.605C76.162 96.4533 74.0868 92.4602 72.0118 88.6901C67.3411 80.2029 62.6909 71.7053 58.0612 63.1972C53.8916 55.5576 49.7158 47.9233 45.5005 40.3165C43.1626 36.0971 40.8123 31.8849 38.4497 27.6799C35.9184 23.1741 33.5521 18.3537 30.5084 14.1843C29.2016 12.3013 27.6209 10.664 25.8666 9.37643C24.1123 8.08883 22.2227 7.17907 20.318 6.70493C17.523 6.16653 14.8339 6.51613 12.5525 7.71452C8.05279 9.85198 4.82533 14.5943 5.60402 20.9786C6.18476 25.7497 8.74764 30.0733 11.2778 34.2929C13.9202 38.6961 16.5742 43.0919 19.2398 47.4805C23.8431 55.052 28.4839 62.6011 33.1622 70.1279C38.0257 77.9732 42.9032 85.8088 47.757 93.6613C52.2392 100.914 57.5863 112.047 65.9696 112.232C67.9566 112.253 69.8195 111.764 71.4265 110.798C74.1015 109.254 70.9367 103.813 68.2582 105.36C65.6439 106.868 62.7476 106.486 60.0285 103.582C57.6673 101.061 55.6366 97.2895 53.4706 93.7803C48.9808 86.5069 44.4782 79.242 39.9628 71.9855C35.7802 65.2474 31.6046 58.5052 27.4622 51.7407C22.7349 44.0239 17.8491 36.3251 13.3832 28.447C11.5787 25.2644 10.0802 21.556 10.9407 18.3369C11.2129 17.3621 11.6583 16.4985 12.2542 15.7901C12.7486 15.1143 13.3482 14.5522 14.0334 14.1222C15.1654 13.2383 16.5014 12.6747 17.9612 12.4651C19.102 12.265 20.3347 12.4002 21.5558 12.8593C22.7769 13.3185 23.9507 14.0883 24.9786 15.1039C27.9976 18.1465 29.9658 22.4007 32.0809 26.1504C34.3556 30.1871 36.6199 34.2267 38.8741 38.2693C42.7911 45.3038 46.6774 52.3551 50.533 59.4234C55.0414 67.6683 59.5334 75.9228 64.051 84.1638C65.3219 86.4776 66.5935 88.7926 67.8657 91.1087C68.4323 92.1368 69.0365 93.1581 69.5479 94.2107C69.6596 94.4401 69.7641 94.6751 69.8697 94.908C69.9969 95.1859 69.9958 95.1821 69.8651 94.9001C70.0034 95.2171 70.1357 95.5361 70.2618 95.8571C71.0993 97.7162 71.4319 99.7002 71.2089 101.507C70.7611 103.277 69.7114 104.643 68.2543 105.353C65.592 106.918 68.7552 112.359 71.4226 110.792L71.4241 110.792Z" fill="#211715"/>
<path d="M96.7136 93.4381C98.6767 92.7931 100.259 91.288 101.137 89.2293C101.862 86.9416 101.823 84.3406 101.027 81.8776C101.027 81.8776 100.765 80.9276 100.716 80.7538C91.3894 55.1615 86.6925 41.3517 77.0679 15.975C75.8323 12.5927 74.356 9.81194 72.1455 7.95733C68.059 4.53039 63.8319 6.07814 62.4586 6.58581C61.1085 7.15221 56.9645 8.90586 56.3156 14.2003C55.9696 17.0632 56.7872 20.099 58.1912 23.4196C68.4784 48.5338 74.4804 61.8301 85.1334 86.8995C85.216 87.0565 85.6736 87.9326 85.6736 87.9326C86.7702 90.2762 88.5148 92.2047 90.6044 93.3832C92.6515 94.288 94.8347 94.3083 96.7093 93.4398" fill="#F2635F"/>
<path d="M98.2998 97.4592C99.9129 96.9166 101.324 95.8891 102.4 94.4742C103.475 93.0592 104.179 91.3039 104.445 89.3748C104.84 85.8345 103.638 82.2448 102.399 78.8435C99.6125 71.1866 96.8454 63.523 94.0984 55.8527C91.6206 48.9641 89.1365 42.0793 86.6127 35.2136C85.2131 31.4053 83.8012 27.6019 82.3772 23.8032C80.8516 19.7329 79.5239 15.4138 77.4875 11.5745C76.6282 9.84758 75.4851 8.29988 74.1309 7.02964C72.7767 5.7594 71.2409 4.7944 69.621 4.19593C67.2186 3.4507 64.7669 3.46684 62.5409 4.24257C58.1872 5.58144 54.5451 9.25364 54.2057 14.7293C53.951 18.8213 55.5342 22.741 57.1051 26.5694C58.7462 30.5646 60.3989 34.5548 62.0631 38.5401C64.9381 45.4162 67.8502 52.2773 70.7994 59.1234C73.8619 66.258 76.9385 73.3857 79.9912 80.5253C82.8101 87.1193 85.7715 97.082 93.2084 98.1097C94.9749 98.3339 96.7133 98.1136 98.301 97.4646C100.934 96.4371 98.9949 91.5113 96.3589 92.5402C93.7863 93.5429 91.2685 92.9189 89.3163 90.1833C87.6211 87.8075 86.4226 84.4095 85.0611 81.2193C82.2389 74.6068 79.4039 68.0002 76.5562 61.3994C73.921 55.2712 71.2926 49.1403 68.6974 42.9939C65.7354 35.9821 62.6294 28.9691 59.9262 21.8482C58.834 18.9714 58.0993 15.6821 59.3865 13.0512C59.7868 12.2559 60.3232 11.5724 60.9686 11.0356C61.5183 10.5159 62.1433 10.1032 62.8232 9.81094C63.9744 9.18164 65.2557 8.8441 66.5899 8.81862C67.6383 8.76796 68.7144 9.01023 69.7277 9.52507C70.7411 10.0399 71.6621 10.8123 72.4133 11.7773C74.6101 14.6618 75.6747 18.4611 76.952 21.8493C78.3249 25.4967 79.6881 29.1454 81.0418 32.7955C83.3925 39.1466 85.7131 45.5087 88.0037 51.8819C90.6852 59.3173 93.3507 66.759 96.0411 74.1919C96.7987 76.2792 97.5568 78.3674 98.3152 80.4567C98.6535 81.3843 99.0264 82.3101 99.3116 83.2527C99.374 83.4581 99.429 83.6675 99.4854 83.8753C99.5537 84.1234 99.5534 84.12 99.4826 83.8681C99.5545 84.1503 99.6207 84.4336 99.6811 84.7181C100.126 86.376 100.101 88.087 99.6104 89.591C98.9253 91.0399 97.7692 92.0855 96.3564 92.534C93.732 93.5798 95.669 98.5062 98.2986 97.4585L98.2998 97.4592Z" fill="#211715"/>
</svg>
