<svg width="200" height="200" viewBox="0 0 200 200" fill="none" xmlns="http://www.w3.org/2000/svg">
<circle cx="100" cy="100" r="100" fill="white"/>
<path d="M135.34 70.494C136.417 69.487 137.868 69.109 139.108 69.1508C141.809 69.2438 142.958 70.6656 143.452 71.501C144.928 73.9938 144.866 78.5868 143.875 81.4286C143.173 83.4409 142.023 86.5199 139.252 88.7276C138.11 89.6373 136.429 90.2364 134.822 89.9727C134.822 89.9727 134.667 89.9471 134.396 89.9028C133.886 91.543 133.257 93.1499 132.872 93.9299C131.803 96.7546 126.142 106.301 118.836 110.744C118.834 113.732 118.834 115.708 118.834 115.708C118.834 116.598 118.834 117.567 119.171 118.433C119.624 119.571 120.234 120.557 121.213 121.326C123.288 122.954 125.42 123.731 128.047 124.693L131.636 126.072C131.636 126.072 123.905 139.463 101.998 139.463C80.0904 139.463 73.0779 126.072 73.0779 126.072L76.6762 124.693C79.3024 123.731 81.435 122.954 83.5099 121.326C84.4899 120.557 85.0991 119.571 85.5514 118.433C85.8889 117.567 85.8889 116.597 85.8889 115.708C85.8889 115.708 85.8889 113.968 85.888 111.11C82.7183 109.422 79.8265 106.936 77.0592 103.711C73.0673 99.0588 70.7935 94.0477 69.5383 89.8959C67.8255 90.3252 65.9742 89.7056 64.7452 88.7276C61.9735 86.5199 60.8243 83.4409 60.1222 81.4286C59.1317 78.5868 59.0686 73.9938 60.5447 71.501C61.0391 70.6656 62.1883 69.2438 64.889 69.1508C66.1302 69.1081 67.58 69.4862 68.6564 70.494C68.6564 70.494 62.7387 42.181 101.308 42.181C139.877 42.181 135.337 70.494 135.337 70.494H135.34Z" fill="#FCE0CD"/>
<path d="M32.7514 157.33C37.6444 138.092 58.6347 124.197 78.0532 121.606C78.0234 120.371 78.6099 119 79.3479 118.168C80.9634 116.346 82.9988 113.712 84.6503 111.913C85.3515 112.466 99.6562 123.447 100.741 124.195H103.261C104.345 123.447 118.65 112.466 119.351 111.913C121.002 113.712 123.038 116.347 124.653 118.168C125.391 119 125.978 120.371 125.948 121.606C145.367 124.197 166.357 138.092 171.25 157.33H32.7514Z" fill="white"/>
<path d="M102.961 49.0747C99.8535 48.5166 88.9963 47.9858 86.2492 48.2674C84.4759 48.4492 82.3458 48.4458 79.9554 50.604C77.7403 52.6044 78.0357 54.7839 76.9663 56.8918C75.1097 60.5512 71.4974 61.5821 70.804 65.6809C70.3053 68.6285 70.3035 69.7721 70.0362 72.898C69.3218 70.0614 66.8472 69.0834 64.8916 69.1508C64.1527 69.1764 63.5294 69.301 63.0052 69.4862C59.6673 57.9483 60.5482 44.7864 67.3101 34.6225C77.1022 19.9049 95.8879 13.8151 113.023 18.6078C118.455 20.1268 123.425 23.0096 127.171 27.1263L127.831 27.8517C129.712 29.5065 131.593 31.1612 131.593 31.1612C142.1 40.4017 145.392 56.5931 140.967 69.4776C140.447 69.2976 139.834 69.1764 139.107 69.1516C137.866 69.109 136.416 69.487 135.34 70.4949C135.34 70.4949 134.587 71.1989 133.834 71.903L133.797 71.3901C133.387 65.8439 132.219 62.2323 129.973 58.6498C127.492 54.6918 123.067 52.3774 118.371 51.2313C118.371 51.2313 113.086 50.0604 110.074 49.754C107.787 49.5211 102.961 49.0747 102.961 49.0747Z" fill="#645D5C"/>
<path d="M95.7827 97.9545C97.8312 99.0076 100.037 99.4505 102.353 99.436C104.72 99.4206 107.098 98.9624 108.993 97.5252C109.72 96.9739 109.632 95.6828 108.993 95.1118C108.222 94.4232 107.289 94.5239 106.515 95.1118C107.049 94.7065 106.645 95.0086 106.508 95.0948C106.377 95.1767 106.242 95.2527 106.103 95.3226C106.032 95.3593 105.959 95.3918 105.887 95.4276C105.655 95.5437 105.805 95.3653 105.968 95.4011C105.858 95.3773 105.524 95.5633 105.409 95.5983C104.9 95.7579 104.376 95.868 103.847 95.9456C104.11 95.9072 103.83 95.9456 103.713 95.9567C103.56 95.9712 103.406 95.984 103.253 95.9934C102.883 96.0164 102.513 96.0258 102.143 96.0233C101.812 96.0216 101.48 96.0105 101.149 95.9883C100.997 95.978 100.846 95.9661 100.694 95.9516C100.665 95.949 100.116 95.8662 100.488 95.9302C99.9955 95.8458 99.509 95.7545 99.0295 95.6153C98.8253 95.5556 98.6263 95.4848 98.4238 95.4174C97.9802 95.2697 98.6946 95.5522 98.294 95.3687C98.0442 95.2535 97.797 95.134 97.5525 95.0086C96.7417 94.5921 95.6091 94.7824 95.1542 95.6213C94.7264 96.4099 94.9175 97.5116 95.7836 97.9562L95.7827 97.9545Z" fill="#EFC0A0"/>
<path d="M101.437 82.9169C101.722 83.9759 101.997 85.0512 102.16 86.1359L102.098 85.6819C102.117 85.8304 102.126 85.9772 102.11 86.1265L102.172 85.6725C102.161 85.7416 102.146 85.8065 102.122 85.8722L102.299 85.4643C102.278 85.5112 102.256 85.5505 102.226 85.5931L102.501 85.2475C102.467 85.2876 102.434 85.3183 102.393 85.3508L102.748 85.0837C102.665 85.1357 102.576 85.1784 102.486 85.2185L102.905 85.0461C102.761 85.105 102.618 85.1477 102.463 85.1716L102.929 85.111C102.79 85.1272 102.654 85.1263 102.515 85.111L102.981 85.1716C102.825 85.1502 102.672 85.1135 102.516 85.093C102.282 85.0222 102.049 85.012 101.816 85.0623C101.583 85.0726 101.366 85.14 101.164 85.2646C100.8 85.4719 100.453 85.8773 100.358 86.2844C100.256 86.7213 100.279 87.212 100.535 87.5995C100.763 87.9434 101.145 88.3265 101.583 88.3837C101.943 88.4307 102.294 88.5203 102.66 88.5356C103.226 88.5595 103.75 88.3905 104.255 88.1653C104.88 87.8862 105.368 87.3366 105.534 86.6812C105.675 86.1265 105.614 85.6452 105.518 85.0896C105.338 84.0528 105.092 83.0253 104.817 82.008C104.585 81.1444 103.554 80.5342 102.661 80.8158C101.748 81.1034 101.188 81.9901 101.437 82.9152L101.437 82.9169Z" fill="#EFC0A0"/>
<path d="M83.9429 73.7873C83.3907 75.5342 83.7509 79.5519 87.1494 79.8941C91.6418 79.8677 91.8811 75.0102 90.3681 72.7257C89.1296 70.8559 85.4901 70.0776 83.9429 73.7873Z" fill="#645D5C"/>
<path d="M120.057 73.7873C120.609 75.5342 120.249 79.5519 116.85 79.8941C112.358 79.8677 112.118 75.0102 113.63 72.7257C114.868 70.8559 118.509 70.0776 120.057 73.7873Z" fill="#645D5C"/>
<path d="M34.4414 157.784C38.2904 142.92 51.6125 131.786 65.8918 126.454C69.9906 124.924 74.2542 123.827 78.6037 123.241C79.5425 123.115 80.0553 121.947 79.8283 121.142C79.5504 120.157 78.6134 119.824 77.6719 119.95C61.5264 122.124 45.5799 131.232 36.6162 144.611C34.0987 148.369 32.1869 152.526 31.0605 156.877C30.5091 159.008 33.8892 159.917 34.4414 157.784Z" fill="#E2E2E2"/>
<path d="M172.939 156.876C168.814 140.943 154.716 129.149 139.478 123.328C135.245 121.711 130.832 120.556 126.328 119.949C125.391 119.823 124.445 120.17 124.171 121.141C123.946 121.938 124.452 123.113 125.396 123.241C140.589 125.286 155.76 133.599 164.272 146.207C166.678 149.772 168.487 153.645 169.558 157.783C170.109 159.912 173.492 159.01 172.939 156.876Z" fill="#E2E2E2"/>
<path d="M96.6041 128.763C94.1032 131.249 91.6015 133.736 89.1006 136.221L91.2254 135.954C89.2979 134.723 87.6078 132.696 86.1212 130.882C84.5337 128.944 83.0742 126.901 81.6822 124.826C81.1931 124.097 80.7119 123.363 80.2517 122.618C79.8064 121.896 79.703 121.852 79.8476 121.024C80.1062 119.549 81.3886 118.457 82.3125 117.343C83.4897 115.923 84.6459 114.486 85.8889 113.119H83.41C88.3187 116.973 93.3029 120.745 98.2897 124.503C99.3048 125.267 99.956 125.901 101.304 125.901C102.057 125.901 102.987 126.037 103.726 125.84C104.155 125.726 104.496 125.414 104.84 125.156C107.597 123.097 110.321 120.999 113.053 118.908C115.568 116.983 118.099 115.074 120.59 113.119H118.112C119.354 114.486 120.511 115.923 121.688 117.343C122.61 118.455 123.895 119.55 124.153 121.024C124.3 121.867 124.192 121.898 123.749 122.618C123.289 123.363 122.807 124.097 122.318 124.826C120.926 126.901 119.467 128.944 117.879 130.882C116.393 132.696 114.703 134.722 112.775 135.954L114.9 136.221C112.399 133.736 109.897 131.249 107.396 128.763C105.815 127.191 103.336 129.605 104.917 131.176C107.418 133.662 109.92 136.149 112.421 138.635C112.941 139.151 113.906 139.311 114.546 138.902C118.351 136.47 121.171 132.465 123.729 128.885C124.777 127.419 125.795 125.928 126.742 124.398C127.905 122.519 127.921 120.54 126.956 118.531C126.285 117.132 125.043 115.986 124.056 114.793C122.918 113.418 121.795 112.029 120.592 110.707C119.917 109.965 118.813 110.157 118.113 110.707C115.533 112.733 112.909 114.71 110.303 116.704C108.539 118.054 106.774 119.404 105.005 120.749C104.382 121.222 103.758 121.697 103.132 122.167C103.509 121.884 102.865 122.367 102.742 122.457C102.621 122.546 102.501 122.635 102.378 122.721L103.262 122.488H100.742L101.627 122.721C101.504 122.635 101.384 122.546 101.263 122.457C101.139 122.367 100.496 121.883 100.873 122.167C100.247 121.696 99.6229 121.222 98.9997 120.749C97.2308 119.405 95.4663 118.054 93.7017 116.704C91.0957 114.709 88.4721 112.733 85.8915 110.707C85.1894 110.155 84.0928 109.958 83.4126 110.707C82.4107 111.808 81.4657 112.956 80.519 114.103C79.5513 115.276 78.46 116.4 77.5773 117.634C76.2423 119.5 75.8382 122.033 77.0391 124.035C79.1183 127.501 81.5516 130.826 84.1664 133.926C85.7188 135.766 87.3992 137.588 89.4583 138.904C90.0982 139.312 91.0598 139.156 91.5831 138.637C94.0839 136.151 96.5856 133.664 99.0865 131.178C100.667 129.608 98.1898 127.192 96.6076 128.765L96.6041 128.763Z" fill="#E2E2E2"/>
</svg>
