<svg width="200" height="200" viewBox="0 0 200 200" fill="none" xmlns="http://www.w3.org/2000/svg">
<circle cx="100" cy="100" r="100" fill="white"/>
<path d="M61.1985 129.903C51.9494 130.126 45.9328 123.319 45.9846 117.046C46.1644 111.763 46.9143 106.516 48.221 101.394C49.9615 95.1816 51.2039 84.2514 51.2039 69.0968C50.4603 46.7377 56.3424 30.5223 65.6149 21.6479C71.2043 16.2967 83.8005 9.00651 97.9516 9.00651C104.997 8.89434 111.989 10.2327 118.495 12.9382L121.378 14.1073L124.814 16.132C127.552 17.7463 128.529 19.129 131.346 21.8474C138.422 28.6736 143.34 40.9554 144.123 51.9552C144.591 57.6571 144.673 63.384 144.368 69.0968C144.619 87.9789 148.101 98.5467 149.897 103.748C151.31 107.533 152.049 111.536 152.079 115.576C152.143 122.643 142.377 132.056 132.279 128.435L61.1985 129.903Z" fill="#FEBE69"/>
<path d="M62.7318 66.4528C62.148 65.9465 61.4618 65.572 60.7201 65.355C59.9784 65.138 59.1986 65.0835 58.4339 65.1952C57.6834 65.3012 56.9662 65.574 56.335 65.9937C55.7038 66.4133 55.1747 66.969 54.7865 67.62C54.3362 68.5183 54.0796 69.5012 54.0334 70.505C53.7065 74.4306 54.4645 78.3705 56.2247 81.8945C57.0553 83.6768 58.2609 85.2588 59.7593 86.5322C61.3197 87.8209 63.2833 88.5205 65.3072 88.5088C66.6406 93.5293 69.0272 98.2085 72.3084 102.236C75.3533 106.063 79.2672 109.108 83.7252 111.119C83.6208 113.124 83.3853 115.119 83.0201 117.093C82.589 119.552 82.7236 121.752 79.303 122.987C79.0771 123.069 68.2581 128.129 67.5992 128.352C67.5992 128.352 67.4015 128.42 67.0871 128.525C76.7207 133.247 87.2711 135.804 97.9978 136.016C108.707 136.059 122.767 132.338 130.19 128.126L129.459 127.825C129.114 127.683 119.412 123.068 119.186 122.986C115.765 121.751 115.901 119.551 115.47 117.092C115.097 115.001 114.858 112.889 114.754 110.767C123.609 106.761 130.696 94.8888 131.944 91.5012C132.132 90.9223 132.523 89.8332 132.868 88.5408L133.589 88.4279C135.134 88.1695 136.585 87.5154 137.801 86.5293C139.298 85.2563 140.503 83.675 141.333 81.8935C143.094 78.3695 143.852 74.4296 143.525 70.5041C143.478 69.5003 143.222 68.5174 142.772 67.619C142.384 66.9682 141.855 66.4125 141.223 65.9929C140.592 65.5733 139.875 65.3004 139.125 65.1943C138.314 65.0738 137.485 65.1421 136.705 65.394C135.924 65.6459 135.212 66.0746 134.624 66.6467C128.643 64.6644 121.507 55.1885 119.21 50.8784C117.712 48.0715 116.025 42.5302 114.746 37.7428C114.717 37.6324 114.657 37.5324 114.574 37.454C114.491 37.3756 114.388 37.322 114.276 37.2991C114.164 37.2762 114.048 37.285 113.941 37.3245C113.833 37.3639 113.739 37.4326 113.669 37.5226C107.367 45.6393 98.6496 51.5442 88.7742 54.3856C86.6356 55.0219 88.0503 49.313 88.7817 45.3032C88.8059 45.1745 88.7884 45.0415 88.7318 44.9234C88.6751 44.8054 88.5822 44.7085 88.4667 44.647C88.3511 44.5854 88.2189 44.5624 88.0893 44.5812C87.9598 44.6 87.8396 44.6597 87.7463 44.7516C81.4689 50.885 74.7171 57.2348 68.4228 62.3846L62.7318 66.4528Z" fill="#FCE0CD"/>
<path d="M30.877 164.628C32.4772 158.213 36.0907 147.373 40.7105 142.414C44.0762 138.765 48.1471 135.836 52.677 133.805C57.8729 131.678 65.0163 127.922 66.5298 128.246C76.3083 133.151 87.0599 135.808 97.9977 136.023C108.854 136.066 123.156 132.241 130.496 127.957C131.336 127.418 139.567 131.86 144.317 133.805C148.847 135.836 152.918 138.765 156.284 142.414C160.903 147.376 164.513 158.217 166.117 164.628H30.877Z" fill="white"/>
<path d="M143.367 135.427C149.249 138.501 154.726 142.251 157.998 148.167C160.818 153.528 162.937 159.228 164.304 165.129C164.896 167.482 168.528 166.483 167.935 164.128C166.466 157.803 164.164 151.701 161.092 145.981C157.527 139.663 151.585 135.478 145.271 132.176C143.125 131.055 141.223 134.303 143.37 135.427H143.367Z" fill="#E2E2E2"/>
<path d="M32.6927 165.129C34.06 159.228 36.1795 153.528 38.9993 148.167C42.2495 142.29 47.7024 138.361 53.6296 135.427C55.8011 134.352 53.896 131.104 51.7292 132.176C45.3671 135.325 39.4473 139.706 35.9081 145.981C32.8354 151.701 30.5343 157.803 29.065 164.128C28.473 166.482 32.1025 167.481 32.6956 165.129H32.6927Z" fill="#E2E2E2"/>
<path d="M91.9604 95.3388C94.1027 96.4471 96.489 96.9999 98.9004 96.9465C101.407 97.0516 103.876 96.3204 105.921 94.8681C106.274 94.5151 106.473 94.0363 106.473 93.5372C106.473 93.038 106.274 92.5592 105.921 92.2062C105.562 91.8665 105.085 91.6772 104.59 91.6772C104.096 91.6772 103.619 91.8665 103.26 92.2062C103.836 91.7572 103.408 92.0866 103.26 92.1817C103.111 92.2768 102.977 92.3521 102.833 92.4283C102.758 92.4679 102.681 92.5036 102.605 92.5422C102.401 92.6476 102.417 92.514 102.699 92.5093C102.496 92.5576 102.299 92.6293 102.112 92.7229C101.575 92.8924 101.024 93.0184 100.467 93.0995C100.749 93.0562 100.467 93.0995 100.334 93.1098C100.173 93.1258 100.011 93.1399 99.8493 93.1503C99.4605 93.1748 99.0699 93.1851 98.6802 93.1823C98.331 93.1823 97.9818 93.1691 97.6325 93.1446C97.4725 93.1343 97.3125 93.1211 97.1534 93.1051C97.1158 93.1051 96.536 93.011 96.9463 93.0835C96.4279 92.9989 95.9147 92.8848 95.4092 92.7418C95.1937 92.6778 94.9838 92.6006 94.7711 92.5281C94.3004 92.3662 95.0713 92.6806 94.643 92.4782C94.3795 92.354 94.1197 92.225 93.8618 92.0885C93.4306 91.8365 92.9171 91.7661 92.434 91.8927C91.9509 92.0194 91.538 92.3328 91.286 92.7639C91.034 93.195 90.9635 93.7086 91.0902 94.1917C91.2168 94.6747 91.5302 95.0877 91.9613 95.3397L91.9604 95.3388Z" fill="#EFC0A0"/>
<path d="M97.9017 79.0442C98.2193 80.1903 98.4735 81.353 98.6632 82.527L98.5954 82.0262C98.6186 82.1855 98.6231 82.3469 98.6086 82.5072L98.6764 82.0064C98.6654 82.0801 98.6478 82.1525 98.6237 82.2229L98.8119 81.773C98.7906 81.8216 98.7651 81.8682 98.7357 81.9123L99.0303 81.5311C98.9967 81.5726 98.9585 81.6102 98.9164 81.6431L99.2976 81.3485C99.2092 81.4034 99.117 81.4521 99.0218 81.4944L99.4708 81.3061C99.3218 81.3696 99.1657 81.4151 99.0058 81.4417L99.5066 81.3739C99.3615 81.3913 99.2149 81.3913 99.0699 81.3739L99.5706 81.4407C99.4059 81.4181 99.2449 81.3777 99.0802 81.356C98.8369 81.277 98.5766 81.2653 98.3272 81.3221C98.0784 81.3329 97.8369 81.4099 97.6278 81.5452C97.4142 81.6699 97.2273 81.8355 97.0777 82.0325C96.9281 82.2295 96.8188 82.454 96.756 82.6933C96.6932 82.9326 96.6782 83.1818 96.7119 83.4269C96.7455 83.672 96.8271 83.908 96.952 84.1215C97.0719 84.3346 97.2338 84.5212 97.428 84.6699C97.6221 84.8186 97.8445 84.9263 98.0815 84.9865C98.4646 85.0383 98.8345 85.1353 99.227 85.1522C99.8162 85.1547 100.397 85.0155 100.921 84.7465C101.255 84.5938 101.551 84.3686 101.787 84.0872C102.022 83.8058 102.192 83.4754 102.284 83.12C102.406 82.5453 102.4 81.951 102.268 81.3786C102.08 80.2566 101.819 79.144 101.53 78.0437C101.398 77.5622 101.079 77.1532 100.645 76.9066C100.211 76.66 99.6962 76.596 99.2148 76.7287C98.7334 76.8614 98.3244 77.1799 98.0778 77.6141C97.8312 78.0484 97.7672 78.5628 97.8998 79.0442H97.9017Z" fill="#EFC0A0"/>
<path d="M79.5778 69.1552C78.9961 71.0453 79.3755 75.393 82.9561 75.763C87.6898 75.7347 87.9449 70.4777 86.3447 68.0059C85.0439 65.9821 81.2081 65.1406 79.5778 69.1552Z" fill="#645D5C"/>
<path d="M117.479 69.1552C118.061 71.0453 117.683 75.393 114.101 75.763C109.368 75.7347 109.112 70.4777 110.713 68.0059C112.014 65.9821 115.85 65.1406 117.479 69.1552Z" fill="#645D5C"/>
</svg>
