<svg width="100" height="100" viewBox="0 0 100 100" fill="none" xmlns="http://www.w3.org/2000/svg">
<circle cx="50" cy="50" r="50" fill="white"/>
<path d="M67.6702 35.2471C68.2084 34.7436 68.9338 34.5545 69.554 34.5755C70.9043 34.622 71.4789 35.3328 71.7261 35.7506C72.4642 36.997 72.433 39.2934 71.9373 40.7143C71.5863 41.7205 71.0117 43.26 69.6258 44.3639C69.0548 44.8187 68.2146 45.1183 67.4108 44.9864C67.4108 44.9864 67.3336 44.9736 67.1982 44.9514C66.9431 45.7715 66.6284 46.575 66.436 46.965C65.9017 48.3774 63.0709 53.1504 59.4178 55.3722C59.4169 56.8661 59.4169 57.8539 59.4169 57.8539C59.4169 58.2989 59.4169 58.7836 59.5856 59.2163C59.8122 59.7855 60.1168 60.2784 60.6064 60.6632C61.6438 61.4769 62.7102 61.8657 64.0233 62.3465L65.818 63.0361C65.818 63.0361 61.9524 69.7314 50.9988 69.7314C40.0452 69.7314 36.5389 63.0361 36.5389 63.0361L38.3381 62.3465C39.6512 61.8657 40.7175 61.4769 41.7549 60.6632C42.2449 60.2784 42.5495 59.7855 42.7757 59.2163C42.9444 58.7836 42.9444 58.2985 42.9444 57.8539C42.9444 57.8539 42.9444 56.9838 42.944 55.5553C41.3592 54.7108 39.9133 53.4679 38.5296 51.8554C36.5337 49.5295 35.3968 47.0239 34.7691 44.948C33.9127 45.1626 32.9871 44.8529 32.3726 44.3639C30.9867 43.26 30.4122 41.7205 30.0611 40.7143C29.5658 39.2934 29.5343 36.997 30.2723 35.7506C30.5195 35.3328 31.0941 34.622 32.4445 34.5755C33.0651 34.5541 33.79 34.7431 34.3282 35.2471C34.3282 35.2471 31.3694 21.0906 50.6539 21.0906C69.9383 21.0906 67.6685 35.2471 67.6685 35.2471H67.6702Z" fill="#FCE0CD"/>
<path d="M16.3757 78.6649C18.8222 69.0459 29.3173 62.0984 39.0266 60.803C39.0117 60.1855 39.3049 59.4998 39.674 59.0838C40.4817 58.1728 41.4994 56.8556 42.3251 55.9565C42.6758 56.233 49.8281 61.7233 50.3703 62.0976H51.6303C52.1725 61.7233 59.3248 56.233 59.6755 55.9565C60.5012 56.8556 61.5189 58.1732 62.3266 59.0838C62.6957 59.4998 62.9889 60.1855 62.974 60.803C72.6833 62.0984 83.1784 69.0459 85.6249 78.6649H16.3757Z" fill="white"/>
<path d="M51.4805 24.5375C49.9267 24.2584 44.4982 23.993 43.1246 24.1338C42.2379 24.2247 41.1729 24.223 39.9777 25.3021C38.8702 26.3023 39.0179 27.3921 38.4831 28.446C37.5549 30.2757 35.7487 30.7911 35.402 32.8405C35.1526 34.3143 35.1518 34.8861 35.0181 36.4491C34.6609 35.0308 33.4236 34.5418 32.4458 34.5755C32.0763 34.5883 31.7647 34.6506 31.5026 34.7432C29.8336 28.9742 30.2741 22.3933 33.655 17.3114C38.5511 9.95256 47.9439 6.90765 56.5115 9.30398C59.2276 10.0635 61.7126 11.5049 63.5854 13.5633L63.9154 13.9259C64.856 14.7533 65.7965 15.5807 65.7965 15.5807C71.0498 20.2009 72.696 28.2966 70.4836 34.7389C70.2236 34.6489 69.9169 34.5883 69.5535 34.5759C68.9329 34.5546 68.208 34.7436 67.6698 35.2475C67.6698 35.2475 67.2933 35.5996 66.9172 35.9516L66.8984 35.6951C66.6933 32.922 66.1095 31.1163 64.9866 29.325C63.7458 27.346 61.5334 26.1888 59.1855 25.6157C59.1855 25.6157 56.5431 25.0303 55.0371 24.8771C53.8936 24.7606 51.4805 24.5375 51.4805 24.5375Z" fill="#645D5C"/>
<path d="M47.8913 48.9772C48.9156 49.5038 50.0183 49.7252 51.1763 49.718C52.3601 49.7103 53.5491 49.4812 54.4967 48.7626C54.8601 48.487 54.8162 47.8414 54.4967 47.5559C54.111 47.2116 53.6447 47.2619 53.2573 47.5559C53.5246 47.3532 53.3226 47.5043 53.2542 47.5474C53.1884 47.5883 53.1209 47.6263 53.0517 47.6613C53.0158 47.6797 52.9794 47.6959 52.9434 47.7138C52.8273 47.7718 52.9027 47.6826 52.9838 47.7006C52.929 47.6886 52.762 47.7816 52.7046 47.7991C52.4499 47.8789 52.1878 47.934 51.9236 47.9728C52.055 47.9536 51.9148 47.9728 51.8565 47.9783C51.7798 47.9856 51.7031 47.992 51.6264 47.9967C51.4414 48.0082 51.2565 48.0129 51.0715 48.0116C50.9059 48.0108 50.7402 48.0052 50.5745 47.9941C50.4987 47.989 50.4229 47.983 50.347 47.9758C50.3326 47.9745 50.0582 47.9331 50.2441 47.9651C49.9977 47.9229 49.7545 47.8772 49.5147 47.8077C49.4126 47.7778 49.3131 47.7424 49.2119 47.7087C48.9901 47.6348 49.3473 47.7761 49.147 47.6843C49.0221 47.6267 48.8985 47.567 48.7762 47.5043C48.3708 47.2961 47.8046 47.3912 47.5771 47.8106C47.3632 48.2049 47.4588 48.7558 47.8918 48.9781L47.8913 48.9772Z" fill="#EFC0A0"/>
<path d="M50.7187 41.4583C50.8612 41.9878 50.9983 42.5255 51.0799 43.0678L51.0487 42.8408C51.0584 42.915 51.0628 42.9884 51.0549 43.0631L51.086 42.8361C51.0807 42.8707 51.0728 42.9031 51.061 42.9359L51.1495 42.732C51.139 42.7555 51.1281 42.7751 51.1132 42.7964L51.2503 42.6236C51.2333 42.6437 51.217 42.659 51.1964 42.6752L51.3739 42.5417C51.3323 42.5677 51.288 42.589 51.2429 42.6091L51.4524 42.5229C51.3805 42.5523 51.3091 42.5737 51.2315 42.5856L51.4647 42.5553C51.395 42.5634 51.327 42.563 51.2574 42.5553L51.4905 42.5856C51.4125 42.575 51.3358 42.5566 51.2578 42.5464C51.1412 42.511 51.0246 42.5058 50.908 42.531C50.7915 42.5361 50.6828 42.5698 50.582 42.6321C50.4001 42.7358 50.2265 42.9385 50.1792 43.142C50.1279 43.3605 50.1393 43.6059 50.2677 43.7996C50.3817 43.9715 50.5723 44.1631 50.7915 44.1917C50.9716 44.2152 51.1469 44.26 51.3301 44.2677C51.6128 44.2796 51.8749 44.1951 52.1274 44.0825C52.4398 43.943 52.684 43.6682 52.7668 43.3405C52.8374 43.0631 52.8071 42.8224 52.7589 42.5447C52.6691 42.0262 52.5459 41.5125 52.4087 41.0039C52.2926 40.5721 51.7772 40.267 51.3306 40.4078C50.8739 40.5516 50.5938 40.9949 50.7183 41.4574L50.7187 41.4583Z" fill="#EFC0A0"/>
<path d="M41.9714 36.8938C41.6953 37.7672 41.8755 39.7761 43.5747 39.9472C45.8209 39.934 45.9405 37.5052 45.1841 36.363C44.5648 35.4281 42.745 35.0389 41.9714 36.8938Z" fill="#645D5C"/>
<path d="M60.0283 36.8938C60.3044 37.7672 60.1247 39.7761 58.4251 39.9472C56.1789 39.934 56.0592 37.5052 56.8152 36.363C57.4341 35.4281 59.2547 35.0389 60.0283 36.8938Z" fill="#645D5C"/>
<path d="M17.2207 78.8921C19.1452 71.4599 25.8062 65.8932 32.9458 63.2272C34.9952 62.4621 37.1271 61.9134 39.3018 61.6207C39.7712 61.5575 40.0276 60.9734 39.9141 60.571C39.7752 60.0786 39.3066 59.9118 38.8359 59.9749C30.7632 61.0621 22.7899 65.6158 18.308 72.3056C17.0493 74.1843 16.0934 76.2628 15.5302 78.4385C15.2545 79.504 16.9445 79.9584 17.2207 78.8921Z" fill="#E2E2E2"/>
<path d="M86.4695 78.4379C84.407 70.4715 77.358 64.5742 69.7389 61.6637C67.6225 60.8555 65.4161 60.2778 63.1638 59.9744C62.6953 59.9112 62.2224 60.0849 62.0856 60.5705C61.973 60.969 62.2259 61.5566 62.6979 61.6201C70.2947 62.6429 77.88 66.7994 82.1358 73.1034C83.3389 74.8857 84.2435 76.8225 84.7791 78.8915C85.0547 79.9561 86.7461 79.5051 86.4695 78.4379Z" fill="#E2E2E2"/>
<path d="M48.302 64.3815C47.0516 65.6245 45.8007 66.8679 44.5503 68.1108L45.6127 67.9773C44.6489 67.3616 43.8039 66.3482 43.0606 65.441C42.2669 64.472 41.5371 63.4505 40.8411 62.4132C40.5966 62.0488 40.3559 61.6818 40.1258 61.3089C39.9032 60.9479 39.8515 60.9261 39.9238 60.5122C40.0531 59.7745 40.6943 59.2287 41.1562 58.6715C41.7449 57.9614 42.323 57.2429 42.9444 56.5598H41.705C44.1594 58.4867 46.6514 60.3727 49.1448 62.2515C49.6524 62.6338 49.978 62.9504 50.6521 62.9504C51.0286 62.9504 51.4936 63.0187 51.8631 62.9201C52.0774 62.8629 52.2479 62.7072 52.4201 62.5783C53.7985 61.5487 55.1607 60.4994 56.5264 59.454C57.7838 58.4914 59.0496 57.5373 60.2952 56.5598H59.0557C59.6772 57.2429 60.2553 57.9614 60.8439 58.6715C61.305 59.2275 61.9475 59.7753 62.0764 60.5122C62.15 60.9338 62.0961 60.9492 61.8743 61.3089C61.6442 61.6818 61.4036 62.0488 61.1591 62.4132C60.4631 63.4505 59.7333 64.472 58.9396 65.441C58.1967 66.3482 57.3513 67.3611 56.3875 67.9773L57.4499 68.1108C56.1994 66.8679 54.9486 65.6245 53.6982 64.3815C52.9075 63.5955 51.668 64.8027 52.4587 65.5882C53.7091 66.8312 54.96 68.0746 56.2104 69.3175C56.4703 69.5757 56.9529 69.6555 57.2728 69.4511C59.1754 68.235 60.5854 66.2325 61.8647 64.4425C62.3885 63.7095 62.8973 62.964 63.3711 62.199C63.9522 61.2598 63.9606 60.2699 63.478 59.2654C63.1423 58.5661 62.5213 57.993 62.0277 57.3965C61.4589 56.7091 60.8974 56.0144 60.2961 55.3535C59.9586 54.9827 59.4064 55.0787 59.0566 55.3535C57.7663 56.3665 56.4545 57.3551 55.1515 58.3523C54.2692 59.0273 53.387 59.7019 52.5025 60.3744C52.1909 60.6112 51.8789 60.8485 51.5659 61.0836C51.7544 60.9419 51.4327 61.1834 51.3709 61.2287C51.3104 61.273 51.2504 61.3178 51.189 61.3605L51.6312 61.244H50.3712L50.8134 61.3605C50.752 61.3178 50.692 61.273 50.6315 61.2287C50.5697 61.1834 50.248 60.9415 50.4365 61.0836C50.1235 60.848 49.8115 60.6112 49.4998 60.3744C48.6154 59.7024 47.7331 59.0273 46.8509 58.3523C45.5478 57.3547 44.2361 56.3665 42.9458 55.3535C42.5947 55.0778 42.0464 54.9793 41.7063 55.3535C41.2053 55.9043 40.7329 56.4783 40.2595 57.0517C39.7756 57.638 39.23 58.2 38.7886 58.817C38.1211 59.7502 37.9191 61.0166 38.5195 62.0176C39.5591 63.7504 40.7758 65.4133 42.0832 66.963C42.8594 67.883 43.6996 68.794 44.7291 69.4519C45.0491 69.6563 45.5299 69.5783 45.7915 69.3184C47.042 68.0754 48.2928 66.832 49.5432 65.5891C50.3335 64.8039 49.0949 63.596 48.3038 64.3824L48.302 64.3815Z" fill="#E2E2E2"/>
</svg>
