<svg width="200" height="200" viewBox="0 0 200 200" fill="none" xmlns="http://www.w3.org/2000/svg">
<circle cx="100" cy="100" r="100" fill="white"/>
<path d="M132.886 134.225C142.82 137.788 151.459 128.785 151.396 121.835C151.358 117.582 150.668 114.303 149.25 110.199C147.483 105.083 144.059 94.6866 143.811 76.1135C144.303 70.4923 143.792 62.372 143.57 59.2507C142.799 48.4313 137.962 36.3499 131.001 29.6342C128.23 26.9602 127.269 25.6 124.575 24.012C124.575 24.012 122.886 23.0157 121.196 22.0204L118.36 20.8704C112.621 18.5435 106.643 17 98.1524 17C84.2312 17 71.8414 24.1713 66.3433 29.4351C57.2221 38.1675 51.436 54.1183 52.1656 76.1126H52.1675C52.1675 91.019 50.9453 101.77 49.2332 107.883C48.0694 112.065 47.0749 119.029 47.0323 123.279C46.9814 129.451 52.9008 136.146 61.998 135.926" fill="#645D5C"/>
<path d="M55.011 82.4903C54.6212 79.6793 54.8786 76.3645 56.0526 74.3469C56.5712 73.4552 57.7739 71.9395 60.5869 71.8506C61.835 71.8117 63.285 72.1932 64.3887 73.1932C71.671 67.8108 80.0043 60.0738 87.6598 52.6081C88.27 52.0128 89.3496 52.5211 89.1913 53.359C88.8672 55.0757 88.4524 57.2479 88.121 58.9331C87.8052 60.5377 89.4811 61.3803 91.0145 60.8108C99.4496 57.6766 107.549 52.3452 113.265 45.4711C113.729 44.9128 114.63 45.1165 114.82 45.8174C116.059 50.3952 117.647 55.5368 119.063 58.1914C121.286 62.3581 128.105 71.4339 133.929 73.5978C135.051 72.5043 136.573 72.0997 137.874 72.1506C140.686 72.2608 141.877 73.7867 142.389 74.6821C143.916 77.3543 143.832 82.2672 142.788 85.3024C142.049 87.4523 140.839 90.7403 137.944 93.0912C136.751 94.0597 134.998 94.694 133.325 94.4051L132.883 94.3282C132.345 96.081 131.683 97.7967 131.279 98.6301C130.111 101.761 123.765 112.612 115.723 117.069C115.75 118.746 115.699 119.353 115.854 121.465C115.924 122.414 115.997 123.439 116.349 124.365C116.82 125.583 117.454 126.637 118.474 127.46C120.366 128.984 122.304 129.811 124.594 130.684C117.208 134.941 108.674 136.9 100.118 136.671C91.4024 136.912 82.708 134.854 75.2701 130.418C77.2645 129.635 79.0006 128.829 80.6997 127.459C81.7201 126.636 82.3543 125.582 82.8256 124.364C83.1775 123.438 83.2506 122.413 83.3201 121.464C83.4627 119.505 83.4293 118.84 83.4451 117.419C79.6877 115.611 76.3192 112.73 73.1155 108.865C68.9775 103.873 66.6313 98.5041 65.3405 94.0579C63.5554 94.5106 61.6295 93.8403 60.3545 92.7884C57.4776 90.4162 56.2934 87.1181 55.5712 84.9625C55.3249 84.2274 55.1351 83.3839 55.011 82.4885V82.4903Z" fill="#FCE0CD"/>
<path d="M92.7108 102.774C94.8478 103.903 97.1487 104.378 99.5653 104.362C102.038 104.347 104.52 103.852 106.5 102.311C107.267 101.712 107.175 100.312 106.5 99.6921C105.685 98.9449 104.7 99.0541 103.881 99.6921C104.447 99.2514 104.025 99.5764 103.879 99.6699C103.742 99.7578 103.601 99.8384 103.458 99.9143C103.384 99.9532 103.307 99.9884 103.232 100.026C103.022 100.135 103.064 99.9875 103.323 99.9949C103.165 99.9902 102.896 100.156 102.741 100.206C102.211 100.376 101.665 100.494 101.115 100.577C101.395 100.535 101.113 100.575 100.982 100.587C100.823 100.603 100.663 100.616 100.502 100.627C100.117 100.652 99.732 100.662 99.3459 100.66C99.0005 100.658 98.6552 100.646 98.3107 100.623C98.1524 100.612 97.9941 100.599 97.8366 100.584C97.8015 100.58 97.2283 100.49 97.6292 100.562C97.1163 100.47 96.6098 100.374 96.1098 100.224C95.8968 100.161 95.6894 100.085 95.4792 100.012C95.0126 99.8532 95.7718 100.162 95.3506 99.9625C95.0904 99.8393 94.833 99.7115 94.5783 99.5773C93.7219 99.1254 92.5256 99.3319 92.045 100.242C91.5932 101.098 91.795 102.293 92.7098 102.775L92.7108 102.774Z" fill="#EFC0A0"/>
<path d="M98.5875 86.6737C98.8848 87.8061 99.1699 88.957 99.3403 90.1162L99.2746 89.6237C99.2949 89.7829 99.3033 89.9394 99.2875 90.0987L99.3533 89.6061C99.3422 89.6801 99.3255 89.7496 99.3014 89.82L99.4885 89.3774C99.4662 89.4274 99.4431 89.47 99.4135 89.5144L99.7033 89.1394C99.6681 89.182 99.6338 89.2153 99.5912 89.2505L99.9662 88.9607C99.8792 89.0163 99.7875 89.0616 99.694 89.1051L100.137 88.9181C99.9866 88.9811 99.8375 89.0264 99.6774 89.0524L100.17 88.9866C100.025 89.0042 99.8838 89.0024 99.7385 88.9866L100.231 89.0524C100.068 89.0301 99.9088 88.9903 99.7459 88.9681C99.4996 88.8913 99.2533 88.8801 99.007 88.9348C98.7607 88.9459 98.5311 89.019 98.3181 89.1542C97.9338 89.3792 97.5672 89.819 97.4672 90.2607C97.3588 90.7348 97.3829 91.2672 97.6542 91.6875C97.8949 92.0607 98.2977 92.4764 98.7607 92.5385C99.1385 92.5894 99.5051 92.6857 99.8903 92.7023C100.484 92.7283 101.035 92.5459 101.564 92.3023C102.221 92.0014 102.734 91.4061 102.908 90.6996C103.056 90.1005 102.993 89.5829 102.891 88.9829C102.704 87.8737 102.448 86.7746 102.163 85.6866C102.045 85.2394 101.709 84.8126 101.312 84.5802C100.914 84.3478 100.329 84.2496 99.8848 84.3931C98.92 84.7052 98.3283 85.6672 98.5912 86.6709L98.5875 86.6737Z" fill="#EFC0A0"/>
<path d="M80.4673 76.9006C79.8923 78.7691 80.2673 83.0672 83.8071 83.433C88.4858 83.4052 88.7339 78.2089 87.1598 75.7654C85.87 73.7654 82.0793 72.933 80.4682 76.9006H80.4673Z" fill="#645D5C"/>
<path d="M117.93 76.9006C118.505 78.7691 118.13 83.0672 114.591 83.433C109.912 83.4052 109.663 78.2089 111.238 75.7654C112.527 73.7654 116.319 72.9321 117.93 76.9006Z" fill="#645D5C"/>
<path d="M34 165C38.437 147.325 55.8147 134.002 73.5423 129.334C81.3432 134.518 90.7182 136.932 100.118 136.672C109.436 136.921 118.727 134.575 126.536 129.5C144.052 134.299 161.094 147.522 165.481 165" fill="#FFDA71"/>
</svg>
