<svg width="100" height="100" viewBox="0 0 100 100" fill="none" xmlns="http://www.w3.org/2000/svg">
<circle cx="50" cy="50" r="50" fill="white"/>
<path d="M67.899 68.802C73.263 70.726 77.9285 65.8645 77.8945 62.111C77.874 59.8145 77.501 58.044 76.7355 55.828C75.781 53.065 73.932 47.451 73.7985 37.4215C74.064 34.386 73.788 30.001 73.668 28.3155C73.252 22.473 70.64 15.949 66.881 12.3225C65.3845 10.8785 64.8655 10.144 63.411 9.2865C63.411 9.2865 62.4985 8.7485 61.586 8.211L60.0545 7.59C56.9555 6.3335 53.7275 5.5 49.1425 5.5C41.625 5.5 34.9345 9.3725 31.9655 12.215C27.04 16.9305 23.9155 25.544 24.3095 37.421H24.3105C24.3105 45.4705 23.6505 51.276 22.726 54.577C22.0975 56.8355 21.5605 60.596 21.5375 62.891C21.51 66.224 24.7065 69.839 29.619 69.7205" fill="#645D5C"/>
<path d="M25.846 40.8652C25.6355 39.3472 25.7745 37.5572 26.4085 36.4677C26.6885 35.9862 27.338 35.1677 28.857 35.1197C29.531 35.0987 30.314 35.3047 30.91 35.8447C34.8425 32.9382 39.3425 28.7602 43.4765 24.7287C43.806 24.4072 44.389 24.6817 44.3035 25.1342C44.1285 26.0612 43.9045 27.2342 43.7255 28.1442C43.555 29.0107 44.46 29.4657 45.288 29.1582C49.843 27.4657 54.2165 24.5867 57.3035 20.8747C57.554 20.5732 58.0405 20.6832 58.143 21.0617C58.812 23.5337 59.6695 26.3102 60.4345 27.7437C61.6345 29.9937 65.317 34.8947 68.462 36.0632C69.068 35.4727 69.89 35.2542 70.5925 35.2817C72.111 35.3412 72.754 36.1652 73.0305 36.6487C73.855 38.0917 73.8095 40.7447 73.246 42.3837C72.847 43.5447 72.1935 45.3202 70.63 46.5897C69.986 47.1127 69.0395 47.4552 68.136 47.2992L67.897 47.2577C67.6065 48.2042 67.249 49.1307 67.031 49.5807C66.4005 51.2712 62.9735 57.1312 58.6305 59.5377C58.6455 60.4432 58.618 60.7712 58.7015 61.9117C58.739 62.4242 58.7785 62.9777 58.9685 63.4777C59.223 64.1352 59.5655 64.7047 60.1165 65.1492C61.138 65.9722 62.1845 66.4187 63.421 66.8902C59.4325 69.1887 54.824 70.2467 50.204 70.1232C45.4975 70.2532 40.8025 69.1417 36.786 66.7462C37.863 66.3237 38.8005 65.8882 39.718 65.1487C40.269 64.7042 40.6115 64.1347 40.866 63.4772C41.056 62.9772 41.0955 62.4237 41.133 61.9112C41.21 60.8532 41.192 60.4942 41.2005 59.7267C39.1715 58.7502 37.3525 57.1947 35.6225 55.1077C33.388 52.4117 32.121 49.5127 31.424 47.1117C30.46 47.3562 29.42 46.9942 28.7315 46.4262C27.178 45.1452 26.5385 43.3642 26.1485 42.2002C26.0155 41.8032 25.913 41.3477 25.846 40.8642V40.8652Z" fill="#FCE0CD"/>
<path d="M46.204 51.8185C47.358 52.428 48.6005 52.6845 49.9055 52.676C51.241 52.6675 52.581 52.4005 53.65 51.568C54.0645 51.245 54.0145 50.4885 53.65 50.154C53.21 49.7505 52.678 49.8095 52.236 50.154C52.5415 49.916 52.314 50.0915 52.235 50.142C52.161 50.1895 52.085 50.233 52.0075 50.274C51.9675 50.295 51.926 50.314 51.8855 50.3345C51.772 50.393 51.795 50.3135 51.9345 50.3175C51.8495 50.315 51.704 50.4045 51.6205 50.4315C51.334 50.5235 51.0395 50.587 50.7425 50.632C50.8935 50.609 50.741 50.631 50.6705 50.6375C50.5845 50.646 50.498 50.653 50.4115 50.659C50.2035 50.6725 49.9955 50.6775 49.787 50.6765C49.6005 50.6755 49.414 50.669 49.228 50.6565C49.1425 50.6505 49.057 50.644 48.972 50.6355C48.953 50.6335 48.6435 50.585 48.86 50.6235C48.583 50.574 48.3095 50.522 48.0395 50.4415C47.9245 50.407 47.8125 50.366 47.699 50.327C47.447 50.241 47.857 50.4075 47.6295 50.3C47.489 50.2335 47.35 50.1645 47.2125 50.092C46.75 49.848 46.104 49.9595 45.8445 50.451C45.6005 50.913 45.7095 51.5585 46.2035 51.819L46.204 51.8185Z" fill="#EFC0A0"/>
<path d="M49.3775 43.1242C49.538 43.7357 49.692 44.3572 49.784 44.9832L49.7485 44.7172C49.7595 44.8032 49.764 44.8877 49.7555 44.9737L49.791 44.7077C49.785 44.7477 49.776 44.7852 49.763 44.8232L49.864 44.5842C49.852 44.6112 49.8395 44.6342 49.8235 44.6582L49.98 44.4557C49.961 44.4787 49.9425 44.4967 49.9195 44.5157L50.122 44.3592C50.075 44.3892 50.0255 44.4137 49.975 44.4372L50.214 44.3362C50.133 44.3702 50.0525 44.3947 49.966 44.4087L50.232 44.3732C50.1535 44.3827 50.0775 44.3817 49.999 44.3732L50.265 44.4087C50.177 44.3967 50.091 44.3752 50.003 44.3632C49.87 44.3217 49.737 44.3157 49.604 44.3452C49.471 44.3512 49.347 44.3907 49.232 44.4637C49.0245 44.5852 48.8265 44.8227 48.7725 45.0612C48.714 45.3172 48.727 45.6047 48.8735 45.8317C49.0035 46.0332 49.221 46.2577 49.471 46.2912C49.675 46.3187 49.873 46.3707 50.081 46.3797C50.4015 46.3937 50.699 46.2952 50.985 46.1637C51.3395 46.0012 51.6165 45.6797 51.7105 45.2982C51.7905 44.9747 51.7565 44.6952 51.7015 44.3712C51.6005 43.7722 51.462 43.1787 51.308 42.5912C51.2445 42.3497 51.063 42.1192 50.8485 41.9937C50.634 41.8682 50.318 41.8152 50.078 41.8927C49.557 42.0612 49.2375 42.5807 49.3795 43.1227L49.3775 43.1242Z" fill="#EFC0A0"/>
<path d="M39.5925 37.8465C39.282 38.8555 39.4845 41.1765 41.396 41.374C43.9225 41.359 44.0565 38.553 43.2065 37.2335C42.51 36.1535 40.463 35.704 39.593 37.8465H39.5925Z" fill="#645D5C"/>
<path d="M59.8225 37.8465C60.133 38.8555 59.9305 41.1765 58.0195 41.374C55.493 41.359 55.3585 38.553 56.209 37.2335C56.905 36.1535 58.9525 35.7035 59.8225 37.8465Z" fill="#645D5C"/>
<path d="M14.5 85.4206C16.896 75.8761 26.28 68.6816 35.853 66.1606C40.0655 68.9601 45.128 70.2636 50.204 70.1236C55.2355 70.2581 60.253 68.9911 64.47 66.2506C73.9285 68.8421 83.131 75.9826 85.5 85.4206" fill="#FFDA71"/>
</svg>
