<svg width="100" height="100" viewBox="0 0 100 100" fill="none" xmlns="http://www.w3.org/2000/svg">
<circle cx="50" cy="50" r="50" fill="white"/>
<path d="M30.5992 64.9513C25.9747 65.0628 22.9664 61.6596 22.9923 58.5228C23.0822 55.8816 23.4572 53.2578 24.1105 50.697C24.9807 47.5908 25.602 42.1257 25.602 34.5484C25.2302 23.3688 28.1712 15.2611 32.8075 10.8239C35.6021 8.14836 41.9002 4.50326 48.9758 4.50326C52.4983 4.44717 55.9947 5.11633 59.2476 6.46912L60.6891 7.05365L62.407 8.066C63.776 8.87314 64.2646 9.56451 65.6732 10.9237C69.211 14.3368 71.6701 20.4777 72.0617 25.9776C72.2955 28.8285 72.3363 31.692 72.184 34.5484C72.3097 43.9895 74.0506 49.2733 74.9486 51.8741C75.6552 53.7665 76.0245 55.7682 76.0395 57.7881C76.0715 61.3217 71.1886 66.0281 66.1396 64.2175L30.5992 64.9513Z" fill="#FEBE69"/>
<path d="M31.3659 33.2264C31.074 32.9732 30.7309 32.786 30.36 32.6775C29.9892 32.569 29.5993 32.5417 29.2169 32.5976C28.8417 32.6506 28.4831 32.787 28.1675 32.9968C27.8519 33.2066 27.5873 33.4845 27.3932 33.81C27.1681 34.2592 27.0398 34.7506 27.0167 35.2525C26.8532 37.2153 27.2322 39.1852 28.1124 40.9472C28.5276 41.8384 29.1304 42.6294 29.8796 43.2661C30.6599 43.9104 31.6417 44.2603 32.6536 44.2544C33.3203 46.7647 34.5136 49.1043 36.1542 51.1178C37.6766 53.0313 39.6336 54.5541 41.8626 55.5597C41.8104 56.5618 41.6926 57.5595 41.5101 58.5463C41.2945 59.7761 41.3618 60.876 39.6515 61.4935C39.5385 61.5344 34.129 64.0646 33.7996 64.1761C33.7996 64.1761 33.7007 64.21 33.5435 64.2623C38.3603 66.6235 43.6355 67.902 48.9989 68.0081C54.3533 68.0293 61.3833 66.1688 65.0948 64.0632L64.7295 63.9126C64.5568 63.8415 59.7059 61.534 59.593 61.493C57.8827 60.8755 57.9504 59.7756 57.7349 58.5459C57.5485 57.5005 57.429 56.4443 57.3772 55.3836C61.8045 53.3806 65.348 47.4444 65.972 45.7506C66.0662 45.4611 66.2615 44.9166 66.4342 44.2704L66.7947 44.2139C67.5668 44.0848 68.2923 43.7577 68.9003 43.2647C69.6491 42.6282 70.2516 41.8375 70.6667 40.9468C71.5467 39.1848 71.9257 37.2148 71.7623 35.252C71.7392 34.7501 71.6109 34.2587 71.3858 33.8095C71.1917 33.4841 70.9272 33.2063 70.6117 32.9964C70.2962 32.7866 69.9377 32.6502 69.5625 32.5972C69.1568 32.5369 68.7427 32.5711 68.3523 32.697C67.9619 32.823 67.6059 33.0373 67.3119 33.3233C64.3215 32.3322 60.7536 27.5942 59.6047 25.4392C58.856 24.0357 58.0126 21.2651 57.373 18.8714C57.3583 18.8162 57.3285 18.7662 57.287 18.727C57.2455 18.6878 57.1938 18.661 57.1379 18.6495C57.0819 18.6381 57.0239 18.6425 56.9703 18.6622C56.9167 18.682 56.8697 18.7163 56.8346 18.7613C53.6835 22.8196 49.3248 25.7721 44.3871 27.1928C43.3178 27.5109 44.0252 24.6565 44.3908 22.6516C44.403 22.5873 44.3942 22.5207 44.3659 22.4617C44.3375 22.4027 44.2911 22.3543 44.2333 22.3235C44.1755 22.2927 44.1094 22.2812 44.0447 22.2906C43.9799 22.3 43.9198 22.3299 43.8731 22.3758C40.7344 25.4425 37.3585 28.6174 34.2114 31.1923L31.3659 33.2264Z" fill="#FCE0CD"/>
<path d="M15.4385 82.3142C16.2386 79.1068 18.0454 73.6864 20.3552 71.2071C22.0381 69.3824 24.0735 67.9181 26.3385 66.9026C28.9364 65.8389 32.5081 63.9611 33.2649 64.123C38.1541 66.5757 43.5299 67.9043 48.9989 68.0114C54.4272 68.0331 61.5781 66.1204 65.2482 63.9785C65.668 63.7093 69.7832 65.9303 72.1586 66.9026C74.4235 67.9181 76.459 69.3824 78.1418 71.2071C80.4517 73.6883 82.2566 79.1086 83.0586 82.3142H15.4385Z" fill="white"/>
<path d="M71.6837 67.7135C74.6243 69.2506 77.3629 71.1256 78.9989 74.0836C80.4089 76.7638 81.4687 79.6141 82.1521 82.5645C82.4482 83.7411 84.2639 83.2413 83.9674 82.0642C83.2328 78.9017 82.0822 75.8505 80.5458 72.9903C78.7635 69.8313 75.7924 67.7389 72.6353 66.0879C71.5627 65.5273 70.6116 67.1515 71.6851 67.7135H71.6837Z" fill="#E2E2E2"/>
<path d="M16.3464 82.5646C17.03 79.6143 18.0898 76.764 19.4996 74.0837C21.1248 71.145 23.8512 69.1806 26.8148 67.7136C27.9006 67.1761 26.948 65.5519 25.8646 66.088C22.6835 67.6628 19.7237 69.8531 17.9541 72.9904C16.4177 75.8506 15.2672 78.9018 14.5325 82.0643C14.2365 83.2409 16.0513 83.7407 16.3478 82.5646H16.3464Z" fill="#E2E2E2"/>
<path d="M45.9802 47.6694C47.0513 48.2236 48.2445 48.5 49.4502 48.4732C50.7032 48.5258 51.9382 48.1602 52.9607 47.4341C53.1372 47.2575 53.2363 47.0182 53.2363 46.7686C53.2363 46.519 53.1372 46.2796 52.9607 46.1031C52.7808 45.9332 52.5427 45.8386 52.2952 45.8386C52.0478 45.8386 51.8097 45.9332 51.6297 46.1031C51.9178 45.8786 51.7041 46.0433 51.6297 46.0909C51.5554 46.1384 51.4885 46.176 51.4165 46.2142C51.3789 46.2339 51.3403 46.2518 51.3026 46.2711C51.2005 46.3238 51.2085 46.257 51.3497 46.2546C51.248 46.2788 51.1495 46.3147 51.056 46.3615C50.7873 46.4462 50.5122 46.5092 50.2333 46.5497C50.3745 46.5281 50.2333 46.5497 50.167 46.5549C50.0865 46.5629 50.0056 46.57 49.9246 46.5751C49.7302 46.5874 49.5349 46.5926 49.3401 46.5911C49.1655 46.5911 48.9909 46.5846 48.8162 46.5723C48.7362 46.5671 48.6562 46.5606 48.5767 46.5526C48.5579 46.5526 48.268 46.5055 48.4732 46.5417C48.2139 46.4994 47.9573 46.4424 47.7046 46.3709C47.5968 46.3389 47.4919 46.3003 47.3855 46.264C47.1502 46.1831 47.5356 46.3403 47.3215 46.2391C47.1897 46.177 47.0598 46.1125 46.9309 46.0443C46.7153 45.9183 46.4585 45.883 46.217 45.9464C45.9754 46.0097 45.769 46.1664 45.643 46.3819C45.517 46.5975 45.4817 46.8543 45.5451 47.0958C45.6084 47.3374 45.7651 47.5438 45.9806 47.6698L45.9802 47.6694Z" fill="#EFC0A0"/>
<path d="M48.9508 39.5222C49.1096 40.0952 49.2367 40.6765 49.3316 41.2635L49.2977 41.0132C49.3093 41.0928 49.3115 41.1735 49.3043 41.2537L49.3382 41.0033C49.3327 41.0401 49.3239 41.0763 49.3118 41.1115L49.4059 40.8866C49.3953 40.9108 49.3825 40.9342 49.3678 40.9562L49.5151 40.7656C49.4983 40.7864 49.4792 40.8051 49.4582 40.8216L49.6488 40.6743C49.6045 40.7018 49.5585 40.7261 49.5109 40.7473L49.7354 40.6531C49.6608 40.6849 49.5828 40.7076 49.5029 40.7209L49.7533 40.687C49.6807 40.6957 49.6074 40.6957 49.5349 40.687L49.7853 40.7204C49.7029 40.7091 49.6224 40.6889 49.5401 40.6781C49.4184 40.6385 49.2883 40.6327 49.1636 40.6611C49.0391 40.6665 48.9184 40.705 48.8139 40.7727C48.7071 40.835 48.6136 40.9178 48.5388 41.0163C48.464 41.1148 48.4094 41.2271 48.378 41.3467C48.3466 41.4663 48.3391 41.591 48.3559 41.7135C48.3727 41.836 48.4135 41.9541 48.476 42.0608C48.5359 42.1674 48.6169 42.2607 48.714 42.335C48.811 42.4094 48.9222 42.4632 49.0407 42.4933C49.2323 42.5192 49.4172 42.5677 49.6135 42.5762C49.9081 42.5774 50.1986 42.5078 50.4606 42.3733C50.6276 42.297 50.7754 42.1844 50.8933 42.0437C51.0111 41.903 51.0962 41.7378 51.1421 41.5601C51.2028 41.2727 51.2001 40.9756 51.1341 40.6894C51.04 40.1284 50.9096 39.5721 50.7651 39.0219C50.6988 38.7812 50.5396 38.5767 50.3224 38.4534C50.1053 38.3301 49.8481 38.2981 49.6074 38.3644C49.3667 38.4308 49.1622 38.59 49.0388 38.8071C48.9155 39.0243 48.8835 39.2815 48.9499 39.5222H48.9508Z" fill="#EFC0A0"/>
<path d="M39.7889 34.5775C39.498 35.5225 39.6877 37.6964 41.478 37.8814C43.8449 37.8672 43.9724 35.2387 43.1723 34.0028C42.5219 32.9909 40.604 32.5702 39.7889 34.5775Z" fill="#645D5C"/>
<path d="M58.7397 34.5775C59.0306 35.5225 58.8414 37.6964 57.0506 37.8814C54.6842 37.8672 54.5562 35.2387 55.3563 34.0028C56.0072 32.9909 57.925 32.5702 58.7397 34.5775Z" fill="#645D5C"/>
</svg>
