<svg width="807" height="334" viewBox="0 0 807 334" fill="none" xmlns="http://www.w3.org/2000/svg">
<rect width="807" height="334" rx="50" fill="#A98A75"/>
<g filter="url(#filter0_d_31_224)">
<path d="M346.412 281.052C332.659 281.052 320.696 278.854 310.523 274.46C300.351 269.984 292.457 263.067 286.842 253.708C281.227 244.349 278.419 232.264 278.419 217.453C278.419 195.236 284.116 178.431 295.509 167.038C306.902 155.645 322.039 149.948 340.919 149.948C353.207 149.948 363.583 152.146 372.047 156.54C380.592 160.935 387.062 166.997 391.456 174.729C395.932 182.46 398.17 191.289 398.17 201.218C398.17 210.902 395.688 217.657 390.724 221.481C385.759 225.306 378.517 227.219 368.995 227.219H316.627C317.278 235.601 320.33 241.989 325.782 246.384C331.316 250.778 338.803 252.976 348.243 252.976C355.73 252.976 361.712 251.877 366.188 249.68C370.745 247.401 373.919 245.611 375.709 244.309C377.255 243.169 379.005 242.64 380.958 242.722C382.504 242.722 384.701 243.047 387.55 243.698C390.479 244.268 393.368 245.367 396.217 246.994C398.251 248.052 399.269 249.517 399.269 251.389C399.269 252.447 399.065 253.952 398.658 255.905C398.414 257.045 398.007 258.713 397.438 260.91C396.868 263.026 396.135 265.02 395.24 266.892C394.752 267.787 393.979 268.641 392.921 269.455C391.293 270.594 388.648 272.1 384.986 273.972C381.406 275.843 376.482 277.471 370.216 278.854C363.95 280.319 356.015 281.052 346.412 281.052ZM316.383 202.194H356.178C360.328 202.194 362.403 200.282 362.403 196.457C362.403 190.679 360.572 185.837 356.91 181.931C353.329 177.943 347.918 175.949 340.675 175.949C332.781 175.949 326.962 178.472 323.219 183.518C319.557 188.563 317.278 194.789 316.383 202.194ZM487.281 149.948C496.965 149.948 504.005 150.762 508.399 152.39C512.794 153.936 515.561 155.157 516.7 156.052C518.491 157.191 519.874 158.656 520.851 160.446C521.42 161.341 522.071 162.888 522.804 165.085C523.536 167.282 524.065 169.683 524.391 172.287C524.798 174.322 524.838 175.786 524.513 176.682C524.187 177.495 523.17 178.513 521.461 179.733C519.508 181.035 517.351 182.215 514.991 183.273C512.713 184.25 510.841 184.942 509.376 185.349C508.155 185.674 507.219 185.756 506.568 185.593C505.917 185.43 505.022 184.942 503.883 184.128C502.581 183.233 500.75 182.256 498.39 181.198C496.03 180.059 492.774 179.489 488.624 179.489C483.334 179.489 478.289 180.791 473.487 183.396C468.767 186 464.902 189.906 461.891 195.114C458.961 200.323 457.496 206.833 457.496 214.646C457.496 226.364 460.548 235.438 466.651 241.867C472.836 248.296 481.096 251.511 491.432 251.511C496.721 251.511 501.116 250.982 504.615 249.924C508.115 248.785 510.882 247.645 512.916 246.506C514.544 245.611 515.764 245.407 516.578 245.896C517.473 246.302 518.165 247.076 518.653 248.215L527.564 268.356C528.46 270.472 527.971 271.978 526.1 272.873C523.089 274.419 518.124 276.169 511.207 278.122C504.29 280.075 495.745 281.052 485.572 281.052C465.146 281.052 448.829 275.64 436.622 264.816C424.415 253.911 418.312 237.635 418.312 215.988C418.312 202.154 421.119 190.313 426.734 180.466C432.35 170.619 440.325 163.091 450.66 157.883C460.995 152.593 473.202 149.948 487.281 149.948ZM579.933 281.052C567.97 281.052 558.448 277.715 551.368 271.042C544.369 264.287 540.87 255.01 540.87 243.21C540.87 237.106 541.969 231.451 544.166 226.242C546.445 220.952 550.351 216.314 555.885 212.326C561.5 208.257 569.312 205.002 579.322 202.561C589.413 200.119 602.271 198.695 617.896 198.288C617.896 190.882 616.025 185.552 612.281 182.297C608.619 179.042 603.085 177.414 595.68 177.414C589.007 177.414 583.554 178.553 579.322 180.832C575.09 183.111 572.446 184.657 571.388 185.471C570.248 186.447 568.865 186.813 567.237 186.569C565.04 186.244 562.68 185.674 560.157 184.86C557.716 184.047 555.071 183.111 552.223 182.053C551.816 181.89 551.368 181.646 550.88 181.32C550.392 180.913 550.107 180.344 550.025 179.611C550.025 179.204 550.066 178.716 550.147 178.146C550.229 177.495 550.432 176.356 550.758 174.729C551.083 173.101 551.572 171.107 552.223 168.747C552.874 166.306 553.484 164.434 554.054 163.132C554.786 161.748 556.007 160.446 557.716 159.226C559.099 158.086 563.29 156.255 570.289 153.732C577.288 151.21 587.42 149.948 600.685 149.948C637.224 149.948 655.494 167.73 655.494 203.293V272.385C655.494 273.931 655.047 275.274 654.151 276.413C653.338 277.471 651.913 278 649.879 278H631.568C630.266 278 629.086 277.837 628.028 277.512C627.052 277.105 626.116 276.372 625.221 275.314L617.652 265.549H616.798C613.054 271.001 608.009 274.948 601.661 277.39C595.395 279.831 588.152 281.052 579.933 281.052ZM593.36 252.731C600.847 252.731 606.503 250.819 610.328 246.994C614.153 243.169 616.594 239.222 617.652 235.153V221.604C606.34 221.604 597.836 222.499 592.14 224.289C586.524 225.998 582.781 228.277 580.909 231.125C579.037 233.892 578.102 236.903 578.102 240.158C578.102 244.878 579.566 248.174 582.496 250.046C585.426 251.836 589.047 252.731 593.36 252.731ZM734.474 271.53C734.474 273.972 733.945 275.681 732.887 276.657C731.91 277.552 730.201 278 727.76 278H702.613C700.172 278 698.422 277.552 697.364 276.657C696.388 275.681 695.899 273.972 695.899 271.53V181.442H681.495C679.054 181.442 677.345 180.954 676.368 179.978C675.473 178.92 675.025 177.17 675.025 174.729V159.714C675.025 157.272 675.473 155.563 676.368 154.587C677.345 153.529 679.054 153 681.495 153H695.899V137.497C695.899 127.65 697.853 119.187 701.759 112.106C705.746 105.026 711.077 99.5739 717.75 95.749C724.505 91.9242 731.992 90.0117 740.211 90.0117C744.036 90.0117 746.925 90.1745 748.878 90.5C750.912 90.8255 752.418 91.3138 753.395 91.9648C756.568 93.7552 760.963 97.4173 766.578 102.951C767.473 103.928 767.921 104.904 767.921 105.881C767.921 106.939 767.229 108.16 765.846 109.543C763.404 112.066 761.085 114.222 758.888 116.013C756.69 117.722 754.9 119.024 753.517 119.919C752.296 120.651 751.197 121.099 750.221 121.262C749.326 121.343 748.064 121.384 746.437 121.384C738.461 121.384 734.474 127.487 734.474 139.694V153H756.568C759.01 153 760.678 153.529 761.573 154.587C762.55 155.563 763.038 157.272 763.038 159.714V174.729C763.038 177.17 762.55 178.92 761.573 179.978C760.678 180.954 759.01 181.442 756.568 181.442H734.474V271.53Z" fill="white"/>
</g>
<g filter="url(#filter1_d_31_224)">
<path d="M86.5557 291C74.8206 291 65.877 289.519 59.7246 286.557C53.6862 283.594 49.5846 278.752 47.4199 272.03C45.3691 265.308 44.3438 256.365 44.3438 245.199V91.7324C44.3438 80.3392 45.3691 71.3385 47.4199 64.7305C49.5846 58.0085 53.6862 53.2233 59.7246 50.375C65.877 47.4128 74.8206 45.9316 86.5557 45.9316H139.021C163.517 45.9316 184.936 49.5775 203.279 56.8691C221.736 64.1608 236.092 76.5225 246.346 93.9541C256.6 111.272 261.727 135.084 261.727 165.39C261.727 195.696 256.6 220.077 246.346 238.534C236.092 256.877 221.736 270.207 203.279 278.524C184.936 286.841 163.517 291 139.021 291H86.5557ZM119.026 90.8779C111.507 90.8779 106.38 92.473 103.646 95.6631C100.911 98.8532 99.5439 104.322 99.5439 112.069V224.862C99.5439 232.496 100.911 237.965 103.646 241.269C106.38 244.573 111.507 246.225 119.026 246.225H126.888C151.269 246.225 170.125 240.243 183.455 228.28C196.899 216.317 203.621 195.582 203.621 166.073C203.621 146.363 200.545 131.096 194.393 120.272C188.354 109.335 179.581 101.701 168.074 97.3721C156.567 93.0426 142.724 90.8779 126.546 90.8779H119.026Z" fill="white"/>
</g>
<defs>
<filter id="filter0_d_31_224" x="274.419" y="90.0117" width="497.502" height="199.04" filterUnits="userSpaceOnUse" color-interpolation-filters="sRGB">
<feFlood flood-opacity="0" result="BackgroundImageFix"/>
<feColorMatrix in="SourceAlpha" type="matrix" values="0 0 0 0 0 0 0 0 0 0 0 0 0 0 0 0 0 0 127 0" result="hardAlpha"/>
<feOffset dy="4"/>
<feGaussianBlur stdDeviation="2"/>
<feComposite in2="hardAlpha" operator="out"/>
<feColorMatrix type="matrix" values="0 0 0 0 0 0 0 0 0 0 0 0 0 0 0 0 0 0 0.8 0"/>
<feBlend mode="normal" in2="BackgroundImageFix" result="effect1_dropShadow_31_224"/>
<feBlend mode="normal" in="SourceGraphic" in2="effect1_dropShadow_31_224" result="shape"/>
</filter>
<filter id="filter1_d_31_224" x="40.3438" y="45.9316" width="225.383" height="253.068" filterUnits="userSpaceOnUse" color-interpolation-filters="sRGB">
<feFlood flood-opacity="0" result="BackgroundImageFix"/>
<feColorMatrix in="SourceAlpha" type="matrix" values="0 0 0 0 0 0 0 0 0 0 0 0 0 0 0 0 0 0 127 0" result="hardAlpha"/>
<feOffset dy="4"/>
<feGaussianBlur stdDeviation="2"/>
<feComposite in2="hardAlpha" operator="out"/>
<feColorMatrix type="matrix" values="0 0 0 0 0 0 0 0 0 0 0 0 0 0 0 0 0 0 0.8 0"/>
<feBlend mode="normal" in2="BackgroundImageFix" result="effect1_dropShadow_31_224"/>
<feBlend mode="normal" in="SourceGraphic" in2="effect1_dropShadow_31_224" result="shape"/>
</filter>
</defs>
</svg>
